<svg width="28" height="28" viewBox="0 0 28 28" fill="none" xmlns="http://www.w3.org/2000/svg">
<path d="M0 26.1539L14 24.9231L28 26.1539V28H0V26.1539Z" fill="#98D9D5"/>
<path d="M0 24.3077L14 23.0769L28 24.3077V26.1538H0V24.3077Z" fill="#C1E8E6"/>
<path d="M28 7.52618V24.3077H0V7.52618L14 6.29541L28 7.52618Z" fill="#F2EBD9"/>
<path d="M28 1.84619H0V7.52619H28V1.84619Z" fill="#F2484B"/>
<path d="M24.8924 14.4184H23.0463C22.7913 14.4184 22.5847 14.2118 22.5847 13.9569C22.5847 13.702 22.7913 13.4954 23.0463 13.4954H24.8924C25.1474 13.4954 25.3539 13.702 25.3539 13.9569C25.3539 14.2118 25.1474 14.4184 24.8924 14.4184Z" fill="#F2484B"/>
<path d="M19.9078 14.4184H18.0616C17.8067 14.4184 17.6001 14.2118 17.6001 13.9569C17.6001 13.702 17.8067 13.4954 18.0616 13.4954H19.9078C20.1627 13.4954 20.3693 13.702 20.3693 13.9569C20.3693 14.2118 20.1627 14.4184 19.9078 14.4184Z" fill="#185F8D"/>
<path d="M14.9232 14.4184H13.077C12.8221 14.4184 12.6155 14.2118 12.6155 13.9569C12.6155 13.702 12.8221 13.4954 13.077 13.4954H14.9232C15.1781 13.4954 15.3847 13.702 15.3847 13.9569C15.3847 14.2118 15.1781 14.4184 14.9232 14.4184Z" fill="#185F8D"/>
<path d="M9.93855 14.4184H8.0924C7.83751 14.4184 7.63086 14.2118 7.63086 13.9569C7.63086 13.702 7.83751 13.4954 8.0924 13.4954H9.93855C10.1934 13.4954 10.4001 13.702 10.4001 13.9569C10.4001 14.2118 10.1934 14.4184 9.93855 14.4184Z" fill="#185F8D"/>
<path d="M4.95393 14.4184H3.10778C2.85289 14.4184 2.64624 14.2118 2.64624 13.9569C2.64624 13.702 2.85289 13.4954 3.10778 13.4954H4.95393C5.20882 13.4954 5.41547 13.702 5.41547 13.9569C5.41547 14.2118 5.20882 14.4184 4.95393 14.4184Z" fill="#185F8D"/>
<path d="M19.9078 17.7416H18.0616C17.8067 17.7416 17.6001 17.5349 17.6001 17.28C17.6001 17.0251 17.8067 16.8185 18.0616 16.8185H19.9078C20.1627 16.8185 20.3693 17.0251 20.3693 17.28C20.3693 17.5349 20.1627 17.7416 19.9078 17.7416Z" fill="#185F8D"/>
<path d="M14.9232 17.7416H13.077C12.8221 17.7416 12.6155 17.5349 12.6155 17.28C12.6155 17.0251 12.8221 16.8185 13.077 16.8185H14.9232C15.1781 16.8185 15.3847 17.0251 15.3847 17.28C15.3847 17.5349 15.1781 17.7416 14.9232 17.7416Z" fill="#185F8D"/>
<path d="M9.93855 17.7416H8.0924C7.83751 17.7416 7.63086 17.5349 7.63086 17.28C7.63086 17.0251 7.83751 16.8185 8.0924 16.8185H9.93855C10.1934 16.8185 10.4001 17.0251 10.4001 17.28C10.4001 17.5349 10.1934 17.7416 9.93855 17.7416Z" fill="#185F8D"/>
<path d="M4.95393 17.7416H3.10778C2.85289 17.7416 2.64624 17.5349 2.64624 17.28C2.64624 17.0251 2.85289 16.8185 3.10778 16.8185H4.95393C5.20882 16.8185 5.41547 17.0251 5.41547 17.28C5.41547 17.5349 5.20882 17.7416 4.95393 17.7416Z" fill="#185F8D"/>
<path d="M19.9078 21.0646H18.0616C17.8067 21.0646 17.6001 20.8579 17.6001 20.603C17.6001 20.3481 17.8067 20.1415 18.0616 20.1415H19.9078C20.1627 20.1415 20.3693 20.3481 20.3693 20.603C20.3693 20.8579 20.1627 21.0646 19.9078 21.0646Z" fill="#185F8D"/>
<path d="M24.8924 17.7416H23.0463C22.7913 17.7416 22.5847 17.5349 22.5847 17.28C22.5847 17.0251 22.7913 16.8185 23.0463 16.8185H24.8924C25.1474 16.8185 25.3539 17.0251 25.3539 17.28C25.3539 17.5349 25.1474 17.7416 24.8924 17.7416Z" fill="#F2484B"/>
<path d="M24.8924 21.0646H23.0463C22.7913 21.0646 22.5847 20.8579 22.5847 20.603C22.5847 20.3481 22.7913 20.1415 23.0463 20.1415H24.8924C25.1474 20.1415 25.3539 20.3481 25.3539 20.603C25.3539 20.8579 25.1474 21.0646 24.8924 21.0646Z" fill="#F2484B"/>
<path d="M14.9232 21.0646H13.077C12.8221 21.0646 12.6155 20.8579 12.6155 20.603C12.6155 20.3481 12.8221 20.1415 13.077 20.1415H14.9232C15.1781 20.1415 15.3847 20.3481 15.3847 20.603C15.3847 20.8579 15.1781 21.0646 14.9232 21.0646Z" fill="#185F8D"/>
<path d="M9.93855 21.0646H8.0924C7.83751 21.0646 7.63086 20.8579 7.63086 20.603C7.63086 20.3481 7.83751 20.1415 8.0924 20.1415H9.93855C10.1934 20.1415 10.4001 20.3481 10.4001 20.603C10.4001 20.8579 10.1934 21.0646 9.93855 21.0646Z" fill="#185F8D"/>
<path d="M4.95393 21.0646H3.10778C2.85289 21.0646 2.64624 20.8579 2.64624 20.603C2.64624 20.3481 2.85289 20.1415 3.10778 20.1415H4.95393C5.20882 20.1415 5.41547 20.3481 5.41547 20.603C5.41547 20.8579 5.20882 21.0646 4.95393 21.0646Z" fill="#185F8D"/>
<path d="M24.8924 11.0954H23.0463C22.7913 11.0954 22.5847 10.8888 22.5847 10.6339C22.5847 10.379 22.7913 10.1724 23.0463 10.1724H24.8924C25.1474 10.1724 25.3539 10.379 25.3539 10.6339C25.3539 10.8888 25.1474 11.0954 24.8924 11.0954Z" fill="#F2484B"/>
<path d="M19.9078 11.0954H18.0616C17.8067 11.0954 17.6001 10.8888 17.6001 10.6339C17.6001 10.379 17.8067 10.1724 18.0616 10.1724H19.9078C20.1627 10.1724 20.3693 10.379 20.3693 10.6339C20.3693 10.8888 20.1627 11.0954 19.9078 11.0954Z" fill="#185F8D"/>
<path d="M14.9232 11.0954H13.077C12.8221 11.0954 12.6155 10.8888 12.6155 10.6339C12.6155 10.379 12.8221 10.1724 13.077 10.1724H14.9232C15.1781 10.1724 15.3847 10.379 15.3847 10.6339C15.3847 10.8888 15.1781 11.0954 14.9232 11.0954Z" fill="#185F8D"/>
<path d="M9.93855 11.0954H8.0924C7.83751 11.0954 7.63086 10.8888 7.63086 10.6339C7.63086 10.379 7.83751 10.1724 8.0924 10.1724H9.93855C10.1934 10.1724 10.4001 10.379 10.4001 10.6339C10.4001 10.8888 10.1934 11.0954 9.93855 11.0954Z" fill="#185F8D"/>
<path d="M4.95393 11.0954H3.10778C2.85289 11.0954 2.64624 10.8888 2.64624 10.6339C2.64624 10.379 2.85289 10.1724 3.10778 10.1724H4.95393C5.20882 10.1724 5.41547 10.379 5.41547 10.6339C5.41547 10.8888 5.20882 11.0954 4.95393 11.0954Z" fill="#185F8D"/>
<path d="M26 1.84615V2.76923C26 3.27877 25.5864 3.69231 25.0769 3.69231C24.5673 3.69231 24.1538 3.27877 24.1538 2.76923V1.84615V0.923077C24.1538 0.413539 24.5673 0 25.0769 0C25.5864 0 26 0.413539 26 0.923077V1.84615Z" fill="#98D9D5"/>
<path d="M18.6154 1.84615V2.76923C18.6154 3.27877 18.2019 3.69231 17.6924 3.69231C17.1828 3.69231 16.7693 3.27877 16.7693 2.76923V1.84615V0.923077C16.7693 0.413539 17.1828 0 17.6924 0C18.2019 0 18.6154 0.413539 18.6154 0.923077V1.84615Z" fill="#98D9D5"/>
<path d="M11.2307 1.84615V2.76923C11.2307 3.27877 10.8171 3.69231 10.3076 3.69231C9.79806 3.69231 9.38452 3.27877 9.38452 2.76923V1.84615V0.923077C9.38452 0.413539 9.79806 0 10.3076 0C10.8171 0 11.2307 0.413539 11.2307 0.923077V1.84615Z" fill="#98D9D5"/>
<path d="M3.84615 1.84615V2.76923C3.84615 3.27877 3.43262 3.69231 2.92308 3.69231C2.41354 3.69231 2 3.27877 2 2.76923V1.84615V0.923077C2 0.413539 2.41354 0 2.92308 0C3.43262 0 3.84615 0.413539 3.84615 0.923077V1.84615Z" fill="#98D9D5"/>
</svg>
