<svg width="24" height="28" viewBox="0 0 24 28" fill="none" xmlns="http://www.w3.org/2000/svg">
<path d="M13.2307 1.70728H10.7692C10.5142 1.70728 10.3076 1.91392 10.3076 2.16881C10.3076 2.42371 10.5142 2.63035 10.7692 2.63035H11.5384V4.63036H12.4615V2.63035H13.2307C13.4857 2.63035 13.6922 2.42371 13.6922 2.16881C13.6922 1.91392 13.4857 1.70728 13.2307 1.70728Z" fill="#BD1515"/>
<path d="M12 4.01538C5.37657 4.01538 0.00732422 9.38462 0.00732422 16.0074C0.00732422 22.6308 5.37657 28 12 28C18.6234 28 23.9926 22.6308 23.9926 16.0074C23.9926 9.38462 18.6234 4.01538 12 4.01538Z" fill="#F2484B"/>
<path d="M12 5.86145C6.40552 5.86145 1.85352 10.4128 1.85352 16.0073C1.85352 21.6024 6.40552 26.1538 12 26.1538C17.5945 26.1538 22.1465 21.6024 22.1465 16.0073C22.1465 10.4128 17.5945 5.86145 12 5.86145Z" fill="white"/>
<path d="M8.74147 11.4437C8.38147 11.0837 7.79685 11.0837 7.43623 11.4437C7.07562 11.8043 7.07562 12.3889 7.43623 12.7496L11.0769 16.3902L12.6522 15.3551L8.74147 11.4437Z" fill="#FFCC75"/>
<path d="M11.0769 16.0073V19.3846C11.0769 19.8941 11.4904 20.3076 12 20.3076C12.5095 20.3076 12.9231 19.8941 12.9231 19.3846V16.0073H11.0769Z" fill="#F2484B"/>
<path d="M17.8386 15.5459H12V16.469H17.8386C18.0936 16.469 18.3001 16.2623 18.3001 16.0074C18.3001 15.7525 18.0936 15.5459 17.8386 15.5459Z" fill="#185F8D"/>
<path d="M12 16.9304C12.5098 16.9304 12.9231 16.5171 12.9231 16.0073C12.9231 15.4975 12.5098 15.0842 12 15.0842C11.4902 15.0842 11.0769 15.4975 11.0769 16.0073C11.0769 16.5171 11.4902 16.9304 12 16.9304Z" fill="#BD1515"/>
<path d="M21.9421 0.847316C23.9218 2.28609 24.3593 5.05717 22.9206 7.03625L15.7532 1.82578C17.1919 -0.153916 19.963 -0.591456 21.9421 0.847316Z" fill="#F2484B"/>
<path d="M8.24665 1.82578L1.07925 7.03625C-0.359522 5.05717 0.0780173 2.28609 2.05771 0.847316C4.03679 -0.591456 6.80788 -0.153916 8.24665 1.82578Z" fill="#F2484B"/>
<path d="M11.9999 8.78431C11.7449 8.78431 11.5383 8.57767 11.5383 8.32278V7.70739C11.5383 7.4525 11.7449 7.24585 11.9999 7.24585C12.2548 7.24585 12.4614 7.4525 12.4614 7.70739V8.32278C12.4614 8.57773 12.2548 8.78431 11.9999 8.78431Z" fill="#274B6D"/>
<path d="M8.38849 9.75201C8.16769 9.87946 7.88548 9.80382 7.75803 9.58309L7.45034 9.05016C7.32289 8.82942 7.39852 8.54714 7.61926 8.4197C7.84006 8.29225 8.12228 8.36788 8.24972 8.58862L8.55742 9.12155C8.68486 9.34229 8.60929 9.6245 8.38849 9.75201Z" fill="#274B6D"/>
<path d="M5.74456 12.3958C5.61712 12.6166 5.33484 12.6922 5.1141 12.5648L4.58118 12.2571C4.36044 12.1296 4.28481 11.8473 4.41225 11.6266C4.5397 11.4058 4.82198 11.3302 5.04272 11.4577L5.57564 11.7654C5.79638 11.8928 5.87207 12.175 5.74456 12.3958Z" fill="#274B6D"/>
<path d="M4.77699 16.0073C4.77699 16.2623 4.57034 16.4689 4.31545 16.4689H3.70006C3.44517 16.4689 3.23853 16.2623 3.23853 16.0073C3.23853 15.7524 3.44517 15.5458 3.70006 15.5458H4.31545C4.57034 15.5458 4.77699 15.7524 4.77699 16.0073Z" fill="#274B6D"/>
<path d="M5.74456 19.6189C5.87201 19.8397 5.79638 20.1219 5.57564 20.2494L5.04272 20.5571C4.82198 20.6845 4.5397 20.6089 4.41225 20.3881C4.28481 20.1674 4.36044 19.8851 4.58118 19.7577L5.1141 19.45C5.33484 19.3225 5.61712 19.3981 5.74456 19.6189Z" fill="#274B6D"/>
<path d="M8.38851 22.2627C8.60931 22.3902 8.68488 22.6724 8.55743 22.8932L8.24974 23.4261C8.12229 23.6468 7.84001 23.7225 7.61927 23.595C7.39847 23.4676 7.3229 23.1853 7.45035 22.9646L7.75804 22.4316C7.88549 22.2109 8.16777 22.1353 8.38851 22.2627Z" fill="#274B6D"/>
<path d="M11.9999 23.2303C12.2548 23.2303 12.4614 23.437 12.4614 23.6919V24.3073C12.4614 24.5622 12.2548 24.7688 11.9999 24.7688C11.7449 24.7688 11.5383 24.5622 11.5383 24.3073V23.6919C11.5383 23.437 11.745 23.2303 11.9999 23.2303Z" fill="#274B6D"/>
<path d="M15.6115 22.2627C15.8323 22.1353 16.1145 22.2109 16.242 22.4316L16.5496 22.9646C16.6771 23.1853 16.6015 23.4676 16.3807 23.595C16.1599 23.7225 15.8777 23.6468 15.7503 23.4261L15.4426 22.8932C15.3151 22.6724 15.3907 22.3902 15.6115 22.2627Z" fill="#274B6D"/>
<path d="M18.2553 19.6189C18.3827 19.3981 18.665 19.3225 18.8858 19.45L19.4187 19.7577C19.6394 19.8851 19.7151 20.1674 19.5876 20.3881C19.4602 20.6089 19.1779 20.6845 18.9571 20.5571L18.4242 20.2494C18.2035 20.1219 18.1278 19.8397 18.2553 19.6189Z" fill="#274B6D"/>
<path d="M19.2231 16.0073C19.2231 15.7524 19.4298 15.5458 19.6847 15.5458H20.3001C20.555 15.5458 20.7616 15.7524 20.7616 16.0073C20.7616 16.2623 20.555 16.4689 20.3001 16.4689H19.6847C19.4298 16.4689 19.2231 16.2622 19.2231 16.0073Z" fill="#274B6D"/>
<path d="M18.2553 12.3958C18.1278 12.175 18.2035 11.8928 18.4242 11.7654L18.9571 11.4577C19.1779 11.3302 19.4601 11.4058 19.5876 11.6266C19.715 11.8474 19.6394 12.1296 19.4187 12.257L18.8857 12.5647C18.665 12.6922 18.3827 12.6166 18.2553 12.3958Z" fill="#274B6D"/>
<path d="M15.6115 9.75201C15.3907 9.62456 15.3151 9.34229 15.4425 9.12155L15.7502 8.58862C15.8777 8.36788 16.16 8.29225 16.3807 8.4197C16.6015 8.54714 16.6771 8.82942 16.5496 9.05016L16.2419 9.58309C16.1145 9.80382 15.8322 9.87946 15.6115 9.75201Z" fill="#274B6D"/>
</svg>
