<svg width="434" height="381" viewBox="0 0 434 381" fill="none" xmlns="http://www.w3.org/2000/svg">
<path d="M244.599 63.8419C203.507 84.0992 169.366 118.066 148.513 158.376C129.909 194.184 111.714 248.203 142.789 281.352C186.743 328.209 238.057 287.695 268.109 248.203C291.211 217.92 319.423 183.339 357.449 184.567C387.706 185.59 412.852 212.395 416.736 242.065C425.322 305.292 358.88 355.833 303.886 372.202C233.559 393.073 151.58 378.341 112.532 313.068C95.5635 284.83 80.4351 249.431 45.885 238.791C22.988 231.834 2.74859 223.445 0.704212 195.616C-1.13573 170.858 15.4238 153.67 38.5253 148.145C58.7646 143.234 73.2798 147.736 92.0881 136.277C114.576 122.568 131.954 100.878 146.264 79.1883C163.437 53.2018 183.063 16.3704 213.729 3.68405C257.887 -14.527 293.869 39.4923 244.599 63.8419Z" fill="#5C776C"/>
<path d="M195.534 113.154C154.238 136.072 119.688 136.481 74.3024 151.213C-2.9752 176.381 -27.0989 270.915 48.9521 308.156C88.4087 327.39 131.75 321.047 175.09 327.595C213.32 333.324 248.075 352.967 288.349 350.103C336.392 346.829 389.342 316.341 401.812 272.961C408.354 250.249 406.106 226.718 398.746 204.414" stroke="#EFD4BC" stroke-width="6.16118" stroke-miterlimit="10"/>
<path d="M431.66 259.048C416.327 338.644 312.677 385.502 200.032 363.812C87.3862 342.123 8.47305 260.071 23.8059 180.474C39.1388 100.877 142.789 54.0197 255.434 75.7093C368.08 97.3989 446.993 179.451 431.66 259.048Z" fill="url(#paint0_radial_123_4024)"/>
<path d="M407.128 167.993C384.435 145.485 347.841 143.643 323.921 118.475C285.078 77.9603 233.56 43.5844 174.477 48.086C106.399 53.4061 47.7254 90.8513 32.3925 167.583C20.1262 229.174 37.7079 319.615 130.727 329.437C194.512 336.189 215.569 302.018 259.114 307.952C300.002 313.681 347.636 311.839 384.026 290.355C416.532 271.12 434.318 229.787 422.256 193.365C418.985 182.725 413.67 174.54 407.128 167.993Z" fill="#FF5A62"/>
<path d="M94.9508 340.896C95.3597 344.169 97.6085 347.648 100.062 348.671C102.719 349.694 106.399 348.466 107.422 345.806C108.444 343.351 107.422 340.486 105.786 338.44C104.764 337.008 103.128 335.78 101.493 335.166C99.8574 334.552 97.813 334.757 96.3819 335.985C95.1553 337.212 94.7464 339.054 94.9508 340.896Z" fill="#5C776C"/>
<path d="M70.8267 339.873C71.6444 342.942 75.5288 346.83 76.3465 341.305C76.551 340.078 75.1199 337.417 73.6888 337.008C70.8267 336.394 70.2134 338.031 70.8267 339.873Z" fill="#FF5A62"/>
<path d="M326.988 104.357C328.01 106.813 330.668 108.859 332.917 107.222C335.779 104.971 333.326 98.8324 329.646 99.4462C326.375 99.8555 326.17 102.106 326.988 104.357Z" fill="#5C776C"/>
<path d="M84.3197 370.361C85.1375 372.407 87.1818 374.454 89.2262 374.863C91.0662 375.272 92.4972 373.635 93.1105 371.794C93.7239 369.747 93.315 367.497 91.8839 365.86C90.4529 364.223 87.9996 363.813 86.1597 364.632C84.1153 365.655 83.2975 368.11 84.3197 370.361Z" fill="#5C776C"/>
<path d="M289.985 73.664C290.802 75.7101 292.847 77.7563 294.891 78.1656C296.731 78.5748 298.162 76.9379 298.775 75.0963C299.389 73.0501 298.98 70.7993 297.549 69.1623C296.118 67.5254 293.664 67.1162 291.824 67.9346C289.78 68.9577 289.167 71.6178 289.985 73.664Z" fill="#FF5A62"/>
<path d="M350.499 125.842C353.565 128.912 357.654 131.572 359.903 126.456C361.129 123.387 360.107 118.476 357.041 116.839C351.725 113.565 345.796 121.341 350.499 125.842Z" fill="#FF5A62"/>
<path d="M45.4765 322.685C44.0455 320.434 41.5922 318.797 39.5478 320.23C37.9123 321.458 38.3212 325.55 39.3434 327.187C41.3878 330.052 44.2499 330.052 46.0898 326.982C46.7032 325.755 46.2943 324.118 45.4765 322.685Z" fill="#5C776C"/>
<path d="M363.583 86.7604C362.151 84.5096 359.698 82.8727 357.654 84.305C356.018 85.5327 356.427 89.6251 357.449 91.262C359.085 93.9221 363.174 93.7175 364.4 90.6482C364.809 89.4205 364.4 87.9882 363.583 86.7604Z" fill="#5C776C"/>
<path d="M128.069 370.361C129.5 373.225 132.158 375.271 134.407 371.793C135.838 369.542 134.407 365.04 131.954 363.813C126.229 361.357 126.229 366.473 128.069 370.361Z" fill="#FF5A62"/>
<defs>
<radialGradient id="paint0_radial_123_4024" cx="0" cy="0" r="1" gradientUnits="userSpaceOnUse" gradientTransform="translate(227.754 219.708) rotate(10.9132) scale(207.67 146.762)">
<stop offset="0.6062" stop-color="#6F9088"/>
<stop offset="0.6733" stop-color="#829E97" stop-opacity="0.8296"/>
<stop offset="0.8088" stop-color="#B2C3BF" stop-opacity="0.4855"/>
<stop offset="0.9989" stop-color="white" stop-opacity="0.01"/>
<stop offset="1" stop-color="white" stop-opacity="0"/>
</radialGradient>
</defs>
</svg>
