<svg width="145" height="118" viewBox="0 0 145 118" fill="none" xmlns="http://www.w3.org/2000/svg">
<path d="M75.3191 51.6494V106.743L36.3719 101.641C36.2235 83.5966 35.7042 66.144 33.4044 51.5755L33.1819 48.3216L75.3191 51.6494Z" fill="#EA493D"/>
<path d="M112.338 48.2477C110.928 64.7389 111.076 82.2655 112.338 100.606L75.3191 106.67V51.6495L112.338 48.2477Z" fill="#AA170C"/>
<path d="M112.338 48.2477V52.241L75.3191 56.3823L33.3303 51.5755L33.1819 48.2477L75.3191 51.6494L112.338 48.2477Z" fill="#E0867C"/>
<path d="M29.25 33.7531L74.2063 29.0202L115.75 33.7531L73.8353 41.1483L29.25 33.7531Z" fill="#EA493D"/>
<path d="M114.86 49.4309L75.319 53.5722L30.5853 49.4309C30.7337 44.1804 30.2886 39.0037 29.25 33.7532L74.7997 38.3382L115.676 33.7532C114.711 39.0037 114.415 44.1804 114.86 49.4309Z" fill="#EA493D"/>
<path d="M114.86 49.4309L75.3191 53.5722L74.7998 38.3382L115.676 33.7531C114.711 39.0037 114.415 44.1803 114.86 49.4309Z" fill="#AA170C"/>
<path d="M50.467 35.8977L57.3663 36.5633L58.479 104.525L53.0635 103.785L50.467 35.8977Z" fill="#F8B229"/>
<path d="M50.467 35.8978L90.5271 30.869L96.6845 31.6086L57.3663 36.5633L50.467 35.8978Z" fill="#F8B229"/>
<path d="M91.4915 36.4893V104.007L97.2779 103.12L98.6132 35.6759L91.4915 36.4893Z" fill="#F8B229"/>
<path d="M98.6133 35.6759L57.2179 30.869L50.467 31.5346L91.4915 36.4894L98.6133 35.6759Z" fill="#F8B229"/>
<path d="M73.7611 33.1616C72.8709 33.3095 70.9421 32.3481 70.2003 32.1262C65.1557 30.5733 60.1111 28.9463 55.289 26.9496C53.1376 26.0622 50.9121 24.9529 49.8735 22.9562C49.7993 22.8083 49.7251 22.5865 49.6509 22.4386C48.8349 20.22 49.9477 17.4838 51.8765 16.1527C53.8795 14.7476 56.476 14.5997 58.7757 15.2652C61.0755 15.9308 63.0785 17.3359 64.8589 19.0368C66.7877 20.8116 68.4198 22.8083 69.9035 24.9529C71.2388 26.8757 72.5 28.9463 73.6128 31.017C73.9095 31.5346 74.8739 32.7918 73.7611 33.1616Z" fill="#EA493D"/>
<path d="M73.687 33.1616C72.8709 33.3095 70.9421 32.3481 70.1261 32.1263C65.0815 30.5733 60.0369 28.9464 55.2148 26.9497C53.0635 26.0622 50.8379 24.953 49.7993 22.9563C49.7993 22.5126 49.9477 22.0688 50.1702 21.6991C50.7637 20.8117 51.8023 20.4419 52.8409 20.5159C53.8795 20.5898 54.8439 20.9596 55.7341 21.4033C62.3366 24.2874 68.0489 28.7245 73.687 33.1616Z" fill="#AA170C"/>
<path d="M74.7998 33.1616C75.8384 33.3835 78.2123 32.2002 79.1025 31.9044C85.1115 30.0556 91.1205 28.0589 96.9812 25.6925C99.5035 24.6572 102.248 23.326 103.435 20.8856C103.509 20.6638 103.658 20.4419 103.732 20.294C104.696 17.6318 103.435 14.3779 101.061 12.7509C98.6874 11.124 95.5716 10.9021 92.7526 11.7156C90.0078 12.5291 87.5596 14.23 85.4825 16.2267C83.1827 18.3713 81.1797 20.7377 79.4734 23.326C77.8414 25.6925 76.4319 28.1329 75.0223 30.5733C74.5772 31.2389 73.3903 32.7179 74.7998 33.1616Z" fill="#EA493D"/>
<path d="M74.7998 33.1617C75.7642 33.3836 78.1381 32.2003 79.0284 31.9045C85.0374 30.0557 91.0464 28.059 96.907 25.6926C99.4293 24.6573 102.174 23.3261 103.361 20.8857C103.287 20.3681 103.139 19.8504 102.916 19.4067C102.248 18.3714 100.913 17.9276 99.726 17.9276C98.5391 18.0016 97.3521 18.4453 96.2393 18.963C88.4499 22.5127 81.5507 27.8372 74.7998 33.1617Z" fill="#AA170C"/>
</svg>
