<svg width="132" height="141" viewBox="0 0 132 141" fill="none" xmlns="http://www.w3.org/2000/svg">
<path d="M70.2695 59.7228V140.5L11.2858 133.019C11.0611 106.563 10.2746 80.9742 6.79176 59.6144L6.45471 54.8436L70.2695 59.7228Z" fill="#EA493D"/>
<path d="M126.332 54.7352C124.197 78.9142 124.422 104.611 126.332 131.501L70.2694 140.392V59.7228L126.332 54.7352Z" fill="#AA170C"/>
<path d="M126.332 54.7352V60.5902L70.2693 66.6621L6.67929 59.6144L6.45459 54.7352L70.2693 59.7228L126.332 54.7352Z" fill="#E0867C"/>
<path d="M0.5 33.4838L68.584 26.5446L131.5 33.4838L68.0223 44.3264L0.5 33.4838Z" fill="#EA493D"/>
<path d="M130.152 56.4701L70.2693 62.542L2.5223 56.4701C2.747 48.7719 2.0729 41.1821 0.5 33.4839L69.4828 40.2063L131.388 33.4839C129.927 41.1821 129.478 48.7719 130.152 56.4701Z" fill="#EA493D"/>
<path d="M130.152 56.47L70.2692 62.5419L69.4828 40.2062L131.388 33.4838C129.927 41.182 129.478 48.7718 130.152 56.47Z" fill="#AA170C"/>
<path d="M32.6322 36.6282L43.0807 37.604L44.766 137.247L36.5644 136.163L32.6322 36.6282Z" fill="#F8B229"/>
<path d="M32.6322 36.6282L93.3012 29.2552L102.626 30.3395L43.0807 37.604L32.6322 36.6282Z" fill="#F8B229"/>
<path d="M94.7617 37.4955V136.488L103.525 135.187L105.547 36.3029L94.7617 37.4955Z" fill="#F8B229"/>
<path d="M105.547 36.3029L42.856 29.2552L32.6322 30.2311L94.7617 37.4956L105.547 36.3029Z" fill="#F8B229"/>
<path d="M67.9102 32.6164C66.562 32.8333 63.6409 31.4238 62.5174 31.0985C54.8776 28.8215 47.2378 26.4362 39.9351 23.5087C36.6769 22.2076 33.3064 20.5812 31.7335 17.6537C31.6212 17.4368 31.5088 17.1116 31.3965 16.8947C30.1606 13.6419 31.8459 9.63018 34.767 7.67852C37.8004 5.61843 41.7327 5.40158 45.2155 6.37741C48.6983 7.35324 51.7318 9.41333 54.4282 11.9071C57.3493 14.5093 59.821 17.4368 62.068 20.5812C64.0903 23.4003 66.0002 26.4362 67.6855 29.4721C68.1349 30.2311 69.5954 32.0743 67.9102 32.6164Z" fill="#EA493D"/>
<path d="M67.7979 32.6164C66.562 32.8333 63.6409 31.4237 62.4051 31.0985C54.7653 28.8215 47.1255 26.4362 39.8228 23.5087C36.5646 22.2076 33.1941 20.5812 31.6212 17.6537C31.6212 17.0031 31.8459 16.3526 32.183 15.8104C33.0818 14.5093 34.6547 13.9672 36.2276 14.0756C37.8005 14.1841 39.261 14.7262 40.6092 15.3767C50.6084 19.6053 59.2593 26.1109 67.7979 32.6164Z" fill="#AA170C"/>
<path d="M69.4831 32.6166C71.056 32.9419 74.6512 31.2071 75.9994 30.7733C85.0998 28.0627 94.2001 25.1352 103.076 21.6656C106.896 20.1476 111.053 18.196 112.85 14.6179C112.963 14.2926 113.187 13.9674 113.3 13.7505C114.76 9.84718 112.85 5.07645 109.255 2.69108C105.66 0.305718 100.941 -0.0195593 96.6718 1.17312C92.5149 2.36581 88.8073 4.8596 85.6615 7.78709C82.1787 10.9314 79.1452 14.4011 76.5612 18.196C74.0895 21.6656 71.9548 25.2436 69.8202 28.8217C69.1461 29.7975 67.3485 31.966 69.4831 32.6166Z" fill="#EA493D"/>
<path d="M69.4832 32.6167C70.9437 32.942 74.5389 31.2072 75.8871 30.7735C84.9874 28.0628 94.0878 25.1353 102.963 21.6657C106.783 20.1477 110.94 18.1961 112.738 14.618C112.626 13.8591 112.401 13.1001 112.064 12.4495C111.053 10.9316 109.03 10.281 107.233 10.281C105.435 10.3894 103.638 11.04 101.952 11.799C90.1555 17.0034 79.707 24.8101 69.4832 32.6167Z" fill="#AA170C"/>
</svg>
