<svg width="133" height="117" viewBox="0 0 133 117" fill="none" xmlns="http://www.w3.org/2000/svg">
<path d="M51.3644 18.1857C48.1644 18.1857 45.295 20.2933 44.2289 23.4295C43.8796 24.4531 44.3952 25.5775 45.3818 25.9395C46.0282 26.1809 46.7048 25.9988 47.2016 25.5706L55.1482 35.4896V37.8512C55.1482 38.9372 55.9944 39.8178 57.0402 39.8178C58.0859 39.8178 58.9321 38.9372 58.9321 37.8512V26.0519C58.9321 21.7144 55.538 18.1857 51.3644 18.1857Z" fill="#B9BBC1"/>
<path d="M45.6886 22.1188C42.2207 22.1188 38.9431 23.5026 36.3878 26.0952L12.1309 53.6211L14.9208 56.2771L15.5761 55.533L55.1483 66.8102V67.3496C55.1483 68.4356 55.9944 69.3161 57.0402 69.3161C58.086 69.3161 58.9322 68.4356 58.9322 67.3496V35.8847C58.9322 28.2941 52.9903 22.1188 45.6886 22.1188Z" fill="#8B8996"/>
<path d="M81.6354 18.1857C84.8353 18.1857 87.7047 20.2933 88.7708 23.4295C89.1201 24.4531 88.6046 25.5775 87.6179 25.9395C86.9716 26.1809 86.295 25.9988 85.7981 25.5706L77.8515 35.4896V37.8512C77.8515 38.9372 77.0053 39.8178 75.9596 39.8178C74.9138 39.8178 74.0676 38.9372 74.0676 37.8512V26.0519C74.0676 21.7144 77.4615 18.1857 81.6354 18.1857Z" fill="#B9BBC1"/>
<path d="M87.3112 22.1188C90.7791 22.1188 94.0566 23.5026 96.6119 26.0952L120.869 53.6213L118.079 56.2774L117.424 55.5333L77.8515 66.8102V67.3496C77.8515 68.4356 77.0053 69.3161 75.9596 69.3161C74.9138 69.3161 74.0676 68.4356 74.0676 67.3496V35.8847C74.0676 28.2941 80.0095 22.1188 87.3112 22.1188Z" fill="#8B8996"/>
<path d="M32.4451 92.9147C43.9388 92.9147 53.2564 83.2297 53.2564 71.2827C53.2564 59.3356 43.9388 49.6506 32.4451 49.6506C20.9513 49.6506 11.6338 59.3356 11.6338 71.2827C11.6338 83.2297 20.9513 92.9147 32.4451 92.9147Z" fill="#53DCFF"/>
<path d="M32.4451 43.7508C17.8398 43.7508 5.95801 56.1012 5.95801 71.2825C5.95801 86.4638 17.8398 98.8143 32.4451 98.8143C47.0504 98.8143 58.9322 86.4638 58.9322 71.2825C58.9322 56.1012 47.0504 43.7508 32.4451 43.7508ZM32.4451 90.9481C22.0132 90.9481 13.5258 82.1259 13.5258 71.2825C13.5258 60.4392 22.0132 51.617 32.4451 51.617C42.877 51.617 51.3645 60.4392 51.3645 71.2825C51.3645 82.1259 42.877 90.9481 32.4451 90.9481Z" fill="#5C546A"/>
<path d="M51.3644 45.7173H81.6353L81.9262 45.7131C78.2443 49.4611 75.9595 54.6865 75.9595 60.4665V67.3494H57.0402V60.4665C57.0402 54.6865 54.7554 49.4611 51.0735 45.7131" fill="#5C546A"/>
<path d="M36.2289 75.2156C40.4084 75.2156 43.7966 71.6938 43.7966 67.3494C43.7966 63.005 40.4084 59.4832 36.2289 59.4832C32.0493 59.4832 28.6611 63.005 28.6611 67.3494C28.6611 71.6938 32.0493 75.2156 36.2289 75.2156Z" fill="white"/>
<path d="M100.555 92.9147C112.048 92.9147 121.366 83.2297 121.366 71.2827C121.366 59.3356 112.048 49.6506 100.555 49.6506C89.0609 49.6506 79.7434 59.3356 79.7434 71.2827C79.7434 83.2297 89.0609 92.9147 100.555 92.9147Z" fill="#53DCFF"/>
<path d="M100.555 43.7508C85.9495 43.7508 74.0676 56.1012 74.0676 71.2825C74.0676 86.4638 85.9495 98.8143 100.555 98.8143C115.16 98.8143 127.042 86.4638 127.042 71.2825C127.042 56.1012 115.16 43.7508 100.555 43.7508ZM100.555 90.9481C90.1228 90.9481 81.6354 82.1259 81.6354 71.2825C81.6354 60.4392 90.1228 51.617 100.555 51.617C110.987 51.617 119.474 60.4392 119.474 71.2825C119.474 82.1259 110.987 90.9481 100.555 90.9481Z" fill="#5C546A"/>
<path d="M104.339 75.2156C108.518 75.2156 111.906 71.6938 111.906 67.3494C111.906 63.005 108.518 59.4832 104.339 59.4832C100.159 59.4832 96.771 63.005 96.771 67.3494C96.771 71.6938 100.159 75.2156 104.339 75.2156Z" fill="white"/>
<path d="M81.6355 41.7844H51.3645V45.7175H81.6355V41.7844Z" fill="#8B8996"/>
</svg>
