<svg width="369" height="488" viewBox="0 0 369 488" fill="none" xmlns="http://www.w3.org/2000/svg">
<g clip-path="url(#clip0_36_2954)">
<path d="M329.818 253.62C329.818 253.62 326.922 247.827 326.301 246.173C325.68 244.518 324.439 233.14 323.198 230.244C321.957 227.141 328.37 220.314 329.611 217.625C330.645 214.936 330.852 213.694 331.472 213.488C332.093 213.281 334.782 215.142 335.816 217.832C336.851 220.521 331.886 226.934 332.92 227.348C333.955 227.761 340.367 221.348 344.918 216.591C349.469 211.626 352.158 207.282 353.399 206.661C354.641 206.247 355.675 208.109 355.054 211.005C354.434 213.901 354.434 213.901 354.434 213.901C354.434 213.901 358.778 205.42 360.226 207.075C361.674 208.73 360.226 211.833 360.226 211.833C360.226 211.833 362.294 210.798 362.915 212.246C363.535 213.694 362.915 220.935 360.019 226.106C358.364 229.209 355.054 232.312 355.054 232.312C355.054 232.312 357.537 230.658 360.639 228.796C364.57 226.52 366.431 224.658 368.293 226.52C368.707 226.934 364.156 233.14 361.674 236.036C359.191 238.932 359.605 240.794 346.366 250.724C345.125 251.758 332.3 257.964 332.3 257.964L329.818 253.62Z" fill="#DA6945"/>
<path d="M291.756 471.037C275.414 470.416 257.417 473.312 257.624 469.589C257.831 465.865 260.107 446.42 258.245 444.144C258.245 444.144 258.245 444.144 258.038 443.937C254.728 441.041 231.974 428.629 224.941 413.114C217.701 396.978 219.149 387.876 214.391 382.084C213.77 381.257 212.943 380.015 211.702 378.36C204.048 367.19 186.672 338.228 185.431 336.366C185.431 336.366 224.113 301.819 250.177 307.612C253.487 324.575 258.865 355.398 259.693 372.982C260.727 394.496 274.173 428.009 276.448 432.973C278.31 434.008 324.646 457.384 329.818 463.59C334.782 470.209 307.891 471.658 291.756 471.037Z" fill="url(#paint0_linear_36_2954)"/>
<path d="M335.816 256.516C335.816 256.516 314.096 295.407 293.617 299.751C280.379 302.647 270.449 290.442 265.278 281.753C262.796 277.616 261.348 274.099 260.934 273.479V273.272L258.245 248.655L255.556 224.244L254.935 218.245H255.142C267.14 218.659 259.9 197.972 259.486 197.352C260.313 197.765 270.656 202.937 290.308 234.174C293.411 239.139 296.927 244.931 300.444 251.344C302.099 254.24 325.474 242.449 325.474 242.449L335.816 256.516Z" fill="url(#paint1_linear_36_2954)"/>
<path d="M272.932 250.516C271.897 260.445 269.208 270.995 265.278 281.753C264.037 285.062 262.589 288.579 261.141 291.889C258.452 297.888 254.728 303.06 250.177 307.611C246.247 311.748 241.489 315.265 236.732 318.575C220.597 329.125 200.738 334.711 185.431 336.366C181.914 336.779 178.605 336.986 175.709 336.779C175.088 336.779 174.674 336.779 174.054 336.779C174.054 336.779 171.985 335.124 168.882 332.021C166.193 329.539 162.677 326.022 158.746 321.885C146.542 309.266 131.027 290.648 127.718 275.96C127.304 273.685 126.89 271.616 127.097 269.547C127.304 266.858 127.718 264.583 128.338 262.514C129.993 257.342 133.096 253.412 137.44 250.309C146.128 244.103 159.367 241.413 173.226 239.759C177.157 239.345 181.087 238.931 185.017 238.517C190.602 238.104 194.946 233.346 198.049 227.14C204.876 214.107 207.151 194.455 208.599 192.8C208.806 192.8 209.013 192.593 209.426 192.593C213.15 191.352 216.46 190.524 219.769 189.903C220.39 189.697 221.01 189.697 221.424 189.49C222.045 189.283 222.665 189.283 223.286 189.076C224.734 188.869 225.975 188.662 227.216 188.662C227.216 188.662 227.216 188.662 227.423 188.662C239.834 187.421 249.143 189.903 255.763 194.248L227.423 188.662C231.146 195.489 244.179 217.417 254.728 218.037H254.935C266.933 218.451 259.693 197.764 259.279 197.144C260.52 198.178 261.555 199.419 262.589 200.661L262.796 200.867L263.83 202.316L264.037 202.522C265.071 203.764 265.899 205.212 266.519 206.66C270.036 213.693 272.311 221.968 273.139 231.07C273.345 233.139 273.345 235.001 273.345 237.069C273.552 241.62 273.345 245.965 272.932 250.516Z" fill="url(#paint2_linear_36_2954)"/>
<path d="M272.932 250.517C270.449 257.965 266.105 265.826 260.934 273.273C244.592 297.27 220.183 318.163 220.183 318.163L217.907 317.542C217.907 317.542 237.559 294.373 238.593 267.687C239.421 247.828 230.112 219.281 225.147 205.834C223.493 201.283 222.251 198.387 222.251 198.387L221.631 196.732L219.355 190.112C219.976 189.905 220.597 189.905 221.01 189.698C221.631 189.492 222.251 189.492 222.872 189.285C224.32 189.078 225.561 188.871 226.802 188.871C226.802 188.871 226.802 188.871 227.009 188.871C239.421 187.63 248.729 190.112 255.349 194.456L227.009 188.871C230.733 195.698 243.765 217.626 254.314 218.246H254.521C266.519 218.66 259.279 197.973 258.865 197.353C260.106 198.387 261.141 199.628 262.175 200.869L262.382 201.076L263.416 202.524L263.623 202.731C264.657 203.972 265.485 205.42 266.105 206.868C269.622 213.902 271.897 222.177 272.725 231.279C273.759 237.278 273.759 243.691 272.932 250.517Z" fill="url(#paint3_linear_36_2954)"/>
<path d="M261.348 200.249C261.348 200.249 265.898 230.244 254.728 227.348C248.109 225.693 225.768 192.388 225.768 192.388L225.975 186.182L258.865 192.595C258.865 192.388 258.245 196.939 261.348 200.249Z" fill="#BE4526"/>
<path d="M222.045 196.731C221.838 198.8 221.424 200.455 220.804 202.317C217.287 214.315 208.599 221.969 198.049 227.348C187.913 232.52 175.915 235.829 165.159 238.932C162.47 239.76 159.78 240.381 157.298 241.208C141.784 245.966 122.339 247.414 108.48 247.828C98.3437 248.035 91.3105 247.828 91.3105 247.828L91.5174 229.21C91.5174 229.21 91.5174 229.21 108.687 219.28C114.685 215.97 120.064 213.488 124.822 211.833C126.683 211.212 128.545 210.592 130.407 209.971C132.268 209.557 133.923 209.144 135.578 208.73C139.508 207.902 142.611 207.695 144.68 207.282C153.988 206.247 164.124 204.592 185.224 193.835C188.12 192.387 191.016 191.146 193.912 190.319C197.635 189.077 200.945 188.457 204.048 188.25C212.736 187.422 218.942 189.077 221.217 189.905C221.838 190.112 222.252 190.319 222.252 190.319C222.458 192.387 222.252 194.663 222.045 196.731Z" fill="url(#paint4_linear_36_2954)"/>
<path d="M333.128 227.141C333.128 227.141 336.437 227.762 339.54 236.864C339.54 236.864 338.506 226.314 333.955 224.452C333.748 224.659 332.714 226.314 333.128 227.141Z" fill="#BE4526"/>
<path d="M343.677 221.761C343.677 221.761 352.365 229.622 353.4 237.483C353.4 237.483 353.193 221.554 343.677 221.761Z" fill="#BE4526"/>
<path d="M319.061 153.703C314.924 163.839 291.963 185.974 271.897 191.146C263.623 193.214 254.728 193.421 245.833 191.973C223.7 188.663 202.393 176.872 193.085 167.356C181.501 155.358 179.018 146.049 179.018 146.049C179.018 146.049 185.224 126.189 193.912 107.158C200.118 93.5044 207.565 80.058 214.805 74.6795C215.425 74.2657 215.839 73.852 216.46 73.6451C234.456 63.3018 268.174 51.9241 268.174 51.9241L306.236 75.7138C306.856 77.5756 307.27 81.5061 307.891 86.264C309.132 100.124 310.166 121.845 311.614 127.017C314.096 134.05 323.198 143.359 319.061 153.703Z" fill="url(#paint5_linear_36_2954)"/>
<path d="M246.04 191.973C223.906 188.663 202.6 176.872 193.291 167.356C181.707 155.358 179.225 146.049 179.225 146.049C179.225 146.049 185.431 126.189 194.119 107.158L215.011 74.6795C215.632 74.2657 216.046 73.852 216.666 73.6451C234.663 63.3018 268.381 51.9241 268.381 51.9241L306.443 75.7138C307.063 77.5756 307.477 81.5061 308.098 86.264C306.029 85.2297 268.588 61.8537 234.456 95.9868C200.118 130.534 216.666 179.147 246.04 191.973Z" fill="#DA6945"/>
<path d="M162.47 137.36C162.47 137.36 143.232 146.048 141.577 161.563C139.922 177.285 164.952 188.249 174.674 181.009C184.397 173.975 177.777 152.461 177.777 152.461L162.47 137.36Z" fill="#3F1B08"/>
<path d="M256.797 149.979C255.349 153.082 246.661 157.219 236.732 156.805C226.803 156.392 223.079 148.738 223.079 147.91C222.872 147.29 226.803 132.395 231.974 127.43C237.145 122.259 248.729 121.017 253.694 124.948C258.452 128.878 259.279 144.807 256.797 149.979Z" fill="#FFFFD8"/>
<path d="M313.062 135.292C312.028 138.602 309.339 139.637 304.374 140.671C302.306 141.085 300.03 140.878 297.755 140.464C294.652 139.844 292.17 138.602 291.963 137.568C291.756 135.913 294.445 124.742 299.203 116.674C300.03 115.226 300.858 114.192 301.685 113.158C305.822 108.193 309.753 107.572 310.58 108.607C311.614 109.848 312.855 119.571 313.269 123.915C313.269 123.708 314.097 131.983 313.062 135.292Z" fill="#FFFFD8"/>
<path d="M300.237 146.048C300.237 146.048 297.755 148.324 289.894 149.979C282.034 151.634 273.966 150.806 273.966 150.806C273.966 150.806 274.587 154.53 277.483 154.943C280.379 155.357 284.309 155.564 285.55 155.771C286.584 155.771 288.239 158.253 288.239 158.253C288.239 158.253 297.134 153.495 299.203 151.22C301.271 149.151 300.237 146.048 300.237 146.048Z" fill="#DA6951"/>
<path d="M286.584 155.768C289.48 151.217 280.379 153.286 277.483 154.941L286.584 155.768Z" fill="#532722"/>
<path d="M286.791 159.08C286.791 159.08 295.893 156.184 300.237 151.839C304.374 147.288 303.133 144.599 302.306 144.185C301.685 143.771 296.72 140.875 289.274 141.703C289.274 141.703 295.686 141.496 300.237 144.392C300.237 144.392 300.651 147.702 297.962 150.805C295.272 154.529 286.791 159.08 286.791 159.08Z" fill="#8B3D22"/>
<path opacity="0.5" d="M278.517 149.565C278.724 150.599 281.413 150.806 284.309 150.185C287.205 149.565 289.48 148.117 289.274 147.082C289.067 146.048 286.378 145.841 283.482 146.462C280.586 147.082 278.31 148.531 278.517 149.565Z" fill="#FFFFD8"/>
<path d="M296.72 140.257C296.72 140.257 308.097 142.532 314.096 134.051C313.889 134.051 313.683 144.601 296.72 140.257Z" fill="#3F1B08"/>
<path d="M235.904 155.15C243.673 155.15 249.971 148.852 249.971 141.083C249.971 133.314 243.673 127.016 235.904 127.016C228.136 127.016 221.838 133.314 221.838 141.083C221.838 148.852 228.136 155.15 235.904 155.15Z" fill="#675B00"/>
<path d="M308.098 127.43C307.27 134.257 302.926 139.429 297.962 140.256C294.859 139.636 292.376 138.394 292.17 137.36C291.963 135.705 294.652 124.534 299.41 116.466C300.237 115.018 301.064 113.984 301.892 112.95C306.029 115.225 308.718 121.018 308.098 127.43Z" fill="#675B00"/>
<path d="M318.027 117.293L313.269 123.913C313.269 123.913 312.235 110.467 306.65 111.501C305.822 111.708 305.202 112.122 304.374 112.742C299.616 116.466 294.652 128.671 292.583 134.05C291.963 135.705 291.756 136.739 291.756 136.739C291.756 136.739 291.963 135.498 292.376 133.429C293.411 128.257 295.893 118.328 300.03 111.501C301.271 109.226 302.719 107.364 304.374 106.123C312.855 99.2959 313.89 117.707 313.89 117.707L318.027 117.293Z" fill="#3F1B08"/>
<path d="M309.546 124.535C309.546 125.363 308.718 125.983 307.684 125.983C306.856 125.983 306.236 125.156 306.236 124.121C306.236 123.294 307.063 122.673 308.098 122.673C309.132 122.88 309.752 123.708 309.546 124.535Z" fill="white"/>
<path d="M251.625 142.117C251.419 143.358 250.384 144.186 249.35 143.979C248.109 143.772 247.281 142.738 247.488 141.704C247.695 140.462 248.729 139.635 249.764 139.842C250.798 140.049 251.625 141.083 251.625 142.117Z" fill="white"/>
<path d="M258.038 144.807C258.038 144.807 261.761 122.465 249.764 120.19C238.386 117.914 225.975 123.086 219.355 143.359L208.806 145.221L223.286 147.91C223.286 147.91 227.216 121.431 248.729 123.913C259.279 125.362 258.038 144.807 258.038 144.807Z" fill="#3F1B08"/>
<path d="M224.734 152.669C224.734 152.669 233.836 159.909 251.625 154.53C251.625 154.53 237.145 163.012 224.734 152.669Z" fill="#3F1B08"/>
<path d="M207.564 127.016C207.564 127.016 227.216 104.467 246.04 96.6064C246.04 96.6064 242.73 106.95 241.489 107.984C240.248 108.812 222.665 114.811 207.564 127.016Z" fill="#3F1B08"/>
<path d="M308.098 82.3335C308.098 82.3335 298.996 88.3327 292.997 101.779C292.997 101.779 299.203 96.1936 308.718 92.0563L308.098 82.3335Z" fill="#3F1B08"/>
<path d="M299.823 160.735C298.996 161.149 292.169 164.666 290.721 165.7C289.894 166.321 285.55 172.113 280.585 177.078C276.862 180.801 272.932 184.111 270.036 184.525C265.278 185.146 257.624 177.905 253.28 172.32C251.625 170.044 250.384 168.183 249.97 167.148C249.97 167.148 260.106 171.906 268.381 170.872C276.448 169.424 298.375 161.149 299.823 160.735Z" fill="#3F1B08"/>
<path d="M257.211 163.633C257.211 163.633 249.35 163.839 246.454 168.597C246.454 168.597 248.316 170.873 249.143 170.459C249.971 170.045 247.902 167.149 257.211 163.633Z" fill="#8B3D22"/>
<path d="M266.105 171.494C266.105 171.494 273.966 173.562 278.931 171.907C283.895 170.252 288.446 166.115 288.446 166.115C288.446 166.115 271.484 172.114 266.105 171.494Z" fill="#FFFFD8"/>
<path d="M280.999 176.043V176.871C277.276 180.594 273.345 183.904 270.449 184.318C265.692 184.939 258.038 177.698 253.694 172.113C253.487 171.906 273.345 173.147 280.999 176.043Z" fill="#6D0011"/>
<path d="M275.414 87.5055C275.621 92.0565 273.759 95.987 270.863 96.1939C268.174 96.4007 265.692 92.6771 265.485 88.1261C265.278 83.575 267.14 79.6445 270.036 79.4376C272.932 79.2308 275.207 82.7475 275.414 87.5055Z" fill="#AB006D"/>
<path d="M281.62 44.89C254.314 29.7887 162.263 27.0995 148.817 57.0952C147.576 59.5776 146.955 62.4738 146.335 65.3699C140.75 97.2275 168.262 149.565 168.262 149.565L176.95 152.875L183.776 155.357C197.842 123.5 254.728 62.06 256.383 60.1982C283.895 61.6463 307.27 78.4026 307.27 78.4026C307.27 78.4026 308.925 60.1982 281.62 44.89ZM183.155 152.047C183.155 152.047 185.845 128.051 204.255 102.192C222.045 76.9545 254.314 61.2326 256.383 60.1982C217.08 87.5047 183.155 152.047 183.155 152.047Z" fill="url(#paint6_linear_36_2954)"/>
<path opacity="0.2" d="M274.587 49.6483C274.587 49.6483 241.903 48.4071 209.426 83.7814C176.95 118.949 177.984 152.668 177.984 152.668L177.156 152.875L168.468 149.565C168.468 149.565 140.75 97.4347 146.542 65.3702C146.748 66.6114 150.265 91.6424 156.884 108.605L159.987 89.7806L161.642 108.812L189.154 68.2664L179.432 107.778C180.259 106.537 205.703 67.0252 228.871 56.0612C252.66 44.6835 274.587 49.6483 274.587 49.6483Z" fill="#5C1B12"/>
<path d="M294.238 53.7856C292.79 53.165 250.384 33.5126 210.461 73.6448C177.364 106.744 173.64 151.427 173.64 151.427L170.951 150.186C171.572 129.706 174.054 111.502 178.191 93.711C181.294 80.8852 185.431 68.4732 190.602 55.4405C199.704 32.2714 188.948 1.24128 195.774 8.05743e-05C203.014 -1.24112 265.071 34.7538 281.62 44.4766C284.102 45.9246 285.55 46.7521 285.55 46.7521L294.238 53.7856Z" fill="url(#paint7_linear_36_2954)"/>
<path d="M266.726 229.003C266.105 236.244 264.037 243.277 259.279 247.828C258.865 248.242 258.658 248.449 258.245 248.656C249.143 254.241 236.731 227.555 229.078 208.523C225.147 198.387 222.458 190.112 222.458 190.112L223.286 189.285L224.527 188.25L226.389 186.802C226.389 186.802 226.802 187.423 227.423 188.664C231.146 195.491 244.178 217.419 254.728 218.039H254.935C266.933 218.453 259.693 197.766 259.279 197.146L264.037 202.524C264.45 203.352 267.76 216.384 266.726 229.003Z" fill="url(#paint8_linear_36_2954)"/>
<path d="M236.525 318.575C215.839 332.022 189.154 337.4 174.054 336.78C174.054 336.78 167.227 330.781 158.746 322.092L157.298 308.232L128.338 262.721C133.303 247.206 152.54 242.241 173.226 239.759C173.226 239.759 186.258 328.091 236.525 318.575Z" fill="url(#paint9_linear_36_2954)"/>
<path d="M176.122 330.78C176.122 332.435 175.915 334.503 175.502 336.779C175.088 339.468 174.674 342.778 173.847 346.088C171.158 360.362 165.986 379.394 159.16 395.529C150.472 416.009 144.059 433.8 143.852 436.696C143.646 439.799 145.921 456.555 145.714 459.658C145.507 462.761 128.959 467.105 117.788 477.242C113.238 481.586 108.066 484.275 103.101 485.93C102.274 486.137 101.653 486.344 100.826 486.551C90.2763 489.24 81.1746 486.965 81.1746 483.448C81.3814 477.863 119.443 442.488 119.65 436.282C119.857 430.076 113.031 414.975 113.858 397.391C114.686 380.221 119.03 373.808 121.512 367.602C122.339 365.534 122.96 363.672 122.96 361.396C123.167 357.259 121.098 350.639 119.236 341.537C116.961 330.78 115.099 316.713 117.375 298.715C121.098 270.995 126.89 256.308 137.44 250.308C139.508 249.274 141.577 248.447 144.059 247.826C149.644 246.585 154.402 247.205 158.333 249.274C168.469 254.446 173.226 268.513 175.295 283.821C175.295 283.821 175.295 284.028 175.295 284.235C175.295 284.648 175.502 285.062 175.502 285.683C175.502 285.683 175.502 285.683 175.502 285.89C175.502 286.097 175.502 286.51 175.502 286.717C176.536 295.819 176.743 304.921 176.743 312.782C176.743 321.057 176.329 327.884 176.122 330.78Z" fill="url(#paint10_linear_36_2954)"/>
<path d="M123.167 361.397C123.167 361.397 137.854 328.298 148.61 328.712C162.883 329.333 169.71 364.293 169.71 364.293L173.019 350.64C173.019 350.64 164.745 311.542 152.747 311.542C132.475 311.542 122.132 354.157 122.132 354.157L123.167 361.397Z" fill="url(#paint11_linear_36_2954)"/>
<path d="M253.487 325.817C253.487 325.817 225.768 336.781 207.358 371.328L209.633 374.845C209.633 374.845 244.178 344.849 255.762 340.298L253.487 325.817Z" fill="url(#paint12_linear_36_2954)"/>
<path d="M146.128 459.866C145.921 462.969 129.372 467.314 118.202 477.45C102.688 491.724 81.1745 489.242 81.3814 483.656C81.5882 478.071 119.65 442.696 119.857 436.49C119.857 436.49 120.891 415.804 128.545 413.528C136.199 411.253 144.059 437.111 144.059 437.111C144.059 440.007 146.128 456.763 146.128 459.866Z" fill="url(#paint13_linear_36_2954)"/>
<path d="M328.37 467.726C321.957 470.829 303.96 471.657 291.756 471.036C275.621 470.416 257.417 473.312 257.417 469.588C257.624 465.864 259.9 446.419 258.038 444.143L270.863 419.319V419.526L276.035 432.973V433.179C277.483 434.007 324.439 457.59 329.404 463.796C331.059 465.451 330.231 466.692 328.37 467.726Z" fill="url(#paint14_linear_36_2954)"/>
<path d="M325.474 242.448C325.474 242.448 308.304 264.996 308.098 270.582C307.891 276.167 335.817 256.515 335.817 256.515L325.474 242.448Z" fill="url(#paint15_linear_36_2954)"/>
<path d="M236.525 318.576L242.524 314.438C242.524 314.438 215.632 320.437 198.67 296.234C181.707 272.03 177.984 239.345 177.984 239.345L173.226 239.966C173.226 239.759 179.846 329.746 236.525 318.576Z" fill="url(#paint16_linear_36_2954)"/>
<path d="M147.99 59.3702C147.99 59.3702 158.126 68.6792 169.296 71.1616C180.466 73.644 182.121 76.3333 182.121 76.3333L184.603 70.9547C184.603 70.9547 175.295 70.1273 168.055 65.5762C161.022 61.0251 153.368 50.4749 153.368 50.4749C153.368 50.4749 149.438 53.9916 147.99 59.3702Z" fill="#FFCCB3"/>
<path opacity="0.31" d="M294.238 53.7852C292.79 53.1646 250.384 33.5122 210.461 73.6445C177.364 106.743 173.64 151.427 173.64 151.427L170.951 150.185C171.572 129.706 174.054 111.501 178.191 93.7106L185.638 97.2274C185.638 97.2274 206.117 64.1286 233.836 51.9234C251.625 44.0625 270.656 43.6487 281.827 44.6831C284.309 46.1311 285.757 46.9586 285.757 46.9586L294.238 53.7852Z" fill="#CF3125"/>
<path d="M194.326 19.2401L233.629 51.7182C233.629 51.7182 243.558 47.374 251.005 46.1328L193.292 5.1731L194.326 19.2401Z" fill="#FFFFD8"/>
<path d="M220.39 24.8237C219.976 25.4443 216.253 23.3757 212.116 20.2727C207.978 17.1697 205.082 14.0666 205.496 13.446C205.91 12.8254 209.633 14.8941 213.77 17.9971C217.908 21.307 221.01 24.2031 220.39 24.8237Z" fill="#FFFFD8"/>
<path d="M265.485 40.3393C264.864 41.3736 261.761 40.753 258.865 38.8912C255.969 37.0294 254.108 34.547 254.728 33.5127C255.349 32.4783 258.452 33.0989 261.348 34.9607C264.244 36.8226 266.105 39.305 265.485 40.3393Z" fill="#FFFFD8"/>
<path d="M223.906 32.2711L224.527 20.0659L242.11 28.7543L244.592 41.5801L223.906 32.2711Z" fill="url(#paint17_linear_36_2954)"/>
<path opacity="0.65" d="M224.527 20.0659L224.32 22.1346L240.041 29.5818L242.11 40.5458L244.592 41.5801L242.11 28.7543L224.527 20.0659Z" fill="#CF3125"/>
<path d="M180.053 184.318C173.019 184.732 164.745 180.388 158.746 174.596C150.058 166.321 145.714 154.943 155.023 150.806C164.538 146.462 177.363 152.047 183.569 155.357C185.845 156.598 187.293 157.426 187.293 157.426L194.119 169.217C194.326 169.217 197.429 183.284 180.053 184.318Z" fill="#DA6945"/>
<path d="M181.914 163.012C183.983 163.426 186.052 164.047 188.12 164.874C188.12 164.874 180.673 159.082 171.778 158.255C162.47 157.22 158.746 160.116 158.126 161.978C157.505 163.84 160.401 169.425 163.504 171.908C163.504 171.908 161.022 165.081 162.263 163.426C163.09 162.392 169.503 161.151 177.364 162.185C177.364 162.185 182.121 167.564 181.914 172.735C181.708 176.252 175.709 177.079 175.709 177.079C175.709 177.079 182.742 178.114 184.397 173.976C185.638 170.46 182.949 164.667 181.914 163.012Z" fill="#BE4526"/>
<path opacity="0.42" d="M290.308 234.175C284.723 233.968 278.93 232.934 273.345 231.279C271.07 230.658 269.001 230.038 266.933 229.21C263.209 227.762 259.279 226.107 255.762 224.452C246.247 219.901 237.145 214.109 229.285 208.523C228.043 207.696 226.802 206.662 225.561 205.834C223.906 204.593 222.458 203.559 221.01 202.317C216.459 198.801 212.529 195.491 209.633 192.801C207.151 190.733 205.496 188.871 204.462 188.043C213.15 187.216 219.355 188.871 221.631 189.698C222.251 189.492 222.872 189.492 223.493 189.285L224.734 188.25L226.595 186.802L227.63 188.871C231.353 195.698 244.385 217.625 254.935 218.246H255.142C267.14 218.66 259.9 197.973 259.486 197.352C260.313 197.559 270.863 202.938 290.308 234.175Z" fill="#AE004F"/>
<path opacity="0.42" d="M272.932 250.516C271.898 260.446 269.208 270.996 265.278 281.753C264.037 285.063 262.589 288.58 261.141 291.89C258.452 297.889 254.728 303.06 250.177 307.612C250.177 307.612 254.935 331.194 257.624 353.122C228.457 354.57 212.736 360.57 204.462 366.776C195.153 352.088 185.845 336.987 185.224 336.366C181.708 336.78 178.398 336.987 175.502 336.78C175.088 339.469 174.674 342.779 173.847 346.089C171.158 360.363 165.986 379.394 159.16 395.53C150.472 416.01 144.059 433.801 143.853 436.697C143.646 439.8 145.921 456.556 145.714 459.659C145.507 462.762 128.959 467.106 117.788 477.243C113.238 481.587 108.066 484.276 103.102 485.931C108.48 483.656 111.376 477.243 119.03 472.278C127.718 466.693 138.474 459.452 138.681 451.591C139.095 443.73 119.65 436.076 119.65 436.076C119.857 429.87 113.031 414.769 113.858 397.185C114.686 380.015 119.03 373.602 121.512 367.396L122.753 364.707C122.753 364.707 132.475 374.016 151.92 365.948C159.781 362.638 165.159 347.951 168.675 331.815C173.64 308.853 174.881 282.787 174.881 282.787C174.881 282.994 174.881 283.201 175.088 283.615C175.088 283.615 175.088 283.822 175.088 284.029C175.088 284.442 175.295 284.856 175.295 285.477C175.295 285.477 175.295 285.477 175.295 285.684C175.295 285.89 175.295 286.304 175.295 286.511C176.329 295.613 176.536 312.576 176.536 312.576C177.364 312.99 203.221 323.54 236.732 305.543C270.243 287.545 273.139 238.932 273.139 237.277C273.552 241.621 273.346 245.965 272.932 250.516Z" fill="#AE004F"/>
<path d="M204.255 249.689C199.29 254.24 177.984 247 158.333 249.276C152.127 249.896 146.128 251.758 140.957 255.068C135.165 258.792 131.027 266.653 127.925 276.168C119.443 302.441 119.443 341.538 119.443 341.538C117.168 330.781 115.306 316.714 117.582 298.717C121.305 270.997 127.097 256.309 137.647 250.31C146.335 244.104 159.574 241.415 173.433 239.76C177.364 239.346 181.294 238.932 185.224 238.519C190.809 238.105 195.153 233.347 198.256 227.141C198.049 227.348 210.668 243.69 204.255 249.689Z" fill="#FFFFD8"/>
<path opacity="0.42" d="M165.366 238.725C162.676 239.552 159.987 240.173 157.505 241C141.991 245.758 122.546 247.206 108.687 247.62L125.028 211.625C126.89 211.005 128.752 210.384 130.613 209.763C130.613 209.763 144.887 237.691 150.679 237.897C156.678 238.311 165.366 238.725 165.366 238.725Z" fill="#AE004F"/>
<path d="M130.821 204.385C111.79 272.031 75.5895 308.232 75.5895 308.232C74.9689 308.026 72.2798 308.439 71.6592 308.026C4.22357 269.962 4.43043 216.383 4.43043 216.383C17.4625 179.561 43.1128 154.323 50.5597 148.531C51.594 147.703 54.2832 148.738 54.49 148.738C100.206 158.254 130.821 204.385 130.821 204.385Z" fill="#AE004F"/>
<path d="M126.89 204.178C107.859 271.823 71.6591 308.025 71.6591 308.025C48.9047 295.406 33.3904 281.339 23.0475 267.893C1.53429 240.38 0.5 216.383 0.5 216.383C15.3938 173.975 49.5253 149.358 50.5596 148.737C74.5551 153.702 94.4134 168.803 107.859 182.043C120.064 193.834 126.89 204.178 126.89 204.178Z" fill="url(#paint18_linear_36_2954)"/>
<path d="M61.7299 208.11L82.2088 217.625L64.0054 227.141L56.5585 245.759L44.9744 229.624L26.1504 226.728L42.699 210.592L49.939 191.974L61.7299 208.11Z" fill="url(#paint19_linear_36_2954)"/>
<path d="M71.6591 308.026C2.56858 269.755 0.5 216.383 0.5 216.383C15.3938 173.976 49.5253 149.358 50.5596 148.738C50.5596 148.531 43.5264 220.521 71.6591 308.026Z" fill="#FFFFD8"/>
<path d="M26.1504 226.728L29.0464 227.555L44.3539 213.074L52.0076 194.663L49.939 191.974L42.699 210.592L26.1504 226.728Z" fill="#AE004F"/>
<path d="M12.0839 231.484C13.1182 236.035 12.7045 240.173 11.2565 240.38C9.80851 240.587 7.73993 237.277 6.70564 232.519C5.67135 227.968 6.08507 223.83 7.53307 223.623C8.98108 223.417 11.2565 226.933 12.0839 231.484Z" fill="#FFFFD8"/>
<path d="M18.2899 194.249C17.2556 196.524 15.8076 198.179 14.9802 197.766C14.1528 197.352 14.5665 195.283 15.6008 193.008C16.6351 190.732 18.0831 189.077 18.9105 189.491C19.7379 189.905 19.5311 191.973 18.2899 194.249Z" fill="#FFFFD8"/>
<path opacity="0.31" d="M126.89 204.177C107.859 271.823 71.6592 308.025 71.6592 308.025C48.9048 295.406 33.3905 281.339 23.0476 267.893C33.3905 273.064 50.7666 280.925 64.0055 281.546C64.0055 281.546 112.824 224.244 107.652 181.836C120.064 193.834 126.89 204.177 126.89 204.177Z" fill="#CF3125"/>
<path d="M257.831 443.731C254.521 440.835 231.767 428.423 224.734 412.908C217.494 396.772 218.942 387.67 214.184 381.877C213.563 381.05 212.736 379.809 211.495 378.154C212.115 378.774 221.217 387.67 229.285 405.667C237.145 423.251 255.349 441.455 257.831 443.731Z" fill="#FFFFD8"/>
<path d="M155.643 154.529C149.231 160.528 158.126 173.975 158.539 174.595C149.851 166.321 145.507 154.943 154.816 150.806C164.331 146.461 177.157 152.047 183.362 155.357C181.708 154.736 162.056 148.737 155.643 154.529Z" fill="#FFFFD8"/>
<path d="M194.119 190.111C194.119 190.111 189.154 205.833 174.674 207.695C160.194 209.556 135.785 208.729 135.785 208.729C139.715 207.901 142.818 207.695 144.887 207.281C154.196 206.246 164.332 204.592 185.431 193.834C188.327 192.18 191.223 190.938 194.119 190.111Z" fill="#FFFFD8"/>
<path d="M198.877 179.147C198.67 183.491 194.946 186.801 190.602 186.594C186.258 186.387 182.949 182.663 183.155 178.319C183.362 173.975 187.086 170.665 191.43 170.872C195.774 171.079 199.083 174.802 198.877 179.147Z" fill="#AE004F"/>
<path d="M195.567 178.941C195.36 182.251 192.464 184.94 189.154 184.733C185.845 184.527 183.155 181.63 183.362 178.321C183.569 175.011 186.465 172.321 189.775 172.528C193.085 172.735 195.567 175.424 195.567 178.941Z" fill="#FE008D"/>
<path opacity="0.42" d="M328.37 467.727C321.957 470.83 303.96 471.658 291.756 471.037C275.621 470.416 257.417 473.312 257.417 469.589C257.417 469.589 268.174 465.865 287.205 465.865C306.236 465.865 312.855 471.451 328.37 467.727Z" fill="#AE004F"/>
</g>
<defs>
<linearGradient id="paint0_linear_36_2954" x1="254.878" y1="471.1" x2="261.861" y2="307.712" gradientUnits="userSpaceOnUse">
<stop stop-color="#43487E"/>
<stop offset="1" stop-color="#40133E"/>
</linearGradient>
<linearGradient id="paint1_linear_36_2954" x1="292.649" y1="300.178" x2="296.98" y2="198.867" gradientUnits="userSpaceOnUse">
<stop stop-color="#40133E"/>
<stop offset="1" stop-color="#43487E"/>
</linearGradient>
<linearGradient id="paint2_linear_36_2954" x1="196.831" y1="337.799" x2="203.271" y2="187.127" gradientUnits="userSpaceOnUse">
<stop stop-color="#1F7C93"/>
<stop offset="1" stop-color="#C800E9"/>
</linearGradient>
<linearGradient id="paint3_linear_36_2954" x1="216.967" y1="252.851" x2="272.982" y2="255.244" gradientUnits="userSpaceOnUse">
<stop stop-color="#1FEDCF"/>
<stop offset="1" stop-color="#A4F9A9"/>
</linearGradient>
<linearGradient id="paint4_linear_36_2954" x1="92.4447" y1="215.169" x2="221.193" y2="220.671" gradientUnits="userSpaceOnUse">
<stop stop-color="#757CCF"/>
<stop offset="1" stop-color="#C800E9"/>
</linearGradient>
<linearGradient id="paint5_linear_36_2954" x1="244.72" y1="191.806" x2="260.49" y2="51.2524" gradientUnits="userSpaceOnUse">
<stop stop-color="#FFA364"/>
<stop offset="1" stop-color="#FF8153"/>
</linearGradient>
<linearGradient id="paint6_linear_36_2954" x1="223.111" y1="157.107" x2="228.367" y2="34.1361" gradientUnits="userSpaceOnUse">
<stop stop-color="#481D27"/>
<stop offset="1" stop-color="#7D2710"/>
</linearGradient>
<linearGradient id="paint7_linear_36_2954" x1="230.181" y1="153.97" x2="236.688" y2="1.72623" gradientUnits="userSpaceOnUse">
<stop stop-color="#FFA031"/>
<stop offset="1" stop-color="#FFD638"/>
</linearGradient>
<linearGradient id="paint8_linear_36_2954" x1="242.958" y1="248.804" x2="245.57" y2="187.688" gradientUnits="userSpaceOnUse">
<stop stop-color="#FFA031"/>
<stop offset="1" stop-color="#FFD638"/>
</linearGradient>
<linearGradient id="paint9_linear_36_2954" x1="127.333" y1="286.314" x2="237.775" y2="291.034" gradientUnits="userSpaceOnUse">
<stop stop-color="#FF98B1"/>
<stop offset="1" stop-color="#F4618D"/>
</linearGradient>
<linearGradient id="paint10_linear_36_2954" x1="125.339" y1="489.431" x2="135.712" y2="246.724" gradientUnits="userSpaceOnUse">
<stop stop-color="#757CCF"/>
<stop offset="1" stop-color="#C800E9"/>
</linearGradient>
<linearGradient id="paint11_linear_36_2954" x1="123.014" y1="336.265" x2="173.669" y2="338.43" gradientUnits="userSpaceOnUse">
<stop stop-color="#1FEDCF"/>
<stop offset="1" stop-color="#A4F9A9"/>
</linearGradient>
<linearGradient id="paint12_linear_36_2954" x1="208.363" y1="349.36" x2="255.353" y2="351.369" gradientUnits="userSpaceOnUse">
<stop stop-color="#1FC7CF"/>
<stop offset="1" stop-color="#6DF9A9"/>
</linearGradient>
<linearGradient id="paint13_linear_36_2954" x1="82.9168" y1="449.431" x2="146.398" y2="452.144" gradientUnits="userSpaceOnUse">
<stop stop-color="#FF98B1"/>
<stop offset="1" stop-color="#F4618D"/>
</linearGradient>
<linearGradient id="paint14_linear_36_2954" x1="257.461" y1="445.376" x2="330.398" y2="445.376" gradientUnits="userSpaceOnUse">
<stop stop-color="#CC266A"/>
<stop offset="1" stop-color="#F46B52"/>
</linearGradient>
<linearGradient id="paint15_linear_36_2954" x1="308.751" y1="256.633" x2="335.783" y2="257.788" gradientUnits="userSpaceOnUse">
<stop stop-color="#1FC7CF"/>
<stop offset="1" stop-color="#6DF9A9"/>
</linearGradient>
<linearGradient id="paint16_linear_36_2954" x1="206.105" y1="318.667" x2="209.442" y2="240.582" gradientUnits="userSpaceOnUse">
<stop stop-color="#FFA031"/>
<stop offset="1" stop-color="#FFD638"/>
</linearGradient>
<linearGradient id="paint17_linear_36_2954" x1="234.136" y1="41.1667" x2="235.018" y2="20.5342" gradientUnits="userSpaceOnUse">
<stop stop-color="#CC266A"/>
<stop offset="1" stop-color="#F46B52"/>
</linearGradient>
<linearGradient id="paint18_linear_36_2954" x1="0.0990752" y1="225.695" x2="125.824" y2="231.068" gradientUnits="userSpaceOnUse">
<stop stop-color="#F46B52"/>
<stop offset="1" stop-color="#CC266A"/>
</linearGradient>
<linearGradient id="paint19_linear_36_2954" x1="37.3402" y1="236.807" x2="66.9287" y2="203.893" gradientUnits="userSpaceOnUse">
<stop stop-color="#FFA031"/>
<stop offset="1" stop-color="#FFD638"/>
</linearGradient>
<clipPath id="clip0_36_2954">
<rect width="368" height="488" fill="white" transform="translate(0.5)"/>
</clipPath>
</defs>
</svg>
