<svg width="303" height="486" viewBox="0 0 303 486" fill="none" xmlns="http://www.w3.org/2000/svg">
<g clip-path="url(#clip0_55_4048)">
<path d="M250.948 351.392C250.4 349.397 252.044 349.759 252.226 349.941C251.861 349.578 243.094 344.317 242.546 342.503C241.998 340.87 244.19 341.596 244.373 341.596C244.19 341.415 241.998 339.782 239.989 337.605C238.346 335.791 236.884 333.614 236.337 331.618C235.789 328.716 237.798 326.72 237.798 326.72C237.798 326.72 229.579 318.013 230.492 315.654C231.405 313.296 239.807 317.287 248.208 327.446C249.669 329.26 251.13 331.074 252.592 333.07C258.984 341.777 264.281 350.667 264.281 350.667C264.281 350.667 265.011 353.388 262.089 354.839C258.619 356.29 251.678 353.388 250.948 351.392Z" fill="#7788D0"/>
<path d="M249.669 351.755C249.121 349.76 250.765 350.123 250.947 350.304C250.582 349.941 241.815 344.68 241.268 342.866C240.72 341.233 242.911 341.959 243.094 341.959C242.911 341.778 240.72 340.145 238.711 337.968C237.067 336.154 235.606 333.977 235.058 331.981C234.51 329.079 236.519 327.083 236.519 327.083C236.519 327.083 228.3 318.376 229.213 316.017C230.126 313.659 238.528 317.65 246.929 327.809C248.39 329.623 249.852 331.437 251.313 333.433C257.705 342.14 263.002 351.03 263.002 351.03C263.002 351.03 263.732 353.751 260.81 355.202C257.34 356.835 250.4 353.932 249.669 351.755Z" fill="#34B8D0"/>
<path opacity="0.52" d="M236.702 319.827C236.702 319.827 252.591 333.614 260.993 349.397L258.801 349.034C258.619 349.216 251.313 334.159 236.702 319.827Z" fill="#7788D0"/>
<path d="M269.577 337.424C269.577 346.313 273.595 394.75 269.577 394.75C265.559 394.75 261.541 378.06 258.619 369.715C255.696 361.189 247.843 356.29 247.843 352.118C247.843 348.127 258.619 341.959 258.619 339.963C258.619 337.787 256.244 324.181 252.957 313.84C249.852 303.5 252.957 292.071 252.957 292.071L240.72 293.704L195.243 299.509C195.243 299.509 203.096 269.032 211.68 263.952C213.324 263.045 216.611 262.138 221.177 261.413L221.908 261.231C241.268 258.147 279.44 257.24 281.266 261.231C283.458 266.129 269.577 328.716 269.577 337.424Z" fill="#843125"/>
<path d="M269.577 337.606C269.577 346.495 273.595 394.931 269.577 394.931C267.751 394.931 265.924 391.666 264.28 387.312C262.089 381.87 260.08 374.613 258.436 369.897C256.062 363.003 250.4 358.468 248.391 354.84V354.658L248.208 354.295C247.843 353.57 247.66 353.026 247.66 352.481C247.66 348.49 258.436 342.322 258.436 340.327C258.436 338.15 256.062 324.544 252.774 314.204C249.669 303.863 252.774 292.434 252.774 292.434L240.537 294.067C240.537 294.067 217.525 268.488 220.812 261.776L221.543 261.594C240.903 258.51 279.074 257.603 280.901 261.594C283.458 266.13 269.577 328.716 269.577 337.606Z" fill="url(#paint0_linear_55_4048)"/>
<path d="M220.995 261.412L216.429 262.501L214.602 268.125C214.602 268.125 231.222 291.164 238.163 294.066L240.537 293.703C240.72 293.703 222.821 271.571 220.995 261.412Z" fill="#FF8527"/>
<path d="M258.436 339.963L257.34 341.596C257.34 341.596 264.098 364.272 271.038 370.984L270.49 359.011C270.673 359.011 267.203 359.374 258.436 339.963Z" fill="url(#paint1_linear_55_4048)"/>
<path opacity="0.55" d="M241.816 259.417C241.816 259.417 228.3 288.443 213.324 297.332L195.243 299.691L216.611 262.683C216.429 262.501 234.693 259.78 241.816 259.417Z" fill="#AE004F"/>
<path d="M157.07 15.6005C155.609 12.5165 153.235 9.06971 149.217 6.16714C147.025 4.53444 144.468 3.26456 141.363 1.99468C139.537 1.26904 137.345 0.724805 134.971 0.361983C117.985 -2.722 103.374 7.79983 99.1734 11.4281C91.8678 12.3351 84.0143 13.605 75.4302 15.6005C42.0071 23.764 41.6418 29.7506 48.5821 31.5647C55.5225 33.3788 59.9058 34.6487 59.9058 34.6487C59.9058 34.6487 47.8516 37.3698 42.9203 42.2679C37.989 47.166 37.4411 51.1571 37.4411 51.1571C37.4411 51.1571 10.4103 64.7629 10.4103 77.8245C10.4103 90.7047 32.6924 83.8111 33.7883 83.4482C33.2404 83.8111 24.6563 88.7091 24.6563 93.4258C24.6563 98.3239 33.2404 97.0541 33.2404 97.0541C33.2404 97.0541 21.5514 110.66 23.1951 115.014C24.8389 119.549 32.6924 117.553 32.6924 117.553C32.6924 117.553 27.2132 121.726 21.9167 127.531C15.8895 133.88 10.2277 142.225 12.9673 148.756C18.0812 160.911 45.6599 139.141 45.6599 139.141C45.6599 139.141 45.4772 143.314 55.1572 145.854C65.0197 148.393 75.9781 144.584 75.9781 144.584C75.9781 144.584 68.6725 158.008 70.6816 165.627C72.6906 173.247 107.758 160.911 107.758 160.911C107.758 160.911 106.844 159.097 105.566 156.194C101.365 146.579 92.0505 124.084 89.1282 105.58C87.4845 95.0585 90.2241 83.9925 95.338 73.8334C101.913 60.2276 112.506 48.4359 121.456 42.8122C136.615 33.016 157.801 23.9454 159.079 23.4012C159.079 23.4012 159.079 19.9544 157.07 15.6005ZM120.36 10.8838C115.976 10.7024 110.862 10.7024 104.653 11.0652C107.758 9.06971 114.698 5.26008 121.273 6.16714C122.734 6.34855 124.013 6.71137 125.108 7.07419C127.117 7.61842 128.579 8.52548 129.857 9.25112C132.049 10.7024 132.962 12.1537 132.962 12.1537C132.962 12.1537 128.396 11.2466 120.36 10.8838Z" fill="url(#paint2_linear_55_4048)"/>
<path opacity="0.2" d="M95.3381 73.8331C94.0596 97.0537 96.4339 128.438 96.4339 128.438L105.566 156.375C106.844 159.459 107.758 161.092 107.758 161.092C107.758 161.092 72.6907 173.246 70.6817 165.808C68.8553 158.189 75.9782 144.765 75.9782 144.765C75.9782 144.765 65.0198 148.393 55.1573 146.035C45.4773 143.313 45.66 139.141 45.66 139.141C45.66 139.141 18.0813 160.91 12.9674 148.756C10.2278 142.406 15.8896 133.88 21.9168 127.531C21.9168 127.531 34.1536 123.902 51.3218 115.195C68.49 106.306 56.6184 98.5049 56.6184 98.5049C56.6184 98.5049 65.7504 96.6908 70.1338 88.5273C74.5171 80.3638 56.2531 80.5453 56.2531 80.5453C56.2531 80.5453 74.1518 77.6427 78.7178 73.1074C83.2838 68.5721 56.6184 54.9663 56.6184 54.9663C56.6184 54.9663 69.5858 52.608 70.6817 48.0727C71.7775 43.7188 61.5497 44.0816 61.5497 44.0816C61.5497 44.0816 85.6582 39.365 92.0506 33.0156C97.5298 27.5733 70.3164 26.4848 62.2802 26.3034C72.3254 26.4848 114.515 26.8476 121.273 24.3079C128.944 21.4053 130.77 15.2373 130.77 15.2373C130.77 15.2373 139.537 20.1354 147.391 18.8655C153.052 17.9585 155.792 16.5072 156.888 15.7815C158.897 20.1354 159.079 23.5822 159.079 23.5822C157.07 24.1264 108.671 40.272 100.087 51.1567C97.3471 54.4221 95.886 63.3112 95.3381 73.8331Z" fill="#5C1B12"/>
<path d="M192.685 160.366C192.685 162.543 190.859 166.171 188.85 169.618C188.667 169.981 188.485 170.344 188.302 170.525C186.658 173.065 185.197 175.423 184.284 176.693C183.919 177.237 183.736 177.6 183.736 177.6L139.172 190.48C139.172 190.48 143.92 176.149 149.947 175.06C155.975 173.972 162.002 175.06 162.002 175.06L153.966 167.26L155.244 166.897L175.334 161.817L175.882 164.176L176.796 167.623L189.946 161.636L192.685 160.366Z" fill="#7F291C"/>
<path d="M185.745 160.729C179.353 163.632 169.308 165.99 159.262 166.897C149.948 167.804 140.45 167.442 133.145 165.265C120.36 161.455 107.758 152.747 103.557 149.119C102.644 148.393 102.279 147.849 102.096 147.668C101.365 146.035 88.398 108.664 93.5119 89.2534C93.6945 88.5277 93.8772 87.9835 94.0598 87.2579C100.087 68.0283 121.456 42.6308 121.456 42.6308C121.456 42.6308 161.637 30.2948 172.047 33.5602C175.152 34.4673 177.892 36.4628 180.449 39.184C186.293 45.3519 190.494 54.4225 191.772 60.5904C193.781 69.2982 197.982 105.036 198.713 107.757C199.443 110.478 211.132 118.642 212.045 126.443C213.141 134.243 198.165 155.287 185.745 160.729Z" fill="url(#paint3_linear_55_4048)"/>
<path d="M180.631 39.3646C180.631 39.3646 143.555 33.7409 123.282 66.3948C99.9044 103.403 119.812 151.114 130.953 159.096C141.546 166.715 157.619 167.078 159.08 167.078C149.765 167.985 140.268 167.622 132.962 165.445C120.177 161.636 107.575 152.928 103.375 149.3L93.8773 87.4385C99.9044 68.209 121.273 42.8114 121.273 42.8114C121.273 42.8114 161.454 30.4755 171.865 33.7409C175.152 34.6479 178.074 36.6434 180.631 39.3646Z" fill="#843125"/>
<path d="M194.694 136.965C191.772 141.138 191.589 145.673 191.041 149.12C190.494 152.566 189.763 155.288 185.928 156.195C181.362 157.283 173.508 152.929 168.029 149.12C164.559 146.761 162.002 144.766 162.002 144.766C185.014 145.673 194.146 137.509 194.694 136.965Z" fill="#3F1B08"/>
<path d="M199.626 110.659C197.069 115.376 189.215 116.464 187.571 113.199C187.389 112.655 187.206 111.929 187.023 111.022C186.293 105.398 187.571 92.518 190.128 86.7129C190.859 84.8988 191.772 83.8103 192.868 83.8103C197.617 83.8103 198.895 91.611 199.626 94.3321C200.173 97.2347 202.183 106.124 199.626 110.659Z" fill="#FFFFD8"/>
<path d="M166.203 123.721C166.203 120.092 157.436 105.035 146.843 105.761C136.25 106.487 133.51 113.743 131.684 120.999C129.857 128.256 132.049 134.605 132.049 134.605C132.049 134.605 137.163 140.955 151.226 137.508C165.289 134.242 166.203 124.083 166.203 123.721Z" fill="#FFFFD8"/>
<path opacity="0.5" d="M196.338 120.456C196.338 120.456 194.512 122.633 188.119 125.354C181.727 128.075 174.786 128.619 174.786 128.619C174.786 128.619 175.882 131.703 178.439 131.522C180.996 131.34 184.466 130.978 185.38 130.978C186.293 130.978 187.937 132.792 187.937 132.792C187.937 132.792 194.694 127.531 196.155 125.172C197.799 122.814 196.338 120.456 196.338 120.456Z" fill="#843125"/>
<path d="M186.293 130.797C188.119 126.444 180.631 129.528 178.439 131.523L186.293 130.797Z" fill="#791E11"/>
<path d="M186.841 133.518C186.841 133.518 194.329 129.709 197.251 125.355C200.173 121.001 198.53 118.824 197.982 118.461C197.251 118.28 192.685 116.466 186.658 118.461C186.658 118.461 192.137 117.373 196.338 119.187C196.338 119.187 197.069 121.908 195.425 124.992C193.598 128.257 186.841 133.518 186.841 133.518Z" fill="#791E11"/>
<path opacity="0.5" d="M178.074 126.624C178.44 127.531 180.631 127.35 183.188 126.261C185.563 125.173 187.389 123.721 187.024 122.996C186.658 122.089 184.467 122.27 181.91 123.359C179.353 124.266 177.709 125.717 178.074 126.624Z" fill="#FFFFD8"/>
<path d="M133.145 136.783C133.145 136.783 149.217 144.765 162.002 132.067C161.819 132.067 149.765 141.319 133.145 136.783Z" fill="#3F1B08"/>
<path d="M153.783 122.996C153.783 130.071 148.486 135.695 141.911 135.695C135.336 135.695 130.04 130.071 130.04 122.996C130.04 115.921 135.336 110.297 141.911 110.297C148.486 110.297 153.783 115.921 153.783 122.996Z" fill="#674000"/>
<path d="M198.895 99.5935C198.895 106.669 195.06 112.292 190.494 112.292C189.215 112.292 188.119 111.929 187.206 111.204C186.476 105.58 186.476 93.2442 190.311 86.8948H190.494C195.06 86.8948 198.895 92.5185 198.895 99.5935Z" fill="#674000"/>
<path d="M165.655 121.182C165.655 121.182 159.08 103.585 147.756 103.585C137.711 103.585 127.848 112.655 127.848 129.526L121.456 131.341L132.049 134.425C132.049 134.425 127.665 108.846 147.938 106.85C157.253 106.306 165.655 121.182 165.655 121.182Z" fill="#3F1B08"/>
<path d="M201.087 106.487C201.087 106.487 199.626 113.562 192.868 114.832C192.868 114.832 201.087 115.195 201.087 106.487Z" fill="#3F1B08"/>
<path d="M203.096 91.6109L199.991 95.9648C199.078 86.8942 192.868 81.4519 189.033 90.341C185.563 98.5045 187.206 110.478 187.206 112.11C182.823 76.7352 195.79 76.9166 200.174 89.0712L203.096 91.6109Z" fill="#3F1B08"/>
<path d="M199.808 99.7745C199.808 100.5 199.078 101.226 198.347 101.226C197.617 101.226 196.886 100.5 196.886 99.7745C196.886 99.0489 197.617 98.3232 198.347 98.3232C199.26 98.3232 199.808 99.0489 199.808 99.7745Z" fill="white"/>
<path d="M155.427 123.904C155.427 124.811 154.696 125.536 153.783 125.536C152.87 125.536 152.139 124.811 152.139 123.904C152.139 122.997 152.87 122.271 153.783 122.271C154.696 122.09 155.427 122.815 155.427 123.904Z" fill="white"/>
<path d="M116.707 109.389C116.707 109.389 121.456 87.0757 134.241 77.4609C134.241 77.4609 138.076 83.9917 137.346 86.8943C136.615 88.8898 124.561 95.0578 116.707 109.389Z" fill="#3F1B08"/>
<path d="M161.454 144.402C161.454 144.402 176.065 145.127 185.928 141.136C192.686 138.415 199.078 132.429 199.809 130.977H200.356C200.356 130.977 192.138 142.406 178.44 144.765C164.742 147.123 161.454 144.402 161.454 144.402Z" fill="#3F1B08"/>
<path d="M166.933 140.774C166.933 140.774 160.176 142.951 159.08 147.668C159.08 147.668 161.271 149.119 161.819 148.575C162.367 148.031 160.176 146.035 166.933 140.774Z" fill="#8B3D22"/>
<path d="M175.334 144.765C175.334 144.765 185.745 144.584 192.685 138.416C192.685 138.416 190.676 143.133 186.476 144.765C183.005 146.217 175.334 144.765 175.334 144.765Z" fill="#FFFFD8"/>
<path d="M167.847 145.31C167.847 145.31 169.856 146.761 171.134 146.761C172.413 146.761 173.691 144.765 173.691 144.765C173.691 144.765 170.038 145.31 167.847 145.31Z" fill="#FFFFD8"/>
<path d="M190.859 149.119C190.311 152.566 189.581 155.287 185.745 156.194C181.179 157.283 173.326 152.929 167.847 149.119C168.577 148.938 184.467 145.854 190.859 149.119Z" fill="#6D0011"/>
<path d="M182.092 147.669C182.092 147.669 183.919 146.943 184.466 146.943C185.014 146.943 185.562 147.306 185.562 147.306C185.562 147.306 186.475 146.943 187.389 147.124C188.485 147.306 189.215 148.576 189.215 148.576C189.215 148.576 187.023 147.669 182.092 147.669Z" fill="#FFBD97"/>
<path d="M174.239 152.748C174.239 152.748 180.631 155.287 184.649 154.743C188.667 154.199 190.129 152.022 190.129 152.022C190.129 152.022 189.398 155.469 184.832 155.832C179.901 156.376 174.239 152.748 174.239 152.748Z" fill="#FFFFD8"/>
<path d="M172.047 151.295C172.047 151.295 173.508 150.751 173.873 151.114C174.239 151.477 174.056 152.746 174.056 152.746L172.047 151.295Z" fill="#FFFFD8"/>
<path d="M172.047 33.7413C172.047 33.7413 144.286 29.9317 116.525 57.5061C88.9459 85.0806 100.452 135.876 107.941 150.933L101.731 151.84C101.731 151.84 85.1105 124.447 83.1015 91.0672C82.9188 88.7088 82.9188 86.3505 82.9188 83.9922C83.1015 49.7055 117.438 26.6663 159.262 23.4009C159.262 23.4009 165.472 25.5778 169.856 30.6573C170.769 31.5644 171.499 32.6528 172.047 33.7413Z" fill="url(#paint4_linear_55_4048)"/>
<path d="M181.544 83.9918C181.544 83.9918 181.179 97.7791 182.457 104.491C182.457 104.491 182.092 81.0893 185.745 72.9258L181.544 83.9918Z" fill="#791E11"/>
<path d="M181.544 83.9919C181.544 83.9919 180.996 67.1206 190.859 57.5059L193.233 65.1251C193.233 65.1251 185.928 69.1162 181.544 83.9919Z" fill="#3F1B08"/>
<path d="M117.803 151.84C117.803 151.84 98.078 147.667 89.1286 156.557C78.1702 167.441 106.479 182.498 120.36 176.149C134.423 169.8 127.3 159.278 127.3 159.278L117.803 151.84Z" fill="#843125"/>
<path opacity="0.5" d="M115.063 158.008C116.89 157.827 118.899 157.645 120.725 157.645C120.725 157.645 112.872 155.287 105.018 157.283C97.1645 159.641 94.9728 163.088 94.9728 164.721C95.1555 166.535 99.1736 170.163 102.644 171.07C102.644 171.07 98.443 166.353 98.8083 164.539C99.1736 163.451 104.105 160.367 110.863 158.734C110.863 158.734 116.524 161.637 117.985 165.99C119.081 168.893 114.15 171.614 114.15 171.614C114.15 171.614 120.36 170.163 120.177 166.353C120.542 163.088 116.342 159.278 115.063 158.008Z" fill="#843125"/>
<path d="M106.479 294.611C106.479 294.611 103.375 300.961 103.375 302.593C103.375 304.226 107.21 310.757 107.21 314.022C107.21 317.106 98.8086 320.916 96.7995 322.911C94.7905 324.907 94.0599 325.995 93.512 325.995C92.9641 325.995 91.1377 323.274 91.1377 320.372C91.1377 317.65 98.078 313.659 97.1648 312.934C96.4343 312.208 88.2155 315.474 82.371 318.195C76.5265 320.916 71.4126 324.544 70.1341 324.544C68.8556 324.544 69.5862 321.642 71.2299 319.283C72.8737 316.925 72.8737 316.925 72.8737 316.925C72.8737 316.925 65.7507 322.911 65.0202 320.916C64.2896 318.92 66.8466 316.562 66.8466 316.562C66.8466 316.562 66.2986 316.018 66.2986 314.566C66.2986 313.115 74.8827 304.952 76.7091 304.226C78.3529 303.5 78.3529 303.5 78.3529 303.5C78.3529 303.5 73.7869 304.952 70.682 306.222C67.7598 307.673 65.2028 307.31 64.8375 306.947C64.4722 306.584 70.8646 302.049 74.3348 300.598C77.6223 298.965 93.3294 296.607 94.4252 295.518C95.5211 294.43 97.3475 292.072 97.3475 292.072L106.479 294.611Z" fill="#843125"/>
<path d="M302.818 78.5495C301.539 79.8193 294.234 86.7129 290.946 89.7969C287.841 92.8809 284.371 96.872 284.371 96.872L274.326 94.5136C274.326 94.5136 275.056 92.8809 275.97 90.3412C276.152 89.7969 276.152 89.0713 275.97 87.9828C275.604 83.8104 273.595 76.0097 274.326 74.1956C275.239 71.6558 277.065 71.1116 277.796 69.4789C278.526 67.8462 278.892 68.209 280.901 67.6648C282.727 66.9392 282.91 65.6693 284.371 65.125C285.832 64.5808 287.476 65.3065 288.206 64.3994C288.937 63.6738 290.581 62.9481 292.224 62.4039C292.59 62.2225 292.955 62.2225 293.503 62.4039C295.877 62.5853 299.895 63.8552 300.443 64.3994C301.174 65.125 299.895 70.0231 299.895 70.9302C300.078 72.0187 304.096 77.461 302.818 78.5495Z" fill="#843125"/>
<path d="M300.078 71.1129C300.078 71.1129 298.617 74.1969 297.521 75.1039C296.608 76.011 294.416 76.011 294.416 75.4668C294.416 74.9225 295.147 69.843 295.147 69.843L292.407 72.3828L294.051 71.8385C294.051 71.8385 293.32 75.6482 294.233 76.5552C295.147 77.4623 297.521 76.011 298.434 75.1039C299.53 74.3783 300.078 71.1129 300.078 71.1129Z" fill="#6B291C"/>
<path d="M292.59 72.5631C292.59 72.5631 292.042 74.0144 292.042 74.5586C292.042 75.1028 292.955 77.4612 294.234 77.4612C295.512 77.4612 297.156 76.3727 297.156 76.3727C297.156 76.3727 294.599 76.7355 294.599 76.1913C294.599 75.6471 294.599 71.4746 294.599 71.4746L292.59 72.5631Z" fill="#6B291C"/>
<path opacity="0.2" d="M302.817 78.5508C301.539 79.8207 294.233 86.7143 290.946 89.7983C287.841 92.8823 284.371 96.8733 284.371 96.8733L274.325 94.515C274.325 94.515 275.056 92.8823 275.969 90.3425C276.152 89.7983 276.152 89.0727 275.969 87.9842C275.969 87.9842 282.179 85.4445 284.188 83.6303C286.197 81.6348 287.475 73.2899 288.571 69.2989C289.667 65.1264 292.224 62.5867 292.224 62.5867H293.503C295.877 62.7681 299.895 64.038 300.443 64.5822C301.173 65.3078 299.895 70.2059 299.895 71.113C300.078 72.02 304.096 77.4624 302.817 78.5508Z" fill="#5C1B12"/>
<path d="M219.168 251.435C218.803 253.068 218.438 254.701 218.073 256.333C213.324 276.833 201.087 301.323 179.353 309.124C178.988 309.305 178.622 309.305 178.257 309.487C177.526 309.668 176.796 309.668 176.065 309.668C165.837 309.85 148.487 298.783 147.391 289.713C146.478 281.731 154.696 265.767 161.089 252.705C164.742 245.086 167.847 238.374 167.847 234.927C167.847 228.759 164.011 212.25 161.271 202.273V202.091C159.993 197.193 159.08 193.747 159.08 193.747V184.857L185.563 177.782L188.485 170.163C188.485 170.163 195.06 177.964 202 186.49C208.941 195.198 216.246 204.631 217.342 207.715C219.716 213.883 223.186 230.029 219.168 251.435Z" fill="url(#paint5_linear_55_4048)"/>
<path d="M284.554 97.0544C284.554 97.0544 273.413 119.731 265.011 131.522C256.427 143.314 241.268 151.659 233.414 156.013C220.995 162.907 202.183 186.49 202.183 186.49L196.704 180.685L187.937 171.796L188.485 170.707L188.85 169.8L192.686 160.548C192.686 160.548 198.713 157.101 206.018 152.385C214.237 147.124 223.917 140.593 228.848 135.514C229.762 134.606 230.492 133.699 231.04 132.792C236.519 123.903 244.19 120.456 255.514 112.293C266.837 104.129 274.326 94.8774 274.326 94.8774L284.554 97.0544Z" fill="url(#paint6_linear_55_4048)"/>
<path d="M161.454 201.91C161.454 201.91 159.262 205.357 156.157 210.436C149.4 221.502 138.259 240.006 136.25 246.537C133.327 255.97 133.145 258.51 129.492 266.674C125.839 274.837 106.479 294.429 106.479 294.429L102.461 293.341L97.3472 292.071C97.3472 292.071 105.201 270.12 107.027 263.771C108.854 257.422 119.081 248.17 123.465 239.643C127.665 231.117 139.172 190.481 139.172 190.481L159.262 184.676L161.454 201.91Z" fill="url(#paint7_linear_55_4048)"/>
<path opacity="0.42" d="M131.684 215.515C131.684 215.515 167.846 196.104 193.781 189.573C193.781 189.573 214.054 165.264 211.497 148.574L206.201 152.021L189.398 181.954L168.029 188.303L133.875 208.984L131.684 215.515Z" fill="#AE004F"/>
<path d="M138.989 190.662L133.692 209.166C133.692 209.166 168.942 193.383 193.781 189.755L183.553 175.605C183.553 175.424 155.244 183.224 138.989 190.662Z" fill="url(#paint8_linear_55_4048)"/>
<path d="M206.018 152.203C206.018 156.375 204.922 161.092 203.278 165.808C201.452 171.069 198.895 176.149 196.703 180.503C193.598 186.489 193.781 189.573 193.781 189.573L184.101 176.693L183.553 175.423C184.466 174.516 185.562 172.883 186.293 170.888C188.302 166.716 189.946 161.455 189.946 161.455L206.018 152.203Z" fill="#FFA92E"/>
<path d="M153.966 267.58C153.966 267.58 164.924 255.063 171.134 255.063C177.343 255.063 189.946 283.907 188.119 304.951C188.119 304.951 183.371 308.035 178.074 309.668L147.573 289.712C147.39 289.712 147.39 281.186 153.966 267.58Z" fill="url(#paint9_linear_55_4048)"/>
<path d="M218.255 256.333C213.506 276.833 201.269 301.323 179.535 309.124C179.17 309.305 178.805 309.305 178.439 309.487L188.302 302.774C205.287 292.615 217.89 257.24 218.255 256.333Z" fill="#FFA92E"/>
<path d="M120.36 10.8841C103.557 13.7867 86.7543 17.4149 82.7362 20.3175C75.4306 25.7598 74.3348 39.7285 67.0292 47.1663C59.7236 54.4227 43.4686 61.135 43.4686 66.7587C43.4686 72.3824 60.0888 86.1697 56.6187 98.3242C52.9659 110.479 46.3908 108.12 44.1991 118.461C42.0075 128.801 51.3221 135.151 51.3221 135.151C51.3221 135.151 43.8339 137.146 41.2769 127.169C38.7199 117.191 42.0075 94.8774 45.8429 91.0678C49.6784 87.2581 41.2769 74.378 41.2769 66.2145C41.2769 58.051 58.2624 52.0644 58.2624 42.631C58.2624 33.5605 71.5952 17.2335 104.836 10.8841C110.863 10.7027 116.159 10.7027 120.36 10.8841Z" fill="#FFCCB3"/>
<path opacity="0.31" d="M172.047 33.7412C172.047 33.7412 144.286 29.9316 116.524 57.5061C88.9457 85.0805 100.452 135.876 107.94 150.933L101.73 151.84C101.73 151.84 85.1102 124.447 83.1012 91.0671C83.1012 91.0671 95.886 92.1556 96.7992 92.1556C97.7124 92.1556 101.183 35.1925 170.038 30.6572C170.768 31.5643 171.499 32.6527 172.047 33.7412Z" fill="#CF3125"/>
<path d="M149.034 6.34774C143.92 7.07339 137.163 8.16185 129.857 9.25032C128.761 8.52468 127.118 7.61762 125.108 7.07339C132.414 5.25928 137.528 3.62658 140.998 2.17529C144.286 3.26376 147.025 4.71505 149.034 6.34774Z" fill="#FFCCB3"/>
<path d="M94.973 107.576C94.973 107.576 62.8283 117.554 36.3455 131.522C10.2279 145.672 -3.47009 164.721 0.730631 169.074C5.114 173.428 28.4919 158.553 28.4919 158.553C28.4919 158.553 31.4142 165.446 37.8066 166.172C48.9476 167.442 63.9241 152.929 63.9241 152.929C63.9241 152.929 60.6366 158.553 64.6547 158.553C68.8554 158.553 86.3889 138.96 86.3889 138.96C86.3889 138.96 83.8319 143.677 88.7632 143.677C93.5118 143.677 104.105 127.35 102.461 116.828C101.183 107.576 94.973 107.576 94.973 107.576Z" fill="#7788D0"/>
<path d="M88.7633 141.68C84.1973 141.68 86.2063 137.508 86.389 136.964C85.4758 137.871 68.6729 156.556 64.6548 156.556C60.6367 156.556 63.559 151.477 63.9242 150.932C63.3763 151.477 58.8103 155.83 52.9658 159.459C48.2172 162.361 42.738 164.72 37.9893 164.175C31.5969 163.45 28.6747 156.556 28.6747 156.556C28.6747 156.556 5.11411 171.432 0.730747 167.078C-3.46998 162.724 10.228 143.676 36.5282 129.707C41.2769 127.167 46.0255 124.809 50.9568 122.632C73.2389 112.473 94.9731 105.58 94.9731 105.58C94.9731 105.58 101.183 105.58 102.461 114.832C104.105 125.535 93.6946 141.68 88.7633 141.68Z" fill="url(#paint10_linear_55_4048)"/>
<path d="M101.183 116.101C101.183 120.455 98.4432 123.902 94.973 123.902C91.5028 123.902 88.7632 120.455 88.7632 116.101C88.7632 111.748 91.5028 108.301 94.973 108.301C98.4432 108.301 101.183 111.748 101.183 116.101Z" fill="#7788D0"/>
<path opacity="0.52" d="M13.3328 151.114C13.3328 151.114 52.0525 120.093 90.7722 110.478L88.7631 116.102C88.7631 116.102 52.4178 123.902 13.3328 151.114Z" fill="#7788D0"/>
<path opacity="0.79" d="M52.9658 159.459C48.2172 162.362 42.738 164.72 37.9893 164.176C31.5969 163.45 28.6747 156.557 28.6747 156.557C28.6747 156.557 5.11411 171.432 0.730747 167.079C-3.46998 162.725 10.228 143.677 36.5282 129.708C41.2769 127.168 46.0255 124.81 50.9568 122.633C59.1756 121.182 65.7506 122.451 68.6729 126.805C73.4215 133.88 66.6638 147.305 52.9658 159.459Z" fill="white"/>
<path opacity="0.79" d="M142.277 29.5691C143.555 32.2902 138.441 37.1883 131.135 40.6352C123.647 44.082 116.707 44.6262 115.428 41.905C114.15 39.1839 119.264 34.2858 126.569 30.839C133.875 27.5736 140.998 26.8479 142.277 29.5691Z" fill="white"/>
<path d="M141.546 33.1971C143.967 33.1971 145.93 32.2225 145.93 31.0202C145.93 29.8179 143.967 28.8433 141.546 28.8433C139.125 28.8433 137.163 29.8179 137.163 31.0202C137.163 32.2225 139.125 33.1971 141.546 33.1971Z" fill="white"/>
<path opacity="0.42" d="M214.602 160.367C211.132 162.543 207.297 164.358 203.279 165.809C198.347 167.623 193.416 169.256 188.485 170.526H188.302C187.754 170.707 187.024 170.888 186.476 170.888C173.143 173.972 162.002 175.061 162.002 175.061L153.966 167.26L155.244 166.897L176.248 163.995L177.161 167.442L190.311 161.455L206.383 152.203C214.602 146.942 224.282 140.411 229.213 135.332C228.848 135.332 233.779 148.393 214.602 160.367Z" fill="#AE004F"/>
<path d="M97.3472 292.252L100.817 282.275L113.42 287.173L106.479 294.611L97.3472 292.252Z" fill="url(#paint11_linear_55_4048)"/>
<path d="M275.787 91.2493L269.759 99.7756L279.987 105.581L286.38 94.6961L275.787 91.2493Z" fill="url(#paint12_linear_55_4048)"/>
<path opacity="0.42" d="M219.168 251.435C218.803 253.068 218.438 254.701 218.073 256.333C213.324 276.833 201.087 301.323 179.353 309.124C178.988 309.305 178.622 309.305 178.257 309.487C177.526 309.668 176.796 309.668 176.065 309.668L166.933 274.474C166.933 274.474 212.228 235.834 212.228 220.777C212.228 202.091 202.731 187.578 202.183 186.49C209.123 195.198 216.429 204.631 217.525 207.715C219.716 213.883 223.186 230.029 219.168 251.435Z" fill="#AE004F"/>
<path d="M177.709 324.181C177.526 326.176 177.344 328.172 177.161 330.167C176.796 332.889 176.43 335.247 176.065 337.787C175.517 340.508 174.787 343.229 174.056 345.406C167.116 366.631 138.807 421.054 138.807 426.86C138.807 427.767 138.989 430.125 139.172 433.39V433.572C139.172 434.66 139.354 435.93 139.354 437.2L139.537 440.647C139.537 440.647 139.537 440.828 139.537 441.191C139.537 442.098 139.72 442.824 139.72 443.731C139.72 444.094 139.72 444.638 139.72 445.001C140.998 462.597 142.277 485.818 140.085 485.818C136.615 485.818 126.935 481.101 124.561 470.217C122.186 459.332 122.004 433.935 122.004 431.576C122.004 429.581 125.839 428.674 128.396 424.864C128.761 424.32 128.944 423.776 129.309 423.231C130.04 421.599 130.588 418.333 130.953 414.161C131.684 405.997 131.866 394.568 133.145 385.316C134.971 371.348 144.468 365.361 147.391 358.83C148.304 356.835 148.121 351.937 147.391 345.769L147.208 344.318C147.025 343.048 146.843 341.778 146.66 340.326C145.016 327.628 142.642 311.119 144.286 299.509C146.112 285.903 152.322 274.837 158.532 269.758C161.089 267.581 163.646 266.311 165.655 266.311C174.787 266.855 179.535 298.239 177.709 324.181Z" fill="url(#paint13_linear_55_4048)"/>
<path d="M177.161 330.168C176.796 332.889 176.43 335.429 176.065 337.787C175.517 340.508 174.787 343.229 174.056 345.406C167.116 366.631 138.807 421.055 138.807 426.86C138.807 427.767 138.989 430.125 139.172 433.391V433.572C139.172 434.661 139.354 435.93 139.354 437.2L139.537 440.647C139.537 440.647 139.537 440.828 139.537 441.191C139.537 442.098 139.72 442.824 139.72 443.731C139.72 444.094 139.72 444.638 139.72 445.001C140.998 462.598 142.277 485.818 140.085 485.818C136.615 485.818 126.935 481.102 124.561 470.217C122.186 459.332 122.004 433.935 122.004 431.577C122.004 429.581 125.839 428.674 128.396 424.864C128.761 424.32 128.944 423.776 129.309 423.232C130.04 421.599 130.588 418.334 130.953 414.161C131.684 405.998 131.866 394.569 133.145 385.317C134.971 371.348 144.468 365.362 147.391 358.831C148.304 356.835 148.121 351.937 147.391 345.769L147.208 344.318C147.025 343.048 146.843 341.778 146.66 340.327C146.66 340.327 146.66 340.327 146.843 340.145C147.208 339.238 149.4 334.884 152.322 330.168C153.6 327.991 155.244 325.633 156.888 323.456C156.888 323.456 156.888 323.274 157.071 323.274C160.906 318.195 165.472 313.841 169.49 313.841C173.691 314.385 175.7 324.907 177.161 330.168Z" fill="url(#paint14_linear_55_4048)"/>
<path d="M177.161 330.167L176.065 337.786C176.065 337.242 176.613 321.64 169.673 321.64C165.289 321.64 157.801 331.255 152.687 338.33C149.582 342.684 147.391 346.131 147.391 346.131L147.208 344.679L146.66 340.688C146.66 340.688 146.66 340.688 146.843 340.507C147.391 339.6 149.4 335.609 152.322 330.711C153.6 328.534 155.244 325.994 156.888 323.817C156.888 323.817 156.888 323.636 157.071 323.636C161.454 317.286 166.568 311.481 170.221 311.481C175.883 311.844 176.978 329.441 177.161 330.167Z" fill="url(#paint15_linear_55_4048)"/>
<path d="M129.309 423.594C129.309 423.594 131.501 445.182 135.336 448.992C139.172 452.802 138.989 433.391 138.989 433.391L139.537 440.647C139.537 440.647 141.729 462.054 135.884 461.147C130.222 460.239 128.396 425.227 128.396 425.227L129.309 423.594Z" fill="url(#paint16_linear_55_4048)"/>
<path d="M152.687 338.33C152.87 349.396 152.87 359.011 151.774 362.821C149.582 370.984 136.98 374.25 130.953 414.523C131.683 406.359 131.866 394.93 133.145 385.678C134.971 371.71 144.468 365.723 147.39 359.192C148.304 357.197 148.121 352.299 147.39 346.131L147.208 344.68L146.66 340.689C145.016 327.99 142.642 311.481 144.286 299.871C146.112 286.265 152.322 275.199 158.532 270.12C158.532 270.12 151.591 282.637 151.591 301.322C151.591 309.304 151.956 320.008 152.322 330.529C152.322 330.711 152.322 330.711 152.322 330.892C152.504 333.432 152.687 335.972 152.687 338.33Z" fill="#FFFFD8"/>
<path d="M161.088 252.705C164.741 245.086 167.846 238.374 167.846 234.927C167.846 228.759 164.011 212.251 161.271 202.273C162.002 203.543 168.942 217.693 172.229 228.759C174.969 237.467 165.654 247.989 161.088 252.705Z" fill="#FFFFD8"/>
<path opacity="0.42" d="M155.975 210.617C149.217 221.683 138.076 240.187 136.067 246.718C133.145 256.151 132.962 258.691 129.309 266.855C125.656 275.018 106.297 294.61 106.297 294.61L102.278 293.522C102.278 293.522 130.953 255.97 134.423 244.722C138.076 233.656 154.879 211.887 155.975 210.617Z" fill="#AE004F"/>
<path d="M119.812 425.952C119.995 423.956 121.456 424.863 121.638 425.045C121.273 424.682 115.246 416.518 115.246 414.704C115.429 412.89 117.072 414.342 117.255 414.523C117.072 414.342 115.611 411.983 114.516 409.262C113.602 407.085 113.054 404.545 113.42 402.368C113.968 399.466 116.525 398.377 116.525 398.377C116.525 398.377 111.959 387.311 113.602 385.497C115.246 383.683 121.821 390.395 126.022 402.731C126.752 404.908 127.483 407.266 128.031 409.443C130.953 419.965 132.597 429.943 132.597 429.943C132.597 429.943 132.414 432.845 128.944 433.027C125.291 433.208 119.812 428.129 119.812 425.952Z" fill="#7788D0"/>
<path d="M118.534 425.952C118.716 423.956 120.177 424.863 120.36 425.045C119.995 424.682 113.968 416.518 113.968 414.704C114.15 412.89 115.794 414.342 115.977 414.523C115.794 414.342 114.333 411.983 113.237 409.262C112.324 407.085 111.776 404.545 112.141 402.368C112.689 399.466 115.246 398.377 115.246 398.377C115.246 398.377 110.68 387.311 112.324 385.497C113.968 383.683 120.543 390.395 124.743 402.731C125.474 404.908 126.205 407.266 126.752 409.443C129.675 419.965 131.318 429.943 131.318 429.943C131.318 429.943 131.136 432.845 127.666 433.027C123.83 433.208 118.351 428.129 118.534 425.952Z" fill="url(#paint17_linear_55_4048)"/>
<path opacity="0.52" d="M117.803 391.484C117.803 391.484 127.665 409.988 129.857 427.767L127.848 426.678C127.848 426.678 126.204 409.988 117.803 391.484Z" fill="#7788D0"/>
<path opacity="0.79" d="M113.42 409.081C112.507 406.904 111.959 404.365 112.141 402.188C112.689 399.285 115.246 398.197 115.246 398.197C115.246 398.197 110.68 387.131 112.324 385.317C113.968 383.502 120.543 390.215 124.743 402.551C125.474 404.727 126.205 407.086 126.752 409.263C126.935 413.072 126.205 415.975 124.561 417.063C122.004 419.059 117.255 415.612 113.42 409.081Z" fill="white"/>
<path d="M264.281 387.312C262.089 381.87 260.08 374.613 258.436 369.896C256.062 363.003 250.4 358.468 248.391 354.839V354.658L248.208 354.295C248.208 354.295 260.08 362.096 261.906 367.901C263.915 373.525 264.281 386.768 264.281 387.312Z" fill="#FFFFD8"/>
</g>
<defs>
<linearGradient id="paint0_linear_55_4048" x1="250.991" y1="394.909" x2="250.991" y2="258.725" gradientUnits="userSpaceOnUse">
<stop stop-color="#A90025"/>
<stop offset="1" stop-color="#951D6A"/>
</linearGradient>
<linearGradient id="paint1_linear_55_4048" x1="264.315" y1="371.003" x2="264.315" y2="340.043" gradientUnits="userSpaceOnUse">
<stop stop-color="#0EE0F4"/>
<stop offset="1" stop-color="#7EFFD8"/>
</linearGradient>
<linearGradient id="paint2_linear_55_4048" x1="84.7778" y1="168.208" x2="84.7778" y2="-0.000848523" gradientUnits="userSpaceOnUse">
<stop stop-color="#481D27"/>
<stop offset="1" stop-color="#7D2710"/>
</linearGradient>
<linearGradient id="paint3_linear_55_4048" x1="152.239" y1="167.48" x2="152.239" y2="33.207" gradientUnits="userSpaceOnUse">
<stop stop-color="#CE6D35"/>
<stop offset="1" stop-color="#9E3A21"/>
</linearGradient>
<linearGradient id="paint4_linear_55_4048" x1="127.467" y1="151.878" x2="127.467" y2="23.3947" gradientUnits="userSpaceOnUse">
<stop stop-color="#FFA031"/>
<stop offset="1" stop-color="#FFD638"/>
</linearGradient>
<linearGradient id="paint5_linear_55_4048" x1="184.197" y1="309.604" x2="184.197" y2="170.079" gradientUnits="userSpaceOnUse">
<stop stop-color="#A90025"/>
<stop offset="1" stop-color="#CC266A"/>
</linearGradient>
<linearGradient id="paint6_linear_55_4048" x1="236.22" y1="186.455" x2="236.22" y2="94.7615" gradientUnits="userSpaceOnUse">
<stop stop-color="#A90025"/>
<stop offset="1" stop-color="#951D6A"/>
</linearGradient>
<linearGradient id="paint7_linear_55_4048" x1="129.329" y1="294.56" x2="129.329" y2="184.767" gradientUnits="userSpaceOnUse">
<stop stop-color="#A90025"/>
<stop offset="1" stop-color="#CC266A"/>
</linearGradient>
<linearGradient id="paint8_linear_55_4048" x1="163.754" y1="209.151" x2="163.754" y2="175.5" gradientUnits="userSpaceOnUse">
<stop stop-color="#FFA031"/>
<stop offset="1" stop-color="#FFD638"/>
</linearGradient>
<linearGradient id="paint9_linear_55_4048" x1="167.881" y1="309.589" x2="167.881" y2="254.993" gradientUnits="userSpaceOnUse">
<stop stop-color="#FFA031"/>
<stop offset="1" stop-color="#FFD638"/>
</linearGradient>
<linearGradient id="paint10_linear_55_4048" x1="0.000186106" y1="136.769" x2="102.717" y2="136.769" gradientUnits="userSpaceOnUse">
<stop stop-color="#0EE0F4"/>
<stop offset="1" stop-color="#7EFFD8"/>
</linearGradient>
<linearGradient id="paint11_linear_55_4048" x1="105.322" y1="294.564" x2="105.322" y2="282.291" gradientUnits="userSpaceOnUse">
<stop stop-color="#0EE0F4"/>
<stop offset="1" stop-color="#7EFFD8"/>
</linearGradient>
<linearGradient id="paint12_linear_55_4048" x1="278.113" y1="105.655" x2="278.113" y2="91.2921" gradientUnits="userSpaceOnUse">
<stop stop-color="#0EE0F4"/>
<stop offset="1" stop-color="#7EFFD8"/>
</linearGradient>
<linearGradient id="paint13_linear_55_4048" x1="122.122" y1="376.487" x2="178.071" y2="376.487" gradientUnits="userSpaceOnUse">
<stop stop-color="#CE6D35"/>
<stop offset="1" stop-color="#9E3A21"/>
</linearGradient>
<linearGradient id="paint14_linear_55_4048" x1="149.616" y1="486.086" x2="149.616" y2="314.432" gradientUnits="userSpaceOnUse">
<stop stop-color="#A90025"/>
<stop offset="1" stop-color="#CC266A"/>
</linearGradient>
<linearGradient id="paint15_linear_55_4048" x1="161.982" y1="346.189" x2="161.982" y2="311.763" gradientUnits="userSpaceOnUse">
<stop stop-color="#FFA031"/>
<stop offset="1" stop-color="#FFD638"/>
</linearGradient>
<linearGradient id="paint16_linear_55_4048" x1="134.199" y1="461.212" x2="134.199" y2="423.617" gradientUnits="userSpaceOnUse">
<stop stop-color="#0EE0F4"/>
<stop offset="1" stop-color="#7EFFD8"/>
</linearGradient>
<linearGradient id="paint17_linear_55_4048" x1="123.436" y1="385.753" x2="119.906" y2="432.344" gradientUnits="userSpaceOnUse">
<stop stop-color="#0EE0F4"/>
<stop offset="1" stop-color="#7EFFD8"/>
</linearGradient>
<clipPath id="clip0_55_4048">
<rect width="303" height="486" fill="white"/>
</clipPath>
</defs>
</svg>
