<svg width="333" height="449" viewBox="0 0 333 449" fill="none" xmlns="http://www.w3.org/2000/svg">
<path d="M238.32 208.433C238.32 210.447 237.985 213.635 237.481 217.831C235.802 230.417 231.772 251.395 226.398 270.191C226.062 271.198 225.727 272.205 225.559 273.379C222.368 284.12 218.674 293.853 214.812 300.566C213.469 303.083 211.957 305.433 210.278 307.782C197.181 326.746 177.534 340.004 142.104 346.549C102.307 353.765 75.9442 328.424 54.7866 319.698C52.0999 318.523 49.2453 318.019 46.3907 317.684C26.0727 315.838 1.05302 331.613 0.381348 332.116C0.549265 331.109 9.28097 297.042 40.5136 261.464C42.6965 259.115 44.8795 256.597 47.0624 254.248C77.9592 221.019 117.084 191.651 136.059 181.917C138.242 180.743 141.432 179.568 144.958 178.393H145.126C149.828 176.883 155.537 175.372 161.246 174.03C171.489 171.513 181.732 169.499 187.609 168.324C190.632 167.653 192.479 167.317 192.479 167.317L202.89 162.618L222.368 163.961C222.368 163.961 222.536 164.129 222.872 164.296C225.055 165.639 234.122 171.177 235.634 172.52C236.473 173.191 236.977 178.058 237.481 184.267C237.817 188.798 238.152 193.833 238.152 198.699C238.32 202.056 238.32 205.58 238.32 208.433Z" fill="#AE004F"/>
<path opacity="0.24" d="M238.32 208.433C238.32 210.447 237.985 213.635 237.481 217.831C235.802 230.417 231.772 251.395 226.398 270.191C226.062 271.198 225.727 272.205 225.559 273.379C222.368 284.12 218.674 293.853 214.812 300.566C213.469 303.083 211.957 305.433 210.278 307.782C210.278 307.782 207.256 305.265 202.05 301.573C192.815 294.86 176.695 284.288 158.728 276.232C140.425 268.177 120.275 262.807 103.315 267.506C68.7238 276.904 54.6188 319.698 54.6188 319.698L46.2229 317.684L46.8946 254.248C77.7914 221.019 116.916 191.651 135.891 181.917C138.074 180.743 141.264 179.568 144.79 178.393H144.958C149.66 176.883 155.369 175.372 161.078 174.03C171.321 171.513 181.564 169.499 187.441 168.324C190.464 167.653 192.311 167.317 192.311 167.317L202.722 162.618L222.2 163.961C222.2 163.961 222.368 164.129 222.704 164.296C224.887 165.639 233.955 171.177 235.466 172.52C236.305 173.191 236.809 178.058 237.313 184.267C237.649 188.798 237.985 193.833 237.985 198.699C238.32 202.056 238.32 205.58 238.32 208.433Z" fill="#AE004F"/>
<path d="M200.371 167.82L200.035 168.324L199.699 168.827L198.86 170.17L195.837 175.036L194.158 177.554L189.288 185.273L175.015 207.929C174.008 208.432 146.134 223.201 145.462 223.872C144.79 224.543 146.469 231.256 149.492 237.969C152.514 244.682 158.056 258.275 158.056 258.275L152.514 261.464C152.514 261.464 135.219 246.863 130.181 238.808C127.831 235.116 126.319 231.592 125.48 228.739C124.304 225.214 123.969 222.529 123.969 221.522C123.969 220.348 124.976 217.663 131.525 211.789C135.219 208.6 140.592 204.237 148.484 198.867C152.514 196.014 156.712 193.329 161.078 190.644C161.246 190.644 161.414 190.476 161.414 190.308C161.918 189.972 162.254 189.804 162.757 189.469C163.429 189.133 164.101 188.63 164.94 188.126C172.665 183.427 180.053 179.064 186.266 175.54C188.449 174.365 190.464 173.19 192.143 172.183C195.333 170.337 197.852 168.995 199.196 168.324C200.035 167.988 200.371 167.82 200.371 167.82Z" fill="url(#paint0_linear_36_2416)"/>
<path d="M151.507 273.714C151.507 273.714 147.981 268.847 148.652 267.337C149.324 265.826 152.515 268.008 152.515 268.008L151.507 273.714Z" fill="#F08364"/>
<path d="M203.561 160.268C203.561 160.268 201.714 166.477 200.875 167.316C200.035 168.155 197.013 171.176 197.013 171.176C197.013 171.176 197.349 175.371 204.737 175.371C212.125 175.371 219.178 169.498 219.178 169.498C219.178 169.498 218.338 168.155 218.338 165.134C218.338 162.114 222.2 154.058 222.2 154.058L203.561 160.268Z" fill="#DA6951"/>
<path d="M268.042 60.7502L266.363 78.5391L263.676 107.236C263.676 107.236 258.806 134.927 248.899 143.15C238.992 151.373 212.629 160.603 197.516 160.603C191.639 160.603 184.083 158.589 176.863 155.568C165.612 151.037 155.537 144.325 154.194 139.793C154.026 139.122 153.858 138.451 153.858 137.612C153.69 135.43 154.026 133.248 154.53 130.899C155.201 128.046 156.209 125.193 157.048 122.34C157.552 120.494 157.888 118.816 157.888 117.306C157.888 116.634 157.888 115.963 157.72 115.46C156.88 110.089 153.186 90.4543 152.85 74.5115C152.682 69.1412 153.018 64.2744 153.858 60.5824C157.216 45.4786 193.822 34.5703 193.822 34.5703L236.473 36.0807L241.343 36.2485L241.847 36.752L243.526 38.2623L268.042 60.7502Z" fill="url(#paint1_linear_36_2416)"/>
<path d="M266.363 78.5391L263.676 107.236C263.676 107.236 258.806 134.927 248.899 143.15C238.992 151.373 212.629 160.603 197.516 160.603C197.516 160.603 204.737 160.1 213.301 156.743C221.864 153.387 245.373 140.968 240.839 109.754C236.305 78.5391 216.155 62.4284 187.777 62.4284C162.254 62.4284 153.018 74.6793 153.018 74.6793L152.85 74.5115C152.682 69.1412 153.018 64.2744 153.858 60.5824C157.216 45.4786 193.822 34.5703 193.822 34.5703L236.473 36.0807L241.847 36.752L242.686 36.9198L243.526 38.2623L266.363 78.5391Z" fill="#F08364"/>
<path d="M250.914 72.4976C250.914 72.4976 256.623 105.726 261.157 113.781L266.53 110.928C266.53 110.928 278.956 83.7415 278.956 70.3159C278.788 56.8903 250.914 72.4976 250.914 72.4976Z" fill="#5C1B12"/>
<path d="M254.776 28.5294C254.776 28.5294 251.25 10.4048 230.428 0C230.428 0 243.022 16.1107 243.022 29.7041L255.616 31.0467C255.616 31.0467 264.851 31.718 267.706 28.865C270.56 26.0121 260.989 15.4394 260.989 15.4394C260.989 15.4394 265.187 22.4879 265.187 25.3408C265.523 28.3616 254.776 28.5294 254.776 28.5294Z" fill="url(#paint2_linear_36_2416)"/>
<path d="M180.053 54.8779C180.053 54.8779 176.359 52.5284 169.642 51.8571C157.384 50.8502 152.682 73.0024 152.682 73.0024L147.981 54.8779C147.981 54.8779 120.778 49.172 101.635 50.8502C101.635 50.8502 125.48 42.4592 142.104 40.2775L131.861 28.698L171.825 19.4679C171.825 19.4679 182.572 13.2585 201.546 13.2585C220.521 13.2585 227.574 23.4956 227.574 23.4956L180.053 54.8779Z" fill="#5C1B12"/>
<path d="M172.665 122.508C171.657 124.69 166.116 125.529 162.254 124.354C158.392 123.18 155.369 108.244 157.048 101.531C158.895 94.8181 164.269 95.9929 167.627 101.867C170.985 107.74 173.84 119.823 172.665 122.508Z" fill="#FFFFD8"/>
<path d="M204.905 119.32C205.241 123.348 213.469 125.865 221.529 125.194C231.268 124.523 238.824 114.789 236.977 108.076C235.13 101.364 229.924 94.4831 220.353 95.3222C210.95 96.3291 204.065 109.083 204.905 119.32Z" fill="#FFFFD8"/>
<path d="M234.962 108.245C234.962 114.79 230.092 120.16 224.047 120.16C218.002 120.16 213.133 114.79 213.133 108.245C213.133 101.7 218.002 96.3293 224.047 96.3293C230.092 96.4972 234.962 101.7 234.962 108.245Z" fill="#532722"/>
<path d="M207.088 122.509C207.088 122.509 217.163 128.382 229.589 122.509C229.757 122.509 219.346 130.9 207.088 122.509Z" fill="#3F1B08"/>
<path d="M173.168 119.321C173.168 119.321 173.001 119.321 173.168 119.321C171.993 120.999 170.482 121.838 168.971 121.838C165.108 121.838 162.086 116.636 162.086 110.091C162.086 106.063 163.261 102.371 165.276 100.357C165.948 99.6858 166.62 99.1823 167.291 98.8467C168.299 100.021 169.306 101.7 170.482 103.546C173.504 109.755 173.336 116.803 173.168 119.321Z" fill="#532722"/>
<path d="M159.231 121.669C159.231 121.669 161.918 125.865 169.978 124.354C169.978 124.354 162.086 127.879 159.231 121.669Z" fill="#3F1B08"/>
<path d="M215.987 111.769C215.987 112.943 215.148 113.783 213.972 113.783C212.797 113.783 211.957 112.943 211.957 111.769C211.957 110.594 212.797 109.755 213.972 109.755C214.98 109.755 215.987 110.594 215.987 111.769Z" fill="white"/>
<path d="M163.933 113.278C163.933 114.453 163.093 115.292 161.918 115.292C160.742 115.292 159.903 114.453 159.903 113.278C159.903 112.103 160.742 111.264 161.918 111.264C163.093 111.264 163.933 112.103 163.933 113.278Z" fill="white"/>
<path d="M204.905 117.137C204.905 117.137 203.058 103.041 213.469 96.6634C223.376 90.6219 232.275 95.3209 235.298 101.53C238.32 107.907 236.809 114.285 236.809 114.285C236.809 114.285 236.641 105.558 232.443 101.195C228.581 97.5025 221.864 95.8243 213.469 100.691C205.912 105.054 204.905 117.137 204.905 117.137Z" fill="#3F1B08"/>
<path d="M173.168 119.32C173.168 119.823 173 120.159 173 120.159C173 119.823 173 119.655 173.168 119.32C172.833 111.6 168.803 103.88 165.108 100.188C163.429 98.51 161.75 97.6709 160.742 98.0065C157.048 99.0135 156.545 108.411 156.545 108.411C155.201 99.6847 158.056 94.818 159.567 94.4823C161.078 94.1467 164.101 94.9858 167.291 98.8456C168.299 100.02 169.306 101.699 170.482 103.545C173.504 109.754 173.336 116.802 173.168 119.32Z" fill="#3F1B08"/>
<path d="M171.825 128.886C171.825 128.886 174.176 130.229 180.725 130.229C187.273 130.229 193.486 128.215 193.486 128.215C193.486 128.215 193.654 131.404 191.303 132.075C189.121 132.746 185.93 133.753 185.091 134.089C184.251 134.424 183.411 136.606 183.411 136.606C183.411 136.606 175.519 134.424 173.504 133.082C171.657 131.404 171.825 128.886 171.825 128.886Z" fill="#DA6951"/>
<path d="M199.531 76.8624L198.524 70.3174C198.524 70.3174 226.902 71.8278 233.955 84.0786C233.955 84.0786 230.596 80.0509 219.682 78.2049C210.782 76.5267 204.569 78.8762 199.531 76.8624Z" fill="#701B08"/>
<path d="M184.419 134.256C181.228 131.067 188.785 131.067 191.471 132.074L184.419 134.256Z" fill="#532722"/>
<path d="M184.923 136.773C184.923 136.773 177.198 136.101 173 133.416C168.803 130.563 169.474 128.214 169.978 127.71C170.482 127.207 173.84 124.018 179.885 123.515C179.885 123.515 174.848 124.522 171.657 127.71C171.657 127.71 171.993 130.396 174.512 132.409C177.198 134.759 184.923 136.773 184.923 136.773Z" fill="#8B3D22"/>
<path d="M206.248 138.284C206.248 138.284 211.957 134.927 215.987 137.109C215.987 137.109 215.651 139.626 214.812 139.626C214.14 139.794 214.308 136.773 206.248 138.284Z" fill="#8B3D22"/>
<path d="M211.118 137.109C211.118 137.109 210.614 140.634 206.248 143.319C201.882 146.172 194.998 148.857 187.945 148.353L187.609 148.689C187.609 148.689 191.471 148.857 195.501 148.521C200.707 148.018 210.614 145.333 212.293 137.948L211.118 137.109Z" fill="#8B3D22"/>
<path d="M282.147 68.3027C282.147 68.3027 267.37 78.8754 250.914 72.4982C238.824 67.7993 229.253 58.9048 222.032 53.5346C219.346 51.5207 216.995 50.0103 214.812 49.3391C207.088 46.9896 179.885 54.8771 179.885 54.8771C179.549 54.5415 172.329 48.6678 161.918 42.2906H161.75C158.895 40.6124 155.873 38.9342 152.682 37.256L152.515 37.0882C150.164 35.9135 147.645 34.5709 145.126 33.564C139.585 31.2145 133.876 29.2007 128.167 27.8581C128.167 27.8581 160.239 17.1176 182.74 20.1384C183.579 20.3062 184.251 20.3062 185.091 20.474C188.113 20.8097 190.8 21.3131 192.983 21.481C205.912 23.327 207.256 23.6626 207.256 23.6626C207.256 23.6626 205.241 21.9844 202.05 19.6349C201.379 19.1315 200.707 18.628 200.035 18.1246C195.333 14.7682 189.121 10.7405 183.747 8.72664C183.747 8.72664 205.241 8.22319 223.544 11.0761C228.413 11.7474 232.947 12.7543 236.809 14.0969C237.817 14.4325 238.992 14.7682 239.832 15.2716C256.791 22.4879 256.12 29.0329 255.952 29.5363C257.463 30.5432 280.132 43.4654 282.147 68.3027Z" fill="url(#paint3_linear_36_2416)"/>
<path d="M259.142 115.292C259.142 115.292 272.743 103.88 287.352 109.754C302.129 115.46 285.169 141.64 269.385 143.15C253.601 144.66 254.608 131.57 254.608 131.57L259.142 115.292Z" fill="#F08364"/>
<path d="M259.646 126.704C259.646 126.704 265.523 120.495 273.415 118.481C281.643 116.299 285.337 118.313 286.177 119.991C287.016 121.669 285.169 126.872 282.651 129.557C282.651 129.557 283.994 123.012 282.651 121.837C281.307 120.662 269.553 120.998 259.646 126.704Z" fill="#DA6951"/>
<path d="M265.187 123.684C265.187 123.684 262.333 130.9 264.348 134.424C266.363 137.949 272.408 136.103 272.408 136.103C272.408 136.103 266.698 136.102 266.195 132.914C265.355 128.383 268.881 122.845 268.881 122.845L265.187 123.684Z" fill="#DA6951"/>
<path opacity="0.5" d="M189.624 127.711C189.624 128.55 187.609 129.222 185.09 129.222C182.572 129.222 180.557 128.55 180.557 127.711C180.557 126.872 182.572 126.201 185.09 126.201C187.609 126.201 189.624 126.872 189.624 127.711Z" fill="#FFFFD8"/>
<path d="M152.682 261.463C152.682 261.463 150.667 265.491 150.667 269.854C150.667 273.211 151.003 273.379 151.003 273.379C151.003 273.379 148.484 270.861 145.966 270.861C143.615 270.861 152.514 281.434 154.865 281.434C157.384 281.434 159.231 279.756 160.91 279.756C162.59 279.756 162.925 278.077 163.765 277.238C164.605 276.399 167.291 275.896 167.963 275.057C168.635 274.385 168.635 272.036 169.306 271.533C169.978 270.861 170.985 269.015 170.985 268.176C170.985 267.169 159.399 258.107 158.224 258.107C157.048 258.107 152.682 261.463 152.682 261.463Z" fill="url(#paint4_linear_36_2416)"/>
<path d="M37.4912 364.841L39.6741 364.673C39.6741 364.673 48.5738 255.087 114.565 195.007C114.565 195.007 69.0597 223.704 55.6263 244.85C42.1929 265.995 37.4912 364.841 37.4912 364.841Z" fill="#DA0060"/>
<path d="M226.734 271.701C226.566 271.868 225.391 274.05 216.995 282.273C216.995 282.273 216.995 282.273 216.827 282.441C208.263 291 197.18 309.125 196.173 310.635V310.803L185.426 313.152L158.224 280.595V280.259C158.392 278.917 159.063 273.715 160.239 266.163L160.407 265.491C162.589 252.569 166.62 232.934 173.168 213.299C173.84 211.453 174.512 209.607 175.183 207.761C179.885 195.175 185.258 186.112 189.624 179.735C190.464 178.728 191.135 177.722 191.807 176.715C192.647 175.54 193.486 174.533 194.326 173.526C196.677 170.841 198.524 169.163 199.363 168.491C199.531 168.324 199.699 168.156 199.867 168.156C199.867 168.156 199.867 168.324 199.867 168.659C199.867 170.002 200.539 173.526 206.248 173.526C213.468 173.526 218.842 168.156 218.842 168.156L220.185 168.827L222.368 170.002C222.368 170.002 222.2 172.183 222.032 175.875C221.864 179.232 221.696 183.763 221.529 188.965C221.529 189.637 221.529 190.308 221.529 191.147C221.361 195.343 221.361 200.042 221.193 204.741C221.193 205.412 221.193 205.915 221.193 206.419C221.193 209.943 221.193 213.467 221.193 217.159C221.193 233.773 224.047 253.912 225.726 264.484L225.894 265.156C225.894 265.659 226.062 265.995 226.062 266.498C226.398 268.176 226.566 269.351 226.734 270.358C226.734 270.526 226.734 270.694 226.902 271.029V271.197L226.734 271.701Z" fill="url(#paint5_linear_36_2416)"/>
<path d="M167.123 358.967C164.269 365.512 164.94 370.546 164.94 380.28C164.94 383.133 163.429 387.328 161.414 391.86C156.544 402.264 147.981 414.347 146.637 415.69C146.302 416.026 146.134 416.697 145.798 417.536C144.454 423.074 143.783 437.674 142.607 438.849C141.096 440.359 125.312 442.205 116.244 445.226C107.345 448.247 89.5454 450.261 89.5454 447.576C89.5454 446.065 103.65 436.332 116.244 427.605C116.244 427.605 116.412 427.605 116.412 427.437C125.48 421.228 133.708 415.522 134.883 414.347C137.234 411.998 142.439 387.161 146.302 359.806C147.141 354.1 147.813 348.226 148.484 342.52C150.332 327.081 152.514 312.481 154.362 301.405C156.544 288.65 158.224 280.259 158.224 280.259L185.426 312.816C185.426 313.152 169.81 352.422 167.123 358.967Z" fill="url(#paint6_linear_36_2416)"/>
<path d="M313.212 448.247C302.297 447.24 274.758 440.527 272.911 438.681C271.736 437.506 271.064 429.954 270.225 424.584C269.889 422.57 269.553 420.892 269.217 419.717C269.217 419.549 269.049 419.382 269.049 419.382C268.881 419.046 268.713 418.71 268.545 418.71C267.538 417.703 259.982 406.627 251.082 393.537C242.518 380.783 232.611 366.015 226.566 356.953C225.727 355.61 224.887 354.267 223.879 352.925C211.957 334.8 196.005 310.802 196.005 310.802C196.005 310.802 213.133 277.909 226.566 271.868C226.566 271.868 244.701 339.835 247.22 347.555C248.899 353.261 256.288 359.638 262.333 366.854C264.683 369.707 266.698 372.56 268.21 375.581C273.751 386.657 276.102 412.165 278.621 414.683C281.139 417.2 293.229 422.402 309.685 430.458C318.081 434.653 323.622 437.674 327.149 439.688C330.507 441.702 332.018 442.876 332.69 443.38C333.865 444.722 324.126 449.254 313.212 448.247Z" fill="url(#paint7_linear_36_2416)"/>
<path d="M106.673 200.712C90.8888 215.984 78.6308 235.283 69.0595 255.086C43.704 307.613 37.4911 364.84 37.4911 364.84C8.77717 351.75 0.213379 332.115 0.213379 332.115C28.7593 244.849 106.673 200.712 106.673 200.712Z" fill="url(#paint8_linear_36_2416)"/>
<path d="M185.426 313.152C185.426 313.152 169.81 352.422 167.123 358.967C166.788 359.806 166.452 360.477 166.284 361.316C164.437 366.854 164.94 371.721 164.94 380.28C164.94 383.133 163.429 387.328 161.414 391.86C162.925 380.616 146.469 359.974 146.469 359.974C147.309 354.268 147.981 348.394 148.652 342.688C152.515 309.292 158.224 280.595 158.224 280.595L185.426 313.152Z" fill="#FFA92E"/>
<path d="M249.235 364.84C244.701 369.371 250.914 392.53 251.25 393.705L251.082 393.537C242.518 380.783 232.611 366.015 226.566 356.953C223.712 352.757 220.689 348.058 217.499 343.191C209.439 330.941 201.043 318.354 197.684 313.319C196.677 311.809 196.173 310.97 196.173 310.97C196.173 310.97 196.173 310.97 196.173 310.802C197.181 308.956 213.637 277.909 226.566 271.868C226.566 271.868 229.421 282.776 233.115 296.202C238.656 316.508 245.709 342.856 247.22 347.555C248.899 353.261 256.288 359.47 262.165 366.854C261.661 366.183 253.769 360.309 249.235 364.84Z" fill="url(#paint9_linear_36_2416)"/>
<path d="M226.734 271.7C223.711 274.049 220.353 277.909 216.827 282.44C207.255 295.362 197.684 313.151 197.684 313.151H185.258L158.056 280.594V280.259L160.071 266.162L160.239 265.491C173.336 273.714 188.952 273.546 201.546 271.196C214.98 268.679 225.223 263.645 225.223 263.645L225.391 264.484L225.558 265.155L225.726 266.497L226.398 270.357L226.566 271.029V271.196L226.734 271.7Z" fill="#009793"/>
<path d="M161.078 190.476C161.078 190.476 164.605 193.161 165.948 193.161C167.291 193.161 189.624 179.735 189.624 179.735L199.867 168.156C199.867 168.156 169.306 185.273 161.078 190.476Z" fill="#FF8527"/>
<path d="M222.368 170.001L220.857 176.211L218.17 186.28C218.17 186.28 217.163 187.119 215.819 188.126C213.972 189.636 211.789 191.482 210.95 192.321C208.767 194.503 201.379 229.577 200.539 230.584C199.531 231.591 181.061 230.416 180.557 229.242C179.549 226.724 189.288 192.321 189.288 190.979C189.288 190.307 189.288 187.79 189.456 185.273C189.624 182.588 189.624 179.903 189.624 179.903L192.143 177.05L194.662 174.197L199.196 168.994L199.699 168.323L200.035 168.491L208.263 172.351L218.842 168.323L220.185 168.994L222.368 170.001Z" fill="#FFA92E"/>
<path d="M266.866 249.045C266.195 249.716 265.691 250.22 265.019 250.723C263.172 252.402 261.157 253.744 259.31 254.919C250.914 260.289 236.305 267.505 236.305 267.505L229.253 263.646C229.589 263.31 235.634 256.765 240.503 251.898C245.541 246.864 251.586 234.277 251.586 232.431C251.586 231.256 245.373 224.544 237.481 217.831C234.458 215.313 231.268 212.796 227.91 210.614C225.727 209.104 223.376 207.762 221.193 206.587H221.025C221.025 206.587 218.338 198.867 218.002 189.301C218.002 188.294 218.002 187.288 218.002 186.113V185.945C218.17 182.756 218.506 179.4 219.514 176.211C220.185 174.03 221.025 171.848 222.2 169.834C222.536 170.17 224.551 171.848 227.574 174.701C230.092 177.05 233.451 180.071 237.145 183.763C240.503 187.12 244.365 190.98 248.228 195.175C249.067 196.014 249.571 196.685 249.907 197.189C251.082 198.364 252.09 199.706 253.265 200.881C253.601 201.384 254.105 201.888 254.441 202.391C259.142 207.929 262.836 212.964 266.027 217.159C266.531 217.831 267.034 218.502 267.37 219.005C272.744 226.893 275.598 232.263 276.102 234.613C277.109 237.633 272.576 243.843 266.866 249.045Z" fill="url(#paint10_linear_36_2416)"/>
<path d="M250.746 198.027C250.746 198.027 248.228 199.537 245.709 200.712C243.694 201.719 241.511 202.558 240.503 202.558C239.496 202.558 233.955 198.53 228.749 194.503C226.062 192.489 223.544 190.475 221.529 188.797C219.514 187.119 218.002 185.944 218.002 185.944V185.776C217.834 181.916 218.338 178.56 219.178 176.042C220.353 172.183 222.032 169.833 222.2 169.665C223.879 170.504 225.895 172.183 228.245 174.364C235.13 180.574 244.198 190.475 248.395 195.174C249.235 196.013 249.739 196.684 250.075 197.188C250.578 197.859 250.746 198.027 250.746 198.027Z" fill="url(#paint11_linear_36_2416)"/>
<path d="M201.714 179.063C201.714 179.063 216.491 178.056 224.887 176.882C233.451 175.707 236.137 173.693 236.137 173.693L235.466 172.183L201.714 179.063Z" fill="#C90060"/>
<path d="M228.413 174.7C228.245 174.7 228.077 174.7 227.742 174.868C225.895 175.203 224.047 175.539 222.032 175.875C221.529 175.875 221.193 176.042 220.689 176.042C220.353 176.042 220.017 176.21 219.514 176.21C219.514 176.21 219.346 176.21 219.178 176.21C211.957 177.385 204.401 178.392 201.547 178.895C200.875 179.063 200.539 179.063 200.371 179.063L201.211 178.727L201.547 178.56C204.905 176.881 214.476 172.35 219.178 169.497C219.514 169.33 219.85 169.162 220.185 168.826C224.551 165.805 222.536 163.959 222.368 163.792C223.04 164.127 233.619 170.169 235.634 172.182C236.305 172.854 233.115 173.861 228.413 174.7Z" fill="url(#paint12_linear_36_2416)"/>
<path d="M201.714 178.561L201.378 178.728L200.539 179.064C200.539 179.064 198.02 178.225 194.494 177.218C193.822 177.05 193.15 176.882 192.311 176.715C192.143 176.715 192.143 176.714 191.975 176.547C190.464 176.211 188.617 175.708 186.938 175.372C186.77 175.372 186.77 175.372 186.602 175.372C181.228 174.197 175.351 173.526 170.817 173.19C157.888 172.183 137.402 181.413 135.891 181.749C136.562 181.413 141.768 178.057 158.224 172.687C166.452 170.002 176.862 168.156 185.426 166.142C195.165 163.792 202.722 162.282 202.722 162.282C202.722 162.282 200.539 164.631 199.195 168.156V168.324V168.491C199.028 168.827 199.028 169.33 198.86 169.834C198.692 170.505 198.692 171.176 198.692 172.016C198.692 177.554 201.714 178.561 201.714 178.561Z" fill="url(#paint13_linear_36_2416)"/>
<path opacity="0.2" d="M282.147 68.3023C282.147 68.3023 267.37 78.875 250.914 72.4978C238.824 67.7989 229.253 58.9044 222.032 53.5342L227.573 48.6674C233.283 52.3594 251.754 55.0446 251.754 55.0446C247.892 47.3249 231.939 37.5913 231.939 37.5913C231.939 37.5913 245.876 44.3041 254.608 51.856C263.34 59.4079 272.743 61.0861 272.743 61.0861C272.743 57.2262 266.362 47.8283 266.362 47.8283L275.262 53.5342C271.4 42.2903 257.127 30.7107 256.119 29.8716C257.463 30.5429 280.132 43.465 282.147 68.3023Z" fill="#5C1B12"/>
<path opacity="0.2" d="M255.952 29.7046C254.608 30.0403 194.326 45.9832 180.053 55.0454C179.381 54.542 163.933 41.7877 145.294 33.5645C146.302 33.9001 166.62 41.6199 175.016 45.6475L171.321 41.7877H193.822C193.822 41.7877 177.199 30.0403 167.963 26.6839C169.81 27.1873 199.364 35.2427 205.409 38.5991L197.349 32.8932L221.193 36.4174L217.835 32.8932L227.91 35.7462C227.91 35.7462 216.659 21.1458 207.592 15.9434C208.767 16.6147 228.077 26.0126 231.94 32.7254C231.94 32.7254 239.16 32.0541 242.183 27.1873C245.037 22.4884 234.123 16.279 233.451 15.9434C233.787 15.7756 244.869 18.6285 255.952 29.7046Z" fill="#5C1B12"/>
<path d="M196.005 43.4647C196.005 43.4647 186.602 46.8211 180.053 55.0442C180.053 55.0442 202.05 47.4923 217.666 51.3522C217.666 51.3522 221.529 44.975 218.338 41.7865C214.98 38.4301 199.531 41.7865 196.005 43.4647Z" fill="#5C1B12"/>
<path d="M226.902 49.3391C223.04 53.199 215.987 58.2336 203.897 62.2612C204.569 61.9256 215.652 55.045 218.002 47.9966C218.338 47.1575 218.506 46.3184 218.506 45.3114C218.506 43.8011 217.667 42.6263 216.323 42.1229C210.95 39.4377 197.349 42.962 196.173 43.2976C197.181 42.962 206.416 39.4377 215.484 39.4377C226.398 39.4377 229.421 41.7872 230.596 42.962C230.932 43.6332 230.092 46.1505 226.902 49.3391Z" fill="url(#paint14_linear_36_2416)"/>
<path d="M226.902 49.3383L218.002 47.9958C218.338 47.1567 218.506 46.3176 218.506 45.3106C218.506 43.8003 217.667 42.6255 216.323 42.1221C216.323 42.1221 228.581 43.129 230.428 43.129C230.932 43.6325 230.092 46.1497 226.902 49.3383Z" fill="#FFCCB3"/>
<path d="M269.049 40.2766C269.049 40.2766 269.553 44.8077 254.273 45.8147C238.992 46.8216 224.047 55.0448 224.047 55.0448L227.07 57.3942C227.07 57.3942 236.473 47.1572 251.754 49.3389C271.064 52.024 273.247 45.1434 273.247 45.1434L269.049 40.2766Z" fill="#FFCCB3"/>
<path d="M185.09 20.4744C188.113 20.81 190.8 21.3135 192.983 21.4813C187.945 22.8238 181.564 24.6699 176.023 26.6837C166.787 30.2079 162.086 42.291 162.086 42.291H161.918L152.85 37.2564L152.682 37.0885C152.682 37.0885 163.261 27.355 173 23.6629C176.359 22.3204 180.557 21.3135 185.09 20.4744Z" fill="#FFCCB3"/>
<path d="M236.641 14.0964C236.641 14.0964 236.641 16.7816 230.596 19.4667C224.887 21.984 209.774 18.9632 202.05 19.6345C201.378 19.131 200.707 18.6276 200.035 18.1241C203.561 17.6207 206.92 17.285 209.606 17.1172C219.178 16.1103 223.544 11.0757 223.544 11.0757L236.641 14.0964Z" fill="#FFCCB3"/>
<path opacity="0.5" d="M233.954 129.053C236.087 129.053 237.816 128.076 237.816 126.872C237.816 125.667 236.087 124.69 233.954 124.69C231.821 124.69 230.092 125.667 230.092 126.872C230.092 128.076 231.821 129.053 233.954 129.053Z" fill="#DA6951"/>
<path opacity="0.5" d="M223.208 130.731C224.691 130.731 225.894 130.055 225.894 129.221C225.894 128.386 224.691 127.71 223.208 127.71C221.724 127.71 220.521 128.386 220.521 129.221C220.521 130.055 221.724 130.731 223.208 130.731Z" fill="#DA6951"/>
<path opacity="0.5" d="M160.407 135.095C160.407 135.767 159.399 136.438 158.224 136.438C157.048 136.438 156.041 135.934 156.041 135.095C156.041 134.424 157.048 133.753 158.224 133.753C159.399 133.753 160.407 134.424 160.407 135.095Z" fill="#DA6951"/>
<path opacity="0.5" d="M166.787 131.235C166.787 132.074 165.108 132.745 162.925 132.745C160.91 132.745 159.063 132.074 159.063 131.235C159.063 130.396 160.742 129.725 162.925 129.725C165.108 129.725 166.787 130.396 166.787 131.235Z" fill="#DA6951"/>
<path opacity="0.5" d="M158.224 129.893C158.873 129.893 159.399 129.592 159.399 129.221C159.399 128.85 158.873 128.55 158.224 128.55C157.575 128.55 157.048 128.85 157.048 129.221C157.048 129.592 157.575 129.893 158.224 129.893Z" fill="#DA6951"/>
<path opacity="0.5" d="M166.787 129.389C167.437 129.389 167.963 129.089 167.963 128.718C167.963 128.347 167.437 128.046 166.787 128.046C166.138 128.046 165.612 128.347 165.612 128.718C165.612 129.089 166.138 129.389 166.787 129.389Z" fill="#DA6951"/>
<path opacity="0.5" d="M216.155 129.389C216.805 129.389 217.331 129.089 217.331 128.718C217.331 128.347 216.805 128.046 216.155 128.046C215.506 128.046 214.98 128.347 214.98 128.718C214.98 129.089 215.506 129.389 216.155 129.389Z" fill="#DA6951"/>
<path opacity="0.5" d="M238.32 122.508C238.32 122.844 237.817 123.18 237.145 123.18C236.473 123.18 235.969 122.844 235.969 122.508C235.969 122.172 236.473 121.836 237.145 121.836C237.817 121.836 238.32 122.172 238.32 122.508Z" fill="#DA6951"/>
<path d="M266.866 249.045C264.012 245.689 262.333 240.486 262.333 234.612C262.333 228.235 264.515 222.529 267.706 219.341C273.079 227.228 275.934 232.599 276.438 234.948C277.109 237.633 272.575 243.843 266.866 249.045Z" fill="#009793"/>
<path d="M131.693 211.789C128.838 214.642 125.648 228.739 125.648 228.739C124.472 225.214 124.136 222.529 124.136 221.522C124.136 220.348 125.144 217.663 131.693 211.789Z" fill="#009793"/>
<path d="M266.195 415.354L269.049 419.382L278.621 414.515L276.941 409.984L266.195 415.354Z" fill="#009793"/>
<path d="M134.883 414.684L145.798 417.704L147.477 414.684L136.898 410.152L134.883 414.684Z" fill="#009793"/>
<path d="M160.407 265.492L162.254 255.255C162.254 255.255 191.639 266.498 223.88 252.905L225.391 263.646C225.391 263.813 188.953 282.945 160.407 265.492Z" fill="#FFA92E"/>
<path d="M176.695 155.57C165.612 151.039 155.537 144.326 154.194 139.795C154.026 139.123 153.858 138.452 153.858 137.613C153.69 135.431 154.026 133.25 154.53 130.9C155.201 128.047 156.209 125.194 157.048 122.341C156.377 127.544 156.377 133.417 158.392 138.116C161.078 145.165 176.023 155.234 176.695 155.57Z" fill="#FFFFD8"/>
<path opacity="0.42" d="M254.776 202.726C251.754 202.223 248.731 201.551 245.709 200.88C243.19 200.209 240.671 199.37 238.152 198.531C234.962 197.356 231.771 196.181 228.749 194.838C226.23 193.664 223.879 192.489 221.361 191.314C220.185 190.811 219.178 190.14 218.002 189.468C217.163 189.133 216.491 188.629 215.651 188.126C210.446 185.105 205.744 182.084 201.546 179.063C201.378 179.063 201.21 178.896 201.21 178.728C199.363 177.385 197.516 176.043 195.837 174.868C195.501 174.532 194.998 174.197 194.662 174.029C194.494 173.861 194.326 173.861 194.326 173.693C193.654 173.19 193.15 172.686 192.479 172.351L192.311 172.183C190.464 170.672 188.785 169.33 187.441 168.155C186.602 167.484 185.93 166.98 185.426 166.309C195.165 163.96 202.722 162.449 202.722 162.449C202.722 162.449 200.539 164.799 199.195 168.323C199.699 167.987 200.035 167.819 200.203 167.819L199.867 168.323L208.095 172.183L218.674 168.155L220.017 168.826C224.383 165.806 222.368 163.96 222.2 163.792C222.2 163.792 222.368 163.96 222.704 164.127C224.887 165.302 233.619 170.505 235.466 172.351C236.305 173.022 236.809 177.889 237.313 184.098C240.671 187.454 244.533 191.314 248.395 195.51C249.235 196.349 249.739 197.02 250.074 197.524C251.25 198.698 252.257 200.041 253.433 201.216C253.937 201.719 254.272 202.223 254.776 202.726Z" fill="#AE004F"/>
<path opacity="0.24" d="M233.283 296.034C231.1 298.552 227.07 304.425 222.368 317.515C219.346 325.906 218.002 335.136 217.666 343.024C209.606 330.773 201.211 318.186 197.852 313.152H185.426C185.426 313.152 169.81 352.422 167.123 358.967C166.787 359.806 166.452 360.477 166.284 361.316C159.735 341.849 158.392 280.595 158.392 280.595C175.855 292.678 197.516 288.482 209.271 271.7C223.04 252.233 220.185 203.062 220.185 203.062L221.193 204.74C220.689 224.039 221.696 243.339 226.734 271.7C226.734 271.7 229.589 282.609 233.283 296.034Z" fill="#AE004F"/>
<path d="M106.673 200.712C90.8888 215.984 78.6308 235.283 69.0595 255.086C24.3935 279.588 0.885049 330.437 0.213379 332.115C28.7593 244.849 106.673 200.712 106.673 200.712Z" fill="#FFFFD8"/>
<path opacity="0.41" d="M313.212 448.246C302.297 447.239 274.758 440.526 272.911 438.68C271.232 437.002 270.728 423.912 269.217 419.717C270.057 421.731 274.255 432.639 276.606 434.821C279.124 437.338 298.267 443.547 310.525 443.547C317.913 443.547 323.622 441.366 327.149 439.52C330.507 441.533 332.018 442.708 332.69 443.212C333.865 444.722 324.126 449.253 313.212 448.246Z" fill="#52004F"/>
<path opacity="0.41" d="M145.798 417.704C144.454 423.242 143.783 437.843 142.607 439.017C141.096 440.528 125.312 442.374 116.244 445.395C107.345 448.415 89.5454 450.429 89.5454 447.744C89.5454 447.744 98.9488 447.073 108.688 444.052C118.427 440.864 136.898 437.843 139.417 435.493C141.936 432.976 145.798 417.704 145.798 417.704Z" fill="#52004F"/>
<path d="M251.082 393.37C251.082 393.37 240.503 371.385 244.869 362.155C248.059 355.442 258.638 362.323 258.638 362.323L262.332 366.518C262.332 366.518 255.28 361.82 250.578 365.512C244.701 370.378 251.082 393.37 251.082 393.37Z" fill="#009793"/>
<path d="M145.966 362.826L147.141 354.939C147.141 354.939 162.925 373.231 162.925 387.999L161.246 391.859C161.246 391.859 158.728 380.28 145.966 362.826Z" fill="#009793"/>
<path opacity="0.5" d="M213.076 234.725C215.16 215.56 207.581 199.018 196.15 197.777C184.718 196.536 173.762 211.065 171.679 230.23C169.595 249.395 177.174 265.937 188.605 267.178C200.037 268.419 210.993 253.89 213.076 234.725Z" fill="#FFFFD8"/>
<path d="M154.362 301.74C154.362 327.584 143.111 411.997 141.096 413.843C139.249 415.689 118.595 426.43 116.412 427.772C125.48 421.563 133.708 415.857 134.883 414.683C137.234 412.333 142.44 387.496 146.302 360.141C147.141 354.435 147.813 348.562 148.485 342.856C150.332 327.248 152.515 312.816 154.362 301.74Z" fill="#FFFFD8"/>
<path d="M270.225 424.584C269.889 422.57 269.553 420.892 269.217 419.717C269.217 419.55 269.049 419.382 269.049 419.382C268.881 419.046 268.713 418.71 268.545 418.71C267.538 417.704 259.982 406.627 251.082 393.537C242.518 380.783 232.611 366.015 226.566 356.953C225.726 355.61 224.887 354.268 223.879 352.925C223.879 352.925 264.348 406.124 267.706 412.165C271.064 418.207 270.225 424.081 270.225 424.584Z" fill="#FFFFD8"/>
<path d="M135.891 181.917C135.891 181.917 152.85 174.365 169.474 172.351C188.953 170.001 200.539 179.232 200.539 179.232C200.539 179.232 170.65 166.309 135.891 181.917Z" fill="#C90060"/>
<path opacity="0.41" d="M229.253 263.645C229.589 263.309 235.634 256.764 240.503 251.897C245.541 246.863 251.586 234.276 251.586 232.43C251.586 231.256 245.373 224.543 237.481 217.83C234.458 215.313 231.268 212.795 227.909 210.614C237.817 216.655 255.28 228.235 259.31 235.451C264.683 245.352 230.26 263.141 229.253 263.645Z" fill="#52004F"/>
<path opacity="0.41" d="M191.807 176.714C191.807 176.714 168.803 188.629 149.66 200.712C132.364 211.62 124.136 221.522 124.136 221.522C124.136 220.347 125.144 217.662 131.693 211.788C135.387 208.6 140.76 204.236 148.652 198.866C152.682 196.013 156.88 193.328 161.246 190.643C161.414 190.643 161.582 190.475 161.582 190.307C162.086 189.972 162.422 189.804 162.925 189.468C163.597 189.132 164.269 188.629 165.108 188.126C172.833 183.427 180.221 179.063 186.434 175.539L191.807 176.714Z" fill="#52004F"/>
<path opacity="0.41" d="M226.734 271.7C226.734 271.7 219.01 265.155 216.995 251.058C214.98 236.793 221.193 206.586 221.193 206.586C221.193 210.11 221.193 213.634 221.193 217.326C221.193 233.94 224.047 254.079 225.727 264.651L225.895 265.323C225.895 265.826 226.062 266.162 226.062 266.665C226.398 268.343 226.566 269.518 226.734 270.525C226.734 270.693 226.734 270.861 226.902 271.196V271.364L226.734 271.7Z" fill="#52004F"/>
<path d="M237.649 271.701C237.649 271.701 239.16 275.393 240.503 279.421C241.847 283.449 238.992 288.148 238.992 288.148L236.305 287.477L235.802 278.918L237.649 271.701Z" fill="#DA6951"/>
<path opacity="0.24" d="M226.734 271.701C226.734 271.701 222.2 287.141 226.734 300.231C231.268 313.321 239.16 318.02 239.16 318.02L226.734 271.701Z" fill="#AE004F"/>
<path d="M228.749 265.491L229.421 263.813L236.473 267.673C236.473 267.673 238.992 273.211 238.992 276.399C238.992 279.588 237.817 281.434 237.817 281.434L236.977 286.804C236.977 286.804 241.679 288.315 241.679 289.657C241.679 290.832 239.999 291.168 238.992 291.168C237.984 291.168 234.29 290.161 234.29 290.161L230.932 286.972L228.749 265.491Z" fill="#F08364"/>
<path d="M228.749 265.492C228.749 265.492 225.559 274.89 225.559 276.903C225.559 278.917 226.734 291.168 228.749 292.511C230.092 293.35 237.145 291.839 240.503 291.168C241.175 289.154 232.947 288.315 232.947 288.315C232.947 288.315 234.458 280.428 234.458 277.407C234.458 274.386 230.932 265.492 228.749 265.492Z" fill="url(#paint15_linear_36_2416)"/>
<path d="M167.963 90.6236C167.963 90.6236 173.336 97.8399 175.351 107.238C175.351 107.238 172.497 92.4696 169.642 89.6167L167.963 90.6236Z" fill="#DA6951"/>
<path d="M153.522 86.4274L152.85 77.1973C152.85 77.1973 166.62 81.2249 171.321 92.9723C171.153 92.9723 164.437 86.4274 153.522 86.4274Z" fill="#701B08"/>
<path d="M186.098 96.8323C182.404 96.8323 143.783 84.9171 143.783 84.9171C143.783 84.9171 141.6 84.9171 140.424 84.9171C140.928 89.9517 147.645 118.145 154.194 125.53C161.582 133.753 178.877 122.677 183.915 117.474C189.12 112.44 207.927 132.746 223.376 132.41C248.059 132.074 265.523 84.7493 265.523 84.7493C265.523 84.7493 263.508 84.4136 262.164 84.7493C251.754 87.0987 205.912 96.4967 186.098 96.8323ZM180.053 111.768C179.213 119.152 168.299 129.222 160.071 123.516C151.843 117.978 147.645 97.3358 152.682 93.6437C155.873 91.2942 181.396 98.6783 180.053 111.768ZM226.566 127.711C214.476 130.564 196.341 118.145 199.028 107.069C201.714 96.161 243.358 89.2804 247.22 98.5105C251.922 110.258 238.656 124.858 226.566 127.711Z" fill="#007974"/>
<path d="M227.741 91.2932C211.453 93.9783 193.318 96.6634 182.74 96.8312C179.045 96.8312 140.424 84.916 140.424 84.916C140.424 84.916 142.271 104.047 146.301 116.634C147.645 120.494 149.156 123.85 150.835 125.696C158.224 133.919 175.519 122.843 180.557 117.641C185.762 112.606 204.569 132.913 220.017 132.577C244.701 132.241 262.164 84.916 262.164 84.916C262.164 84.916 246.212 88.2724 227.741 91.2932ZM156.712 123.515C154.865 122.172 153.186 120.158 151.675 117.641C146.973 109.418 145.462 96.6634 149.324 93.6427C152.514 91.1254 178.038 98.5094 176.694 111.767C176.527 113.445 175.855 115.291 174.847 116.97C171.153 122.843 163.093 127.878 156.712 123.515ZM223.208 127.71C212.461 130.227 197.18 120.829 195.501 110.928C195.333 109.586 195.333 108.411 195.669 107.068C197.18 100.859 211.285 95.9921 223.879 94.6496C233.451 93.6427 242.182 94.6496 243.861 98.5094C248.563 110.257 235.298 124.857 223.208 127.71Z" fill="#009793"/>
<path d="M255.952 99.1807H271.4L266.53 110.928L249.571 110.425L255.952 99.1807Z" fill="#007974"/>
<path opacity="0.5" d="M227.742 91.2932C226.566 92.4679 225.223 93.4748 223.879 94.6496C211.286 95.9921 197.181 100.859 195.669 107.068C195.333 108.411 195.333 109.586 195.501 110.928C188.449 113.781 181.396 115.627 174.68 116.802C175.687 115.124 176.359 113.278 176.527 111.599C177.87 98.5094 152.347 91.1254 149.156 93.4748C145.294 96.3278 146.973 109.082 151.507 117.473C149.66 117.137 147.813 116.802 146.134 116.466C141.936 103.88 140.089 84.916 140.089 84.916C140.089 84.916 178.71 96.8312 182.404 96.8312C193.318 96.6634 211.454 93.9783 227.742 91.2932Z" fill="#FFFFD8"/>
<path d="M246.045 91.1259L252.09 97.5031L258.471 87.7695L246.045 91.1259Z" fill="#FFA92E"/>
<path d="M143.447 93.9789L148.484 89.6156L142.439 87.7695L143.447 93.9789Z" fill="#FFA92E"/>
<defs>
<linearGradient id="paint0_linear_36_2416" x1="162.253" y1="261.432" x2="162.253" y2="167.8" gradientUnits="userSpaceOnUse">
<stop stop-color="#40133E"/>
<stop offset="1" stop-color="#31145E"/>
</linearGradient>
<linearGradient id="paint1_linear_36_2416" x1="210.319" y1="160.615" x2="210.319" y2="34.2474" gradientUnits="userSpaceOnUse">
<stop stop-color="#FFBD8B"/>
<stop offset="1" stop-color="#FF8B6F"/>
</linearGradient>
<linearGradient id="paint2_linear_36_2416" x1="249.543" y1="31.1457" x2="249.543" y2="0" gradientUnits="userSpaceOnUse">
<stop stop-color="#611D27"/>
<stop offset="1" stop-color="#BF5726"/>
</linearGradient>
<linearGradient id="paint3_linear_36_2416" x1="205.192" y1="74.5245" x2="205.192" y2="8.71808" gradientUnits="userSpaceOnUse">
<stop stop-color="#611D27"/>
<stop offset="1" stop-color="#BF5726"/>
</linearGradient>
<linearGradient id="paint4_linear_36_2416" x1="158.207" y1="281.451" x2="158.207" y2="258.254" gradientUnits="userSpaceOnUse">
<stop stop-color="#FFBD8B"/>
<stop offset="1" stop-color="#FF8B6F"/>
</linearGradient>
<linearGradient id="paint5_linear_36_2416" x1="192.456" y1="313.139" x2="192.456" y2="168.166" gradientUnits="userSpaceOnUse">
<stop stop-color="#40133E"/>
<stop offset="1" stop-color="#43487E"/>
</linearGradient>
<linearGradient id="paint6_linear_36_2416" x1="137.46" y1="449.006" x2="137.46" y2="280.627" gradientUnits="userSpaceOnUse">
<stop stop-color="#40133E"/>
<stop offset="1" stop-color="#43487E"/>
</linearGradient>
<linearGradient id="paint7_linear_36_2416" x1="264.417" y1="448.394" x2="264.417" y2="271.722" gradientUnits="userSpaceOnUse">
<stop stop-color="#40133E"/>
<stop offset="1" stop-color="#43487E"/>
</linearGradient>
<linearGradient id="paint8_linear_36_2416" x1="53.4723" y1="364.829" x2="53.4723" y2="200.789" gradientUnits="userSpaceOnUse">
<stop stop-color="#F4618D"/>
<stop offset="1" stop-color="#D9006A"/>
</linearGradient>
<linearGradient id="paint9_linear_36_2416" x1="229.243" y1="393.613" x2="229.243" y2="271.722" gradientUnits="userSpaceOnUse">
<stop stop-color="#FFB131"/>
<stop offset="1" stop-color="#FFE538"/>
</linearGradient>
<linearGradient id="paint10_linear_36_2416" x1="247.313" y1="267.517" x2="247.313" y2="170.046" gradientUnits="userSpaceOnUse">
<stop stop-color="#40133E"/>
<stop offset="1" stop-color="#43487E"/>
</linearGradient>
<linearGradient id="paint11_linear_36_2416" x1="218.058" y1="186.372" x2="250.736" y2="186.372" gradientUnits="userSpaceOnUse">
<stop stop-color="#FFB131"/>
<stop offset="1" stop-color="#FFE538"/>
</linearGradient>
<linearGradient id="paint12_linear_36_2416" x1="200.434" y1="171.502" x2="235.664" y2="171.502" gradientUnits="userSpaceOnUse">
<stop stop-color="#F4618D"/>
<stop offset="1" stop-color="#D9006A"/>
</linearGradient>
<linearGradient id="paint13_linear_36_2416" x1="169.338" y1="181.865" x2="169.338" y2="162.479" gradientUnits="userSpaceOnUse">
<stop stop-color="#F4618D"/>
<stop offset="1" stop-color="#D9006A"/>
</linearGradient>
<linearGradient id="paint14_linear_36_2416" x1="213.291" y1="62.2997" x2="213.291" y2="39.4728" gradientUnits="userSpaceOnUse">
<stop stop-color="#611D27"/>
<stop offset="1" stop-color="#BF5726"/>
</linearGradient>
<linearGradient id="paint15_linear_36_2416" x1="233.01" y1="292.694" x2="233.01" y2="265.489" gradientUnits="userSpaceOnUse">
<stop stop-color="#FFBD8B"/>
<stop offset="1" stop-color="#FF8B6F"/>
</linearGradient>
</defs>
</svg>
