<svg width="435" height="465" viewBox="0 0 435 465" fill="none" xmlns="http://www.w3.org/2000/svg">
<g clip-path="url(#clip0_54_2158)">
<path d="M70.4508 273.805C75.9783 277.176 81.8869 279.799 88.1768 281.11C127.822 290.289 218.358 273.617 218.358 273.617C218.358 273.617 275.157 255.26 296.886 233.905C296.886 233.905 253.619 221.541 230.937 199.25C208.256 176.958 181 161.036 181 161.036C181 161.036 127.25 160.099 111.811 153.543C96.182 146.987 47.9598 180.33 40.9075 188.573C21.2756 211.988 40.1451 255.26 70.4508 273.805Z" fill="url(#paint0_linear_54_2158)"/>
<path opacity="0.38" d="M70.4508 273.805C67.5918 269.496 78.0749 245.519 125.725 218.357C178.141 188.385 231.128 199.437 231.128 199.437C208.446 177.146 181.19 161.224 181.19 161.224C181.19 161.224 127.441 160.287 112.002 153.731C96.3727 147.174 48.1504 180.518 41.0982 188.76C21.2756 211.988 40.1452 255.26 70.4508 273.805Z" fill="#9783AE"/>
<path opacity="0.5" d="M355.21 115.142C360.547 129.004 379.607 133.5 379.607 133.5C380.75 130.128 380.369 126.007 380.369 126.007C371.411 121.136 361.69 117.39 355.21 115.142Z" fill="#FFFFD8"/>
<path d="M371.03 123.946C370.839 124.508 371.983 125.445 373.889 126.194C375.604 126.756 377.32 126.943 377.51 126.381C377.701 125.819 376.557 124.883 374.651 124.133C372.936 123.571 371.411 123.384 371.03 123.946Z" fill="#FFFFD8"/>
<path d="M40.3358 147.549C42.2419 151.482 47.9599 153.73 55.7746 154.854C71.7851 156.728 95.6103 153.356 108.952 148.111C128.966 140.43 170.517 142.304 194.914 135.373C219.12 128.629 233.225 113.643 233.225 113.643C233.225 113.643 222.17 102.778 213.021 89.4785C204.253 76.7405 197.01 61.5673 202.728 51.6391C202.728 51.6391 209.781 38.1518 206.731 34.4054C203.681 30.6589 98.4693 19.2322 76.9314 31.7829C74.2629 33.2814 71.7851 35.904 69.1167 39.0885C59.7772 51.0772 50.8189 73.556 44.9103 95.0982C39.1922 117.764 36.5238 139.119 40.3358 147.549Z" fill="#00A9A4"/>
<path opacity="0.38" d="M40.3358 147.549C42.2418 151.483 47.9599 153.731 55.7746 154.854C63.7798 145.114 80.3622 130.315 113.717 116.079C149.36 100.905 188.243 93.2251 212.83 89.666C204.063 76.928 196.82 61.7548 202.538 51.8266C202.538 51.8266 209.59 38.3393 206.54 34.5929C203.491 30.8464 98.2787 19.4197 76.7408 31.9704C74.0723 33.4689 71.5945 36.0915 68.9261 39.276L48.5317 87.6054L44.9103 95.473C39.1922 117.764 36.5238 139.119 40.3358 147.549Z" fill="#9783AE"/>
<path d="M279.922 112.519C279.922 112.519 281.828 113.643 284.687 114.58C286.784 115.329 289.262 116.079 291.739 116.266C292.502 116.266 293.074 116.453 293.836 116.453L297.076 93.7871C296.886 93.7871 296.123 93.5997 294.98 93.4124C294.217 93.4124 293.455 93.2251 292.502 93.2251C290.405 93.2251 287.356 93.2251 283.544 93.7871C283.353 93.9744 275.92 101.655 279.922 112.519Z" fill="url(#paint1_linear_54_2158)"/>
<path opacity="0.42" d="M284.687 114.767C286.784 115.517 289.262 116.266 291.739 116.453L297.076 93.9744L294.98 93.5997L292.692 93.2251C292.692 93.2251 292.692 93.2251 292.502 93.4124C290.786 95.0983 282.591 104.652 284.687 114.767Z" fill="#AE004F"/>
<path d="M210.543 286.543C210.543 286.543 230.937 291.6 249.426 292.162C250.76 292.162 252.094 292.162 253.428 292.162C261.243 292.162 267.724 293.099 273.632 294.785C282.019 297.033 288.88 300.405 295.933 303.402C306.035 307.523 336.721 305.088 351.017 305.462C353.494 305.462 355.591 305.65 356.925 306.024C365.121 307.898 377.129 317.638 380.369 317.638C383.8 317.638 387.04 303.214 392.568 290.664C397.905 278.3 408.578 258.444 401.717 258.444C394.855 258.444 364.549 292.35 361.69 292.35C359.212 292.35 357.116 291.226 336.721 283.733C331.385 281.86 324.904 279.424 317.089 276.427C280.113 262.94 228.841 241.96 224.266 240.086L223.885 239.899L210.543 286.543Z" fill="url(#paint2_linear_54_2158)"/>
<path d="M336.721 283.545L351.207 305.462C353.685 305.462 355.782 305.65 357.116 306.024C365.312 307.898 377.32 317.638 380.56 317.638C383.991 317.638 387.231 303.214 392.758 290.664C394.092 287.667 395.617 284.482 397.142 280.923C402.288 269.871 407.244 258.257 401.907 258.257C395.045 258.257 364.74 292.162 361.881 292.162C359.212 292.35 357.116 291.226 336.721 283.545Z" fill="#542D45"/>
<path d="M210.543 286.543C210.543 286.543 233.987 292.35 253.428 292.35C261.243 292.35 267.724 293.286 273.632 294.972C257.05 263.127 223.313 247.954 223.313 247.954L210.543 286.543Z" fill="#FF8527"/>
<path d="M397.523 133.499C410.294 136.871 430.307 137.808 430.307 137.808C431.26 137.246 432.213 136.497 432.785 135.56C433.166 134.998 433.547 134.249 433.738 133.687C434.881 130.315 434.5 126.194 434.5 126.194C425.732 121.323 416.012 117.39 409.531 115.142C408.959 114.954 408.578 114.767 408.006 114.58C404.385 113.269 402.098 112.707 402.098 112.707L397.523 133.499Z" fill="url(#paint3_linear_54_2158)"/>
<path d="M325.095 158.414C325.095 158.414 317.28 155.416 315.183 153.356C313.087 151.295 310.609 144.552 310.609 144.552L327.954 136.122L336.912 140.618C336.912 140.618 331.956 159.537 325.095 158.414Z" fill="#BE4526"/>
<path d="M343.392 127.88L335.768 164.408C335.768 164.408 327.382 167.218 320.52 162.347L327.001 124.695L343.392 127.88Z" fill="#542D45"/>
<path d="M156.984 158.414L183.287 176.397C183.287 176.397 229.603 167.592 246.757 167.592C263.912 167.592 305.463 149.609 305.463 149.609L304.51 139.494C304.51 139.494 267.533 138.183 252.857 139.119H252.476C251.141 139.119 250.188 139.307 249.235 139.494C238.752 140.992 230.747 147.549 219.311 149.047C208.065 150.546 160.796 147.923 160.796 147.923L156.984 158.414Z" fill="url(#paint4_linear_54_2158)"/>
<path d="M152.41 159.725L142.498 153.356V143.615L164.608 141.367L152.41 159.725Z" fill="url(#paint5_linear_54_2158)"/>
<path d="M54.6309 83.2969C54.6309 83.2969 63.0174 116.266 73.1192 126.194C83.4117 136.309 113.717 147.549 127.631 147.549C130.872 147.549 134.493 147.361 138.305 146.8C141.736 146.425 145.167 145.676 148.788 144.926C162.321 141.929 174.901 136.684 176.807 132.188C179.094 126.569 176.807 115.329 175.854 108.773C175.663 107.274 175.472 106.15 175.472 105.214C175.472 101.093 181.762 67.749 181.19 52.2012C181.19 52.0139 181.19 52.0139 181.19 51.8266C181 49.0167 180.619 46.5815 180.047 45.2702C179.856 45.0829 177.378 42.0857 172.613 38.9012C169.564 36.8407 165.37 34.5928 160.415 33.0942C147.263 28.9731 79.7903 34.9675 79.7903 34.9675L74.8347 35.7167L54.6309 83.2969Z" fill="url(#paint6_linear_54_2158)"/>
<path d="M54.6309 83.2969C54.6309 83.2969 63.0174 116.266 73.1193 126.194C83.4118 136.309 113.717 147.549 127.631 147.549C130.872 147.549 134.493 147.361 138.305 146.8C137.352 146.8 101.138 149.984 83.6023 122.26C67.5918 96.9715 90.8452 63.4406 120.579 56.697C149.741 50.1406 179.856 52.2012 181.19 52.2012V51.8266L180.047 45.2702L172.613 38.9012C169.564 36.8407 165.37 34.5928 160.415 33.0942C147.263 28.9731 79.7903 34.9675 79.7903 34.9675L74.8347 35.7167L54.6309 83.2969Z" fill="#DA6945"/>
<path d="M50.4376 275.116C50.4376 275.116 45.2914 280.174 44.1478 281.672C43.1948 283.171 42.4324 290.851 40.5263 293.474C38.6203 296.096 29.0902 294.41 26.2312 294.785C23.3722 295.347 22.038 295.722 21.6568 295.347C21.085 294.972 21.4662 291.601 23.1816 289.353C24.897 287.105 33.0929 287.854 32.9023 286.73C32.7117 285.606 23.7534 283.546 17.0823 282.422C10.4113 281.11 3.74021 281.298 2.7872 280.548C1.64359 279.799 4.12143 277.739 6.78985 276.802C9.64888 275.678 9.64888 275.678 9.64888 275.678C9.64888 275.678 0.118771 276.427 0.690575 274.367C1.26238 272.306 4.88383 271.744 4.88383 271.744C4.88383 271.744 4.69322 270.995 5.64623 269.684C6.59924 268.372 18.7977 266.686 20.7038 267.248C22.6098 267.81 22.6098 267.81 22.6098 267.81C22.6098 267.81 17.8447 266.312 14.4139 265.563C10.9831 265.001 9.07706 263.315 9.07706 262.565C8.88646 262.003 17.2729 262.191 21.085 262.753C24.897 263.315 39.7639 270.62 41.2887 270.433C42.8135 270.246 45.1008 266.874 45.1008 266.874L50.4376 275.116Z" fill="#DA6945"/>
<path d="M160.796 107.087C161.94 109.709 168.611 110.646 173.376 109.147C174.138 108.96 174.901 108.211 175.663 107.274C179.094 102.217 181.381 88.9166 179.666 82.3602C178.713 78.9884 176.997 77.3025 175.091 77.1152C172.423 76.7405 169.373 78.8011 167.086 82.9222C162.702 89.6658 159.271 104.09 160.796 107.087Z" fill="#FFFFD8"/>
<path d="M176.807 106.15C176.807 106.15 173.566 111.208 164.036 109.335C164.036 109.335 173.376 113.456 176.807 106.15Z" fill="#3F1B08"/>
<path d="M161.749 114.58C161.749 114.58 158.89 116.079 151.075 116.079C143.261 116.079 135.827 113.643 135.827 113.643C135.827 113.643 135.637 117.39 138.305 118.139C140.973 119.076 144.595 120.2 145.738 120.387C146.691 120.762 147.644 123.384 147.644 123.384C147.644 123.384 156.984 120.762 159.462 119.263C162.13 117.577 161.749 114.58 161.749 114.58Z" fill="#DA6951"/>
<path d="M146.691 120.949C150.504 117.202 141.355 117.202 138.305 118.326L146.691 120.949Z" fill="#532722"/>
<path d="M146.12 123.946C146.12 123.946 155.459 123.197 160.415 120.012C165.37 116.828 164.608 113.831 164.036 113.269C163.464 112.707 159.462 108.96 152.219 108.398C152.219 108.398 158.318 109.709 161.94 113.269C161.94 113.269 161.558 116.453 158.509 118.888C155.269 121.511 146.12 123.946 146.12 123.946Z" fill="#8B3D22"/>
<path opacity="0.5" d="M140.402 113.268C140.402 114.205 142.879 115.142 145.738 115.142C148.788 115.142 151.075 114.392 151.075 113.268C151.075 112.332 148.597 111.395 145.738 111.395C142.879 111.583 140.402 112.332 140.402 113.268Z" fill="#FFFFD8"/>
<path d="M167.658 67.9363C167.658 67.9363 159.843 78.0517 157.556 89.1038C157.556 89.1038 160.987 71.6827 164.417 68.4982L167.658 67.9363Z" fill="#DA6951"/>
<path d="M181.381 64.5645L181.953 54.8237C181.953 54.8237 168.039 58.5702 162.702 72.4321C162.511 72.4321 168.23 64.5645 181.381 64.5645Z" fill="#3F1B08"/>
<path d="M167.658 92.1011C167.658 100.531 171.089 107.274 175.282 107.274C178.713 102.217 181 88.9166 179.284 82.3603C178.331 78.9885 176.616 77.3026 174.71 77.1152C170.898 77.6772 167.658 84.2335 167.658 92.1011Z" fill="#3F1B08"/>
<path d="M160.224 103.34C160.224 104.09 160.415 104.464 160.415 104.464C160.415 104.09 160.415 103.715 160.224 103.34C160.606 94.1616 165.371 85.1701 169.754 80.8616C171.66 78.9884 173.757 77.8644 175.091 78.2391C179.475 79.363 180.047 90.4151 180.047 90.4151C181.572 80.2997 178.141 74.4926 176.425 73.9307C174.519 73.556 170.898 74.4926 167.277 78.9884C166.133 80.487 164.799 82.3602 163.655 84.6081C159.652 92.101 160.034 100.531 160.224 103.34Z" fill="#3F1B08"/>
<path d="M166.514 96.9714C166.514 98.0954 167.467 99.032 168.611 99.032C169.754 99.032 170.707 98.0954 170.707 96.9714C170.707 95.8475 169.754 94.9109 168.611 94.9109C167.467 94.9109 166.514 95.8475 166.514 96.9714Z" fill="white"/>
<path d="M147.645 129.191C147.645 129.191 138.114 130.315 126.869 126.007C113.908 120.949 107.809 106.338 107.809 106.338L108.381 105.588C108.381 105.588 114.289 116.266 123.248 122.073C132.206 127.693 147.645 129.191 147.645 129.191Z" fill="#8B3D22"/>
<path d="M113.908 102.591C113.908 102.591 106.284 103.528 104.187 108.398C104.187 108.398 106.284 110.459 107.046 109.897C107.618 109.335 105.331 106.9 113.908 102.591Z" fill="#8B3D22"/>
<path d="M113.908 116.078C113.908 116.078 118.482 122.635 127.631 126.381C127.441 126.194 126.488 125.445 125.535 123.384C124.963 122.073 124.391 120.199 124.01 117.577C123.248 110.459 124.01 107.649 121.913 105.776C121.151 105.026 120.198 104.839 119.245 105.026C116.195 105.401 112.383 110.084 113.908 116.078Z" fill="#C20038"/>
<path d="M138.305 73.9306C138.305 73.9306 128.775 80.6743 126.678 80.6743C122.104 80.6743 113.908 72.2447 103.997 69.9968C94.0855 67.7489 87.0332 69.9968 87.0332 69.9968C87.0332 69.9968 96.3727 64.5645 103.997 64.5645C111.811 64.5645 127.25 74.4926 128.584 74.4926C129.919 74.4926 138.305 73.9306 138.305 73.9306Z" fill="#3F1B08"/>
<path d="M121.151 83.1096C121.151 83.1096 128.013 88.9166 129.728 93.2251L123.819 90.6026L121.151 83.1096Z" fill="#8B3D22"/>
<path d="M77.1219 35.1547C77.1219 35.1547 87.9862 47.8927 97.5163 47.8927C109.143 47.8927 79.7903 35.1547 79.7903 35.1547C79.7903 35.1547 132.587 48.642 135.827 45.4575C139.067 42.273 130.3 39.8378 130.3 39.8378C130.3 39.8378 157.365 51.8265 164.036 49.766C170.707 47.7054 153.553 35.1547 153.553 35.1547C153.553 35.1547 187.671 56.6969 194.914 53.6998C201.966 50.7026 173.566 30.659 173.566 30.659C173.566 30.659 99.6129 24.852 77.1219 35.1547Z" fill="url(#paint7_linear_54_2158)"/>
<path d="M74.6441 36.0913C74.6441 36.0913 79.0279 51.6392 70.8321 66.4377C62.4456 81.2362 59.2054 87.7926 59.2054 91.9137C59.2054 96.0348 60.5396 102.591 60.5396 102.591L54.6309 95.0982C54.6309 95.0982 50.4377 77.4898 50.4377 69.4349C50.2471 61.1926 70.2603 37.5899 74.6441 36.0913Z" fill="url(#paint8_linear_54_2158)"/>
<path d="M63.9704 102.404C63.9704 102.404 50.4376 85.1702 36.5237 86.2941C19.5602 87.6054 32.5211 119.825 48.7222 124.321C64.9234 128.817 66.6388 115.142 66.6388 115.142L63.9704 102.404Z" fill="#DA6945"/>
<path d="M57.2993 105.588C59.0147 106.712 60.7301 107.836 62.4456 109.335C62.4456 109.335 57.4899 101.842 49.4846 98.0954C41.2888 94.3489 36.9049 95.6602 35.7613 97.1588C34.6177 98.6574 35.3801 104.464 37.6673 107.836C37.6673 107.836 37.4767 100.905 39.1922 99.7813C40.3358 99.032 46.6256 100.156 53.4873 103.528C53.4873 103.528 56.1557 109.897 54.2497 114.58C53.1061 117.577 47.0068 116.64 47.0068 116.64C47.0068 116.64 53.1061 119.825 55.9651 116.453C58.2523 113.456 57.6805 107.462 57.2993 105.588Z" fill="#BE4526"/>
<path d="M120.579 112.519C120.579 114.018 120.96 115.142 121.342 115.142C121.723 115.142 122.104 114.018 122.104 112.519C122.104 111.021 121.723 109.897 121.342 109.897C120.96 109.897 120.579 111.021 120.579 112.519Z" fill="#FFFFD8"/>
<path opacity="0.35" d="M185.002 148.86L218.548 170.402L183.287 176.397L154.125 158.975L160.796 147.736L185.002 148.86Z" fill="url(#paint9_linear_54_2158)"/>
<path d="M129.919 93.4124C129.919 93.4124 124.391 87.6054 117.529 86.1068C110.668 84.6082 101.138 84.6082 99.9941 84.6082C98.8505 84.4209 94.0855 81.7983 94.0855 81.7983L98.2787 87.7927C98.0881 87.7927 114.861 86.6687 129.919 93.4124Z" fill="#8B3D22"/>
<path d="M25.0876 77.1151C25.0876 86.1066 33.2835 120.012 37.6674 137.246C39.1922 143.428 40.3358 147.549 40.3358 147.549C40.3358 147.549 38.6204 126.194 57.6805 108.398C77.3125 89.8531 72.5474 43.9589 88.9392 37.5899C105.331 31.2209 197.582 33.4688 203.872 35.342C209.209 36.8406 204.253 48.4546 203.11 51.0771C204.444 48.4546 210.162 37.4025 210.162 34.4054C210.162 31.4082 130.681 -0.624108 85.5084 0.499832C80.5527 0.687156 75.7877 1.24913 71.785 2.18574C62.4456 4.62095 54.8215 9.30403 48.9128 15.2984C29.0903 34.78 25.0876 67.7489 25.0876 77.1151Z" fill="url(#paint10_linear_54_2158)"/>
<path d="M148.788 11.1775C148.788 11.1775 63.2079 -3.80838 27.1842 59.6942L30.2338 47.8929C30.2338 47.8929 49.294 2.74794 129.919 6.30708L148.788 11.1775Z" fill="url(#paint11_linear_54_2158)"/>
<path d="M113.908 116.078C113.908 116.078 118.482 122.635 127.631 126.381C127.441 126.194 126.488 125.445 125.535 123.384L126.678 125.257C126.297 125.07 118.482 120.2 116.767 115.329C115.052 110.271 119.626 105.026 119.626 105.026C116.195 105.401 112.383 110.084 113.908 116.078Z" fill="#A71740"/>
<path d="M144.404 146.238L145.167 156.54L134.302 146.612L144.404 146.238Z" fill="#DA6945"/>
<path d="M153.553 158.601L129.347 128.817C129.347 128.817 119.054 125.445 83.2212 135.747L128.584 145.676L152.41 159.725L153.553 158.601Z" fill="url(#paint12_linear_54_2158)"/>
<path d="M83.2211 135.747C83.2211 135.747 91.7982 141.742 99.8034 148.111C103.997 151.295 107.999 154.667 110.477 157.102C111.24 157.852 111.811 158.601 112.574 159.725C115.814 164.595 119.435 173.212 122.485 182.391C122.866 183.702 123.438 185.201 123.819 186.512C126.488 195.504 128.775 204.682 129.537 211.613C130.681 219.668 131.634 241.585 132.015 256.009C132.206 262.753 132.396 267.81 132.396 268.934C132.396 270.246 139.639 276.615 148.407 283.171C157.556 289.915 168.42 297.033 174.901 299.655C176.997 300.592 178.713 300.967 179.666 300.779H179.856C187.099 299.093 206.35 290.289 210.352 286.355C213.593 283.171 221.407 261.629 223.123 247.767C223.504 244.582 223.695 241.772 223.313 239.712C222.742 235.965 219.883 229.409 215.88 221.916C207.875 207.118 195.295 188.385 186.718 179.956C173.757 167.218 158.128 157.102 158.128 157.102L168.801 139.494L164.227 141.18L152.41 159.725L125.725 128.816C108.952 128.816 83.2211 135.747 83.2211 135.747Z" fill="url(#paint13_linear_54_2158)"/>
<path d="M41.0983 271.557C41.0983 271.557 41.0983 272.681 41.4795 274.179C41.8607 275.491 42.4325 277.364 43.3855 278.675C44.1479 279.799 45.1009 280.736 46.6257 281.11C46.6257 281.11 54.0592 273.43 63.0175 263.127C72.9287 251.888 84.746 237.651 90.0829 227.723C95.9915 217.046 105.903 203.371 113.527 193.818C117.911 188.198 121.342 184.077 122.676 182.578C123.057 182.204 123.248 181.829 123.248 181.829C123.248 181.829 120.579 168.716 114.67 157.852C113.336 155.229 111.811 152.794 110.096 150.733C110.096 150.733 104.378 146.987 99.8035 148.298C98.4693 148.673 97.3258 149.422 96.3727 150.733C94.2761 153.918 90.2735 166.843 85.8897 180.143C81.5058 193.63 76.5502 207.305 72.7381 211.052C71.4039 212.363 70.0697 213.674 68.7355 214.985L68.5449 215.173C62.0644 221.542 55.0122 229.409 51.0095 243.458C45.6727 260.505 41.0983 271.557 41.0983 271.557Z" fill="url(#paint14_linear_54_2158)"/>
<path d="M342.249 133.5C342.249 133.5 346.442 136.684 347.204 138.557C347.776 140.43 345.489 143.428 345.489 144.739C345.489 146.05 345.68 149.422 344.345 150.921C342.821 152.419 343.583 154.292 342.439 155.229C341.296 156.353 341.486 158.975 340.343 160.099C339.009 161.411 326.81 161.411 322.617 157.29C318.424 153.168 325.857 153.918 325.857 153.918C325.857 153.918 322.998 151.67 322.998 149.609C322.998 147.549 325.285 146.612 325.285 146.612C325.285 146.612 324.523 144.739 324.523 141.742C324.523 138.745 335.387 136.497 335.387 136.497C335.387 136.497 341.677 136.497 341.677 136.122C341.677 135.747 342.249 133.5 342.249 133.5Z" fill="#DA6945"/>
<path d="M365.693 132.188L341.296 136.122L343.392 128.816L365.693 132.188Z" fill="#542D45"/>
<path d="M304.319 139.307C304.319 139.307 306.797 139.869 307.369 139.307C307.941 138.745 318.424 129.191 322.045 127.88C325.857 126.569 345.298 141.18 345.298 143.053C345.298 144.926 339.39 147.174 333.481 143.802C328.716 141.18 327.382 139.119 327.382 139.119C327.382 139.119 327.573 142.866 322.236 144.552C316.899 146.05 313.468 146.612 313.468 148.486C313.468 150.359 315.183 153.169 315.183 153.169L305.272 149.048L304.319 139.307Z" fill="#DA6945"/>
<path d="M292.692 120.387C292.692 120.387 365.693 135.56 395.427 136.122C395.427 136.122 398.476 133.687 400.573 127.88C402.098 123.946 403.051 118.326 402.098 111.208C402.098 111.208 360.737 92.2885 299.554 89.104C299.554 89.104 298.41 90.9772 297.076 93.9744C296.504 95.2857 295.742 96.9716 295.17 98.6575C292.502 105.214 290.405 114.018 292.692 120.387Z" fill="url(#paint15_linear_54_2158)"/>
<path d="M314.993 146.987C314.993 146.987 321.283 145.114 323.951 142.304C326.619 139.681 327.191 138.557 327.191 138.557C327.191 138.557 334.053 144.739 337.865 144.739C341.677 144.739 344.536 143.615 344.536 143.615C344.536 143.615 340.152 145.863 336.15 145.301C332.338 144.739 327.954 140.431 327.954 140.431C327.954 140.431 327.382 142.678 324.142 144.177C320.901 145.676 314.993 146.987 314.993 146.987Z" fill="#BE4526"/>
<path d="M123.819 186.699C126.488 195.691 128.775 204.87 129.537 211.801C130.681 219.856 131.634 241.773 132.015 256.196L132.206 257.32C132.206 257.32 168.611 244.582 160.605 221.916C152.791 199.437 123.819 186.699 123.819 186.699Z" fill="url(#paint16_linear_54_2158)"/>
<path d="M187.099 179.956C187.48 180.892 197.201 211.613 216.261 221.916C208.256 207.118 195.676 188.385 187.099 179.956Z" fill="url(#paint17_linear_54_2158)"/>
<path d="M173.757 278.675L175.091 299.843C177.188 300.779 178.903 301.154 179.856 300.967C186.908 299.468 206.54 290.476 210.543 286.543C213.783 283.358 221.598 261.816 223.313 247.954C223.313 248.703 217.786 275.865 173.757 278.675Z" fill="#FFA92E"/>
<path d="M67.5919 463.189C69.6885 465.249 86.0802 465.624 98.6599 459.442C109.334 454.01 120.389 447.828 122.676 445.58C124.963 443.332 123.819 433.404 124.582 429.283C124.582 428.909 124.772 428.721 124.772 428.534C124.963 427.972 126.678 424.225 129.347 418.606C133.921 408.865 141.164 393.317 148.979 376.645C150.504 373.461 152.028 370.089 153.553 366.717C165.942 339.555 178.141 312.581 179.475 306.024C179.856 304.526 180.047 302.84 180.047 300.967C180.237 294.036 177.95 285.793 173.566 278.863C173.566 278.863 173.566 278.675 173.376 278.675C170.898 274.741 167.848 271.182 164.227 268.56C162.893 267.623 161.558 266.686 160.034 265.937C159.462 265.563 158.89 265.375 158.318 265.188C157.746 265.001 157.175 264.626 156.603 264.439C139.639 257.882 132.206 269.496 132.206 269.496C123.438 286.917 127.06 347.985 127.06 355.478C127.06 360.723 124.391 366.343 117.148 379.642C113.146 387.135 112.002 397.064 111.811 405.68C111.621 412.424 112.193 418.044 112.193 420.854C112.193 422.914 107.237 427.972 100.566 433.779C87.0332 445.768 66.2577 461.877 67.5919 463.189Z" fill="url(#paint18_linear_54_2158)"/>
<path d="M67.5919 463.189C69.6885 465.249 86.0802 465.624 98.66 459.442C109.334 454.01 120.389 447.828 122.676 445.58C125.154 443.145 123.629 432.093 124.772 428.534C124.963 427.972 126.678 424.226 129.347 418.606L114.48 402.683L112.002 405.493C111.811 412.237 112.383 417.857 112.383 420.666C112.383 426.661 65.4953 461.128 67.5919 463.189Z" fill="#542D45"/>
<path d="M153.553 366.53C165.942 339.368 178.141 312.394 179.475 305.837C181.19 297.97 179.094 287.479 173.566 278.675C173.757 278.675 153.553 324.757 153.553 366.53Z" fill="url(#paint19_linear_54_2158)"/>
<path opacity="0.35" d="M365.693 99.2194C365.693 99.2194 323.951 103.528 302.794 89.2913L327.954 91.7265L365.693 99.2194Z" fill="url(#paint20_linear_54_2158)"/>
<path opacity="0.5" d="M152.41 158.601C152.41 158.601 182.143 181.642 197.582 218.17C210.734 249.453 201.966 291.413 201.966 291.413L200.822 291.975C200.822 291.975 209.018 247.767 194.342 214.423C180.237 182.578 151.457 159.725 151.457 159.725L152.41 158.601Z" fill="#FFFFD8"/>
<path d="M153.553 158.601C153.553 158.601 183.287 181.642 198.726 218.17C211.877 249.453 203.11 291.413 203.11 291.413L201.966 291.975C201.966 291.975 210.162 247.767 195.486 214.423C181.19 182.578 152.41 159.725 152.41 159.725L153.553 158.601Z" fill="url(#paint21_linear_54_2158)"/>
<path d="M41.2888 271.932C41.2888 272.681 41.4794 273.243 41.67 273.992C42.4324 276.427 43.576 278.488 43.576 278.488C43.576 278.488 80.7433 221.542 68.7354 214.611L68.5448 214.798C62.0644 221.167 55.0121 229.034 51.0095 243.084C46.0538 260.13 41.4794 271.182 41.4794 271.182C41.4794 271.182 41.0982 271.744 41.2888 271.932Z" fill="url(#paint22_linear_54_2158)"/>
<path d="M252.476 139.119L304.51 142.866V139.307C304.51 139.307 267.533 137.995 252.857 138.932L252.476 139.119Z" fill="#FF8527"/>
<path opacity="0.6" d="M164.608 141.367L152.41 159.725L158.509 157.102L169.182 139.494L164.608 141.367Z" fill="url(#paint23_linear_54_2158)"/>
<path opacity="0.35" d="M96.182 150.546C94.0854 153.73 90.0828 166.656 85.699 179.956C91.2264 179.956 106.856 165.157 112.574 159.725C113.908 158.413 114.67 157.664 114.67 157.664L152.41 159.725L125.725 128.816C109.143 128.816 83.2211 135.747 83.2211 135.747C83.2211 135.747 91.7982 141.742 99.8035 148.111C98.2787 148.485 97.1351 149.235 96.182 150.546Z" fill="url(#paint24_linear_54_2158)"/>
<path opacity="0.2" d="M100.756 433.404C109.715 430.969 119.054 429.658 124.582 429.096C124.582 428.721 124.772 428.534 124.772 428.347C124.963 427.785 126.678 424.038 129.347 418.418C133.921 408.678 141.164 393.13 148.979 376.458C148.407 375.521 132.015 350.795 138.305 317.638C140.973 303.589 144.976 291.975 148.788 283.358C153.934 271.37 158.699 264.813 158.699 264.813C159.271 265.001 159.843 265.375 160.415 265.563C161.94 266.312 163.274 267.248 164.608 268.185C168.611 271.182 171.66 274.741 173.757 278.301C180.237 288.978 180.047 300.779 180.047 300.779H180.237C187.48 299.093 206.731 290.289 210.734 286.355C210.734 286.355 231.128 291.413 249.616 291.975L249.998 291.788L242.183 247.58L224.266 239.712L224.076 239.525L223.695 239.337C223.695 239.337 187.099 246.268 153.553 224.913C138.877 215.547 122.485 182.016 122.485 182.016C122.866 183.328 123.438 184.826 123.819 186.137C126.488 195.129 128.775 204.308 129.537 211.239C130.681 219.294 131.634 241.211 132.015 255.634C132.206 262.378 132.396 267.436 132.396 268.56C123.629 285.981 127.25 347.048 127.25 354.541C127.25 359.786 124.582 365.406 117.339 378.706C113.336 386.199 112.193 396.127 112.002 404.744C111.811 411.488 112.383 417.107 112.383 419.917C112.383 422.54 107.427 427.597 100.756 433.404Z" fill="url(#paint25_linear_54_2158)"/>
<path d="M361.69 292.35C361.69 292.35 300.126 273.617 276.301 264.251C252.285 254.885 246.186 249.453 246.186 249.453L242.183 247.954L361.69 292.35Z" fill="#FFFFD8"/>
<path opacity="0.5" d="M160.605 215.547C170.136 231.844 186.146 240.461 196.248 234.654C206.35 228.847 206.731 211.051 197.201 194.754C187.671 178.457 171.66 169.84 161.558 175.647C151.457 181.454 151.075 199.25 160.605 215.547Z" fill="#FFFFD8"/>
<path d="M153.553 158.601H156.031L161.94 164.221L160.796 167.405L152.41 160.661L153.553 158.601Z" fill="#542D45"/>
<path d="M148.216 172.088V176.397L158.128 177.708L160.034 174.523L156.031 158.601H155.078L156.984 170.964L151.266 170.028L154.125 158.975L153.553 158.601L148.216 172.088Z" fill="#542D45"/>
<path opacity="0.5" d="M148.216 172.088L160.034 174.523L156.031 158.601H155.078L156.984 170.964L151.266 170.028L154.125 158.975L153.553 158.601L148.216 172.088Z" fill="#FFFFD8"/>
<path opacity="0.55" d="M351.017 305.462C353.494 305.462 355.591 305.65 356.925 306.024C365.121 307.898 377.129 317.638 380.369 317.638C383.8 317.638 387.04 303.215 392.568 290.664C393.902 287.667 395.427 284.482 396.952 280.923C396.57 281.672 382.656 304.151 380.179 306.586C377.51 309.209 370.267 306.399 363.024 305.275C355.972 304.339 351.017 305.462 351.017 305.462Z" fill="#AE004F"/>
<path opacity="0.35" d="M292.692 120.387C292.692 120.387 365.693 135.56 395.427 136.122C395.427 136.122 398.476 133.687 400.573 127.88C400.573 127.88 360.547 126.381 347.967 124.695C327.001 121.886 294.598 113.456 294.598 113.456C294.598 113.456 294.598 99.9687 297.267 93.9744L295.361 98.6575C292.502 105.214 290.405 114.018 292.692 120.387Z" fill="url(#paint26_linear_54_2158)"/>
<path opacity="0.5" d="M325.476 103.34C325.857 100.905 341.677 101.655 360.547 105.026C379.416 108.398 394.474 113.269 393.902 115.704C393.521 118.139 377.701 117.39 358.831 114.018C339.962 110.459 325.095 105.776 325.476 103.34Z" fill="#FFFFD8"/>
<path d="M380.56 108.586C380.369 109.709 383.609 111.395 387.803 112.332C391.996 113.269 395.617 113.269 395.998 112.145C396.189 111.021 392.949 109.335 388.756 108.398C384.562 107.462 380.941 107.462 380.56 108.586Z" fill="#FFFFD8"/>
<path d="M365.693 99.2194L368.742 94.5363L326.81 87.2307L327.954 91.7265C328.144 91.9138 343.392 99.9687 365.693 99.2194Z" fill="#542D45"/>
<path d="M314.993 83.4841C314.993 84.9827 315.183 86.294 315.946 87.4179L392.186 100.156C392.186 100.156 393.521 99.0319 394.664 96.9714C395.998 94.7235 396.761 91.3517 394.855 87.4179C394.855 87.4179 357.116 79.9249 315.946 77.4897C315.946 77.4897 314.993 80.4869 314.993 83.4841Z" fill="url(#paint27_linear_54_2158)"/>
<path opacity="0.35" d="M314.993 83.4841C314.993 84.9827 315.183 86.294 315.946 87.4179L392.186 100.156C392.186 100.156 393.521 99.032 394.664 96.9714C394.664 96.9714 366.836 92.8503 342.63 89.2912C318.614 85.5447 314.993 83.4841 314.993 83.4841Z" fill="url(#paint28_linear_54_2158)"/>
<path opacity="0.5" d="M355.782 87.0433C355.972 85.9194 363.596 85.9194 372.936 87.2306C382.275 88.5419 389.709 90.6024 389.518 91.7264C389.327 92.8503 381.703 92.8503 372.364 91.5391C363.024 90.2278 355.591 88.1672 355.782 87.0433Z" fill="#FFFFD8"/>
<path d="M376.557 86.4815C376.367 87.2308 378.654 88.1674 381.703 88.542C384.562 88.9167 387.04 88.7294 387.231 87.9801C387.421 87.2308 385.134 86.2941 382.085 85.9195C379.035 85.5449 376.557 85.7322 376.557 86.4815Z" fill="#FFFFD8"/>
<path d="M46.6257 281.11L50.0565 277.551C50.0565 277.551 43.3855 272.868 43.3855 266.125L41.2888 271.557C41.0982 271.557 41.0982 279.986 46.6257 281.11Z" fill="#542D45"/>
<path d="M304.319 139.306L305.272 149.422L301.079 151.295L298.029 139.119L304.319 139.306Z" fill="#542D45"/>
<path d="M322.998 108.211C322.617 111.395 331.766 115.329 343.774 117.015C355.4 118.514 365.502 117.39 365.883 114.205C366.265 111.021 357.116 107.087 345.108 105.401C333.291 103.903 323.379 105.026 322.998 108.211Z" fill="url(#paint29_linear_54_2158)"/>
<path d="M362.643 114.58C363.024 111.395 353.875 107.462 341.868 105.776C337.103 105.026 332.719 104.839 329.097 105.026C333.1 104.464 338.818 104.652 345.108 105.401C356.925 107.087 366.265 111.021 365.883 114.205C365.693 116.079 361.881 117.202 356.353 117.577C360.165 117.015 362.453 116.079 362.643 114.58Z" fill="#34B8D0"/>
<path opacity="0.38" d="M25.0876 77.1152C25.0876 86.1067 33.2835 120.012 37.6673 137.246C37.6673 121.323 50.4376 112.145 61.1113 99.032C71.5944 85.9194 71.785 51.6392 82.2681 39.0885C92.7512 26.5379 170.707 30.4717 170.707 30.4717C170.707 30.4717 106.474 12.6759 96.9444 15.2985C87.4143 17.921 82.2681 26.7252 82.2681 32.9069C82.2681 39.0885 70.6414 45.8322 60.5395 36.0914C50.6282 26.3505 48.7222 15.4858 48.7222 15.4858C29.0902 34.7801 25.0876 67.749 25.0876 77.1152Z" fill="#9783AE"/>
<path d="M63.0174 263.127C72.9287 251.888 84.746 237.464 90.0828 227.723C95.9915 217.046 105.903 203.371 113.527 193.818C113.527 193.818 93.1325 213.674 86.8426 225.288C80.3622 236.715 63.5892 262.378 63.0174 263.127Z" fill="#FFFFD8"/>
<path d="M85.5084 0.499875C121.151 4.43367 172.232 25.2266 172.232 25.2266C194.914 25.6012 210.162 34.4054 210.162 34.4054C210.162 31.5956 130.681 -0.436742 85.5084 0.499875Z" fill="#FFFFD8"/>
<path d="M386.278 274.179L380.75 279.986L385.134 296.096L390.09 288.978L386.278 274.179Z" fill="url(#paint30_linear_54_2158)"/>
<path d="M116.005 447.266L111.43 445.58L100.757 450.638L110.287 451.575L116.005 447.266Z" fill="url(#paint31_linear_54_2158)"/>
<path d="M148.788 144.926C162.321 141.929 174.901 136.684 176.807 132.188C179.094 126.569 176.807 115.329 175.854 108.773C175.854 111.77 175.091 126.943 166.705 134.436C157.746 142.304 149.741 144.552 148.788 144.926Z" fill="#FFFFD8"/>
<path opacity="0.5" d="M408.006 114.58C414.868 128.442 432.785 135.56 432.785 135.56C433.166 134.998 433.547 134.249 433.738 133.687C434.881 130.315 434.5 126.194 434.5 126.194C425.732 121.323 416.012 117.39 409.531 115.142C408.959 114.954 408.388 114.767 408.006 114.58Z" fill="#FFFFD8"/>
<path d="M161.94 156.54C161.94 156.54 159.462 161.973 148.788 161.973C138.115 161.973 113.146 153.543 81.3152 167.218C49.2941 180.892 37.0956 191.195 33.8554 203.746C33.8554 203.746 34.6178 194.567 39.1922 190.071C48.1505 181.267 54.4404 176.397 54.4404 176.397L101.71 151.483C101.71 151.483 144.976 159.912 151.075 159.912C157.365 159.725 161.94 156.54 161.94 156.54Z" fill="url(#paint32_linear_54_2158)"/>
<path d="M41.2888 188.385C43.3855 186.887 76.7408 161.973 101.519 158.601C122.866 155.604 149.36 162.909 157.365 159.912C165.371 156.915 161.94 151.857 161.94 151.857C161.94 151.857 160.987 158.414 150.885 158.226C150.885 158.226 150.885 158.226 150.694 158.226C149.36 158.226 147.835 158.039 146.31 157.664C145.929 157.664 145.548 157.477 145.167 157.477C130.872 154.48 111.24 145.301 95.9915 145.301C95.9915 145.301 89.3205 149.984 79.981 156.728C68.1637 165.345 52.1531 177.708 41.2888 188.385Z" fill="url(#paint33_linear_54_2158)"/>
<path opacity="0.38" d="M75.0252 160.287C91.9888 152.794 130.681 155.604 144.976 157.29C130.681 154.292 111.049 145.114 95.8008 145.114C95.9914 145.114 84.1741 153.543 75.0252 160.287Z" fill="#9783AE"/>
<path d="M325.095 145.863C325.095 145.863 329.669 148.485 333.291 149.797C333.291 149.797 327.763 148.111 325.285 146.612L325.095 145.863Z" fill="#BE4526"/>
</g>
<defs>
<linearGradient id="paint0_linear_54_2158" x1="296.977" y1="218.25" x2="32.9825" y2="218.25" gradientUnits="userSpaceOnUse">
<stop stop-color="#1F7C93"/>
<stop offset="1" stop-color="#C800E9"/>
</linearGradient>
<linearGradient id="paint1_linear_54_2158" x1="287.87" y1="116.663" x2="287.87" y2="93.4911" gradientUnits="userSpaceOnUse">
<stop stop-color="#FFA031"/>
<stop offset="1" stop-color="#FFD638"/>
</linearGradient>
<linearGradient id="paint2_linear_54_2158" x1="404.064" y1="278.688" x2="210.618" y2="278.688" gradientUnits="userSpaceOnUse">
<stop stop-color="#86A300"/>
<stop offset="1" stop-color="#4D8100"/>
</linearGradient>
<linearGradient id="paint3_linear_54_2158" x1="415.991" y1="137.771" x2="415.991" y2="112.613" gradientUnits="userSpaceOnUse">
<stop stop-color="#FFA031"/>
<stop offset="1" stop-color="#FFD638"/>
</linearGradient>
<linearGradient id="paint4_linear_54_2158" x1="305.292" y1="157.512" x2="156.94" y2="157.512" gradientUnits="userSpaceOnUse">
<stop stop-color="#86A300"/>
<stop offset="1" stop-color="#4D8100"/>
</linearGradient>
<linearGradient id="paint5_linear_54_2158" x1="153.531" y1="159.781" x2="153.531" y2="141.36" gradientUnits="userSpaceOnUse">
<stop stop-color="#4D8100"/>
<stop offset="1" stop-color="#637000"/>
</linearGradient>
<linearGradient id="paint6_linear_54_2158" x1="117.954" y1="147.57" x2="117.954" y2="31.8631" gradientUnits="userSpaceOnUse">
<stop stop-color="#FFAD70"/>
<stop offset="1" stop-color="#FF8B60"/>
</linearGradient>
<linearGradient id="paint7_linear_54_2158" x1="136.566" y1="54.1006" x2="136.566" y2="29.083" gradientUnits="userSpaceOnUse">
<stop stop-color="#481D27"/>
<stop offset="1" stop-color="#7D2710"/>
</linearGradient>
<linearGradient id="paint8_linear_54_2158" x1="63.1129" y1="102.51" x2="63.1129" y2="36.0014" gradientUnits="userSpaceOnUse">
<stop stop-color="#481D27"/>
<stop offset="1" stop-color="#7D2710"/>
</linearGradient>
<linearGradient id="paint9_linear_54_2158" x1="186.321" y1="176.352" x2="186.321" y2="147.797" gradientUnits="userSpaceOnUse">
<stop stop-color="#4D8100"/>
<stop offset="1" stop-color="#637000"/>
</linearGradient>
<linearGradient id="paint10_linear_54_2158" x1="210.138" y1="74.0349" x2="25.1" y2="74.0349" gradientUnits="userSpaceOnUse">
<stop stop-color="#1FEDCF"/>
<stop offset="1" stop-color="#A4F9A9"/>
</linearGradient>
<linearGradient id="paint11_linear_54_2158" x1="87.9442" y1="59.6916" x2="87.9442" y2="6.06712" gradientUnits="userSpaceOnUse">
<stop stop-color="#A90025"/>
<stop offset="1" stop-color="#CC266A"/>
</linearGradient>
<linearGradient id="paint12_linear_54_2158" x1="118.33" y1="159.781" x2="118.33" y2="128.262" gradientUnits="userSpaceOnUse">
<stop stop-color="#A6B300"/>
<stop offset="1" stop-color="#A7B600"/>
</linearGradient>
<linearGradient id="paint13_linear_54_2158" x1="153.517" y1="300.979" x2="153.517" y2="128.789" gradientUnits="userSpaceOnUse">
<stop stop-color="#4D8100"/>
<stop offset="1" stop-color="#9AAB00"/>
</linearGradient>
<linearGradient id="paint14_linear_54_2158" x1="82.1213" y1="281.133" x2="82.1213" y2="147.81" gradientUnits="userSpaceOnUse">
<stop stop-color="#638100"/>
<stop offset="1" stop-color="#A7B600"/>
</linearGradient>
<linearGradient id="paint15_linear_54_2158" x1="402.266" y1="112.609" x2="291.665" y2="112.609" gradientUnits="userSpaceOnUse">
<stop stop-color="#4D8100"/>
<stop offset="1" stop-color="#9AAB00"/>
</linearGradient>
<linearGradient id="paint16_linear_54_2158" x1="142.88" y1="257.272" x2="142.88" y2="186.718" gradientUnits="userSpaceOnUse">
<stop stop-color="#FFA031"/>
<stop offset="1" stop-color="#FFD638"/>
</linearGradient>
<linearGradient id="paint17_linear_54_2158" x1="201.708" y1="221.995" x2="201.708" y2="180.033" gradientUnits="userSpaceOnUse">
<stop stop-color="#FFA031"/>
<stop offset="1" stop-color="#FFD638"/>
</linearGradient>
<linearGradient id="paint18_linear_54_2158" x1="123.858" y1="464.546" x2="123.858" y2="262.103" gradientUnits="userSpaceOnUse">
<stop stop-color="#638100"/>
<stop offset="1" stop-color="#A7B600"/>
</linearGradient>
<linearGradient id="paint19_linear_54_2158" x1="166.84" y1="366.551" x2="166.84" y2="278.697" gradientUnits="userSpaceOnUse">
<stop stop-color="#FFA031"/>
<stop offset="1" stop-color="#FFD638"/>
</linearGradient>
<linearGradient id="paint20_linear_54_2158" x1="334.307" y1="99.8688" x2="334.307" y2="89.3623" gradientUnits="userSpaceOnUse">
<stop stop-color="#4D8100"/>
<stop offset="1" stop-color="#637000"/>
</linearGradient>
<linearGradient id="paint21_linear_54_2158" x1="179.09" y1="291.997" x2="179.09" y2="158.611" gradientUnits="userSpaceOnUse">
<stop stop-color="#0EE0F4"/>
<stop offset="1" stop-color="#00FFD8"/>
</linearGradient>
<linearGradient id="paint22_linear_54_2158" x1="56.0726" y1="278.697" x2="56.0726" y2="214.883" gradientUnits="userSpaceOnUse">
<stop stop-color="#FFA031"/>
<stop offset="1" stop-color="#FFD638"/>
</linearGradient>
<linearGradient id="paint23_linear_54_2158" x1="160.793" y1="159.781" x2="160.793" y2="139.582" gradientUnits="userSpaceOnUse">
<stop stop-color="#4D8100"/>
<stop offset="1" stop-color="#637000"/>
</linearGradient>
<linearGradient id="paint24_linear_54_2158" x1="117.735" y1="180.033" x2="117.735" y2="128.789" gradientUnits="userSpaceOnUse">
<stop stop-color="#4D8100"/>
<stop offset="1" stop-color="#637000"/>
</linearGradient>
<linearGradient id="paint25_linear_54_2158" x1="175.375" y1="433.495" x2="175.375" y2="182.487" gradientUnits="userSpaceOnUse">
<stop stop-color="#4D8100"/>
<stop offset="1" stop-color="#637000"/>
</linearGradient>
<linearGradient id="paint26_linear_54_2158" x1="346.024" y1="136.115" x2="346.024" y2="94.0105" gradientUnits="userSpaceOnUse">
<stop stop-color="#4D8100"/>
<stop offset="1" stop-color="#637000"/>
</linearGradient>
<linearGradient id="paint27_linear_54_2158" x1="395.975" y1="88.6939" x2="314.988" y2="88.6939" gradientUnits="userSpaceOnUse">
<stop stop-color="#4D8100"/>
<stop offset="1" stop-color="#9AAB00"/>
</linearGradient>
<linearGradient id="paint28_linear_54_2158" x1="354.809" y1="99.9845" x2="354.809" y2="83.3953" gradientUnits="userSpaceOnUse">
<stop stop-color="#4D8100"/>
<stop offset="1" stop-color="#637000"/>
</linearGradient>
<linearGradient id="paint29_linear_54_2158" x1="365.939" y1="114.286" x2="322.935" y2="107.973" gradientUnits="userSpaceOnUse">
<stop stop-color="#0EE0F4"/>
<stop offset="1" stop-color="#00FFD8"/>
</linearGradient>
<linearGradient id="paint30_linear_54_2158" x1="390.638" y1="285.859" x2="380.037" y2="284.302" gradientUnits="userSpaceOnUse">
<stop stop-color="#0EE0F4"/>
<stop offset="1" stop-color="#00FFD8"/>
</linearGradient>
<linearGradient id="paint31_linear_54_2158" x1="115.768" y1="449.454" x2="101.275" y2="447.326" gradientUnits="userSpaceOnUse">
<stop stop-color="#0EE0F4"/>
<stop offset="1" stop-color="#00FFD8"/>
</linearGradient>
<linearGradient id="paint32_linear_54_2158" x1="162.685" y1="173.611" x2="32.7516" y2="179.265" gradientUnits="userSpaceOnUse">
<stop stop-color="#F27CCF"/>
<stop offset="1" stop-color="#FF66E9"/>
</linearGradient>
<linearGradient id="paint33_linear_54_2158" x1="163.004" y1="162.772" x2="40.3674" y2="168.109" gradientUnits="userSpaceOnUse">
<stop stop-color="#F27CCF"/>
<stop offset="1" stop-color="#C800E9"/>
</linearGradient>
<clipPath id="clip0_54_2158">
<rect width="434" height="464" fill="white" transform="matrix(-1 0 0 1 434.5 0.5)"/>
</clipPath>
</defs>
</svg>
