<svg width="136" height="50" viewBox="0 0 136 50" fill="none" xmlns="http://www.w3.org/2000/svg">
<g clip-path="url(#clip0_276_4919)">
<path d="M37.3333 0.5H13.3333C5.96954 0.5 0 6.27317 0 13.3947V36.6053C0 43.7268 5.96954 49.5 13.3333 49.5H37.3333C44.6971 49.5 50.6667 43.7268 50.6667 36.6053V13.3947C50.6667 6.27317 44.6971 0.5 37.3333 0.5Z" fill="#6610F2"/>
<path d="M39.4661 23.0657V24.879C39.4661 27.3723 39.1302 29.6088 38.4583 31.5884C37.7863 33.5678 36.8254 35.2528 35.5754 36.643C34.3411 38.0332 32.8567 39.0985 31.1223 39.8389C29.3879 40.5643 27.4661 40.927 25.3567 40.927C23.263 40.927 21.3489 40.5643 19.6145 39.8389C17.8958 39.0985 16.4035 38.0332 15.1379 36.643C13.8723 35.2528 12.888 33.5678 12.1848 31.5884C11.4973 29.6088 11.1536 27.3723 11.1536 24.879V23.0657C11.1536 20.5724 11.4973 18.3435 12.1848 16.3792C12.8723 14.3996 13.8411 12.7147 15.0911 11.3245C16.3567 9.91914 17.8489 8.85381 19.5677 8.12848C21.3021 7.38804 23.2161 7.01782 25.3098 7.01782C27.4193 7.01782 29.3411 7.38804 31.0754 8.12848C32.8098 8.85381 34.3021 9.91914 35.5521 11.3245C36.8021 12.7147 37.763 14.3996 38.4349 16.3792C39.1223 18.3435 39.4661 20.5724 39.4661 23.0657ZM33.5833 24.879V23.0203C33.5833 21.1769 33.3958 19.5524 33.0207 18.147C32.6614 16.7267 32.1223 15.5405 31.4035 14.5885C30.7005 13.6214 29.8333 12.896 28.8021 12.4125C27.7707 11.9138 26.6067 11.6645 25.3098 11.6645C24.013 11.6645 22.8567 11.9138 21.8411 12.4125C20.8254 12.896 19.9583 13.6214 19.2395 14.5885C18.5363 15.5405 17.9973 16.7267 17.6223 18.147C17.2473 19.5524 17.0598 21.1769 17.0598 23.0203V24.879C17.0598 26.7225 17.2473 28.3546 17.6223 29.775C17.9973 31.1955 18.5442 32.3967 19.263 33.3789C19.9973 34.346 20.8723 35.079 21.8879 35.5776C22.9035 36.0612 24.0598 36.3029 25.3567 36.3029C26.6693 36.3029 27.8333 36.0612 28.8489 35.5776C29.8645 35.079 30.7239 34.346 31.427 33.3789C32.1302 32.3967 32.6614 31.1955 33.0207 29.775C33.3958 28.3546 33.5833 26.7225 33.5833 24.879Z" fill="white"/>
<path d="M55.8855 27.322V26.9744C55.8855 25.7958 56.0626 24.7027 56.4167 23.6954C56.7708 22.6778 57.2812 21.7964 57.9479 21.0509C58.6251 20.2954 59.4479 19.711 60.4167 19.298C61.3959 18.8749 62.5 18.6633 63.7292 18.6633C64.9688 18.6633 66.073 18.8749 67.0416 19.298C68.0208 19.711 68.849 20.2954 69.526 21.0509C70.2031 21.7964 70.7188 22.6778 71.073 23.6954C71.4271 24.7027 71.6042 25.7958 71.6042 26.9744V27.322C71.6042 28.5006 71.4271 29.5937 71.073 30.6011C70.7188 31.6085 70.2031 32.49 69.526 33.2455C68.849 33.991 68.026 34.5753 67.0574 34.9984C66.0886 35.4114 64.9896 35.618 63.7604 35.618C62.5208 35.618 61.4115 35.4114 60.4323 34.9984C59.4636 34.5753 58.6407 33.991 57.9636 33.2455C57.2864 32.49 56.7708 31.6085 56.4167 30.6011C56.0626 29.5937 55.8855 28.5006 55.8855 27.322ZM59.6511 26.9744V27.322C59.6511 28.0574 59.7292 28.7526 59.8855 29.4074C60.0416 30.0621 60.2864 30.6364 60.6198 31.13C60.9531 31.6236 61.3803 32.0114 61.9011 32.2935C62.4219 32.5756 63.0416 32.7167 63.7604 32.7167C64.4584 32.7167 65.0626 32.5756 65.573 32.2935C66.0938 32.0114 66.5208 31.6236 66.8542 31.13C67.1875 30.6364 67.4323 30.0621 67.5886 29.4074C67.7552 28.7526 67.8386 28.0574 67.8386 27.322V26.9744C67.8386 26.2492 67.7552 25.5641 67.5886 24.9193C67.4323 24.2645 67.1823 23.6853 66.8386 23.1815C66.5052 22.6778 66.0782 22.2849 65.5574 22.0029C65.047 21.7107 64.4375 21.5646 63.7292 21.5646C63.0208 21.5646 62.4063 21.7107 61.8855 22.0029C61.375 22.2849 60.9531 22.6778 60.6198 23.1815C60.2864 23.6853 60.0416 24.2645 59.8855 24.9193C59.7292 25.5641 59.6511 26.2492 59.6511 26.9744ZM78.0994 22.29V35.3157H74.3338V18.9656H77.8807L78.0994 22.29ZM77.49 26.5362L76.2088 26.5211C76.2088 25.3928 76.3546 24.3502 76.6463 23.3931C76.9379 22.4361 77.3651 21.605 77.9275 20.8998C78.49 20.1845 79.1879 19.6355 80.0212 19.2527C80.8651 18.8598 81.839 18.6633 82.9431 18.6633C83.714 18.6633 84.4171 18.7742 85.0526 18.9959C85.6984 19.2074 86.2556 19.5448 86.7244 20.0083C87.2036 20.4717 87.5682 21.066 87.8182 21.7913C88.0786 22.5167 88.2088 23.3931 88.2088 24.4207V35.3157H84.4431V24.738C84.4431 23.9422 84.3182 23.3176 84.0682 22.8643C83.8286 22.4109 83.4796 22.0886 83.0212 21.8972C82.5734 21.6957 82.037 21.5949 81.4119 21.5949C80.7036 21.5949 80.0994 21.7258 79.5994 21.9879C79.1098 22.2497 78.7088 22.6073 78.3963 23.0607C78.0838 23.5141 77.8546 24.0379 77.7088 24.6322C77.563 25.2266 77.49 25.8613 77.49 26.5362ZM87.9744 25.5691L86.2088 25.9469C86.2088 24.9597 86.3494 24.0278 86.6307 23.1513C86.9223 22.2648 87.3442 21.4891 87.8963 20.8242C88.4588 20.1493 89.1515 19.6204 89.9744 19.2375C90.7974 18.8548 91.74 18.6633 92.8026 18.6633C93.6671 18.6633 94.4379 18.7793 95.1151 19.011C95.8026 19.2325 96.3859 19.5852 96.8651 20.0687C97.3442 20.5523 97.7088 21.1819 97.9588 21.9575C98.2088 22.7232 98.3338 23.65 98.3338 24.738V35.3157H94.5526V24.723C94.5526 23.8968 94.4275 23.2571 94.1775 22.8038C93.9379 22.3505 93.5942 22.0381 93.1463 21.8669C92.6984 21.6856 92.1619 21.5949 91.537 21.5949C90.9536 21.5949 90.4379 21.7007 89.99 21.9123C89.5526 22.1137 89.1827 22.4009 88.8807 22.7735C88.5786 23.1363 88.3494 23.5543 88.1931 24.0278C88.0474 24.5013 87.9744 25.015 87.9744 25.5691ZM105.563 22.1087V41.6019H101.798V18.9656H105.266L105.563 22.1087ZM116.579 26.9896V27.3069C116.579 28.4956 116.433 29.5987 116.142 30.6162C115.86 31.6236 115.438 32.5051 114.876 33.2606C114.324 34.0061 113.641 34.5854 112.829 34.9984C112.016 35.4114 111.079 35.618 110.016 35.618C108.964 35.618 108.043 35.4315 107.251 35.0589C106.47 34.676 105.808 34.137 105.266 33.442C104.725 32.7468 104.287 31.9309 103.954 30.9939C103.631 30.0471 103.402 29.0094 103.266 27.8811V26.6572C103.402 25.4583 103.631 24.3703 103.954 23.3931C104.287 22.416 104.725 21.5748 105.266 20.8696C105.808 20.1644 106.47 19.6204 107.251 19.2375C108.032 18.8548 108.944 18.6633 109.985 18.6633C111.048 18.6633 111.99 18.8649 112.813 19.2678C113.636 19.6607 114.329 20.2249 114.892 20.9603C115.454 21.6856 115.876 22.5621 116.157 23.5895C116.438 24.607 116.579 25.7403 116.579 26.9896ZM112.813 27.3069V26.9896C112.813 26.234 112.74 25.5339 112.595 24.8892C112.449 24.2342 112.22 23.66 111.907 23.1664C111.595 22.6728 111.194 22.29 110.704 22.018C110.225 21.736 109.647 21.5949 108.97 21.5949C108.303 21.5949 107.73 21.7057 107.251 21.9274C106.772 22.1388 106.371 22.4361 106.048 22.8189C105.725 23.2018 105.475 23.65 105.298 24.1638C105.121 24.6675 104.996 25.2166 104.923 25.8109V28.7424C105.048 29.4677 105.261 30.1327 105.563 30.7371C105.865 31.3416 106.293 31.8251 106.845 32.1877C107.407 32.5404 108.126 32.7167 109.001 32.7167C109.678 32.7167 110.256 32.5756 110.735 32.2935C111.214 32.0114 111.605 31.6236 111.907 31.13C112.22 30.6263 112.449 30.0471 112.595 29.3921C112.74 28.7373 112.813 28.0423 112.813 27.3069ZM128.887 32.0366V24.2394C128.887 23.655 128.777 23.1513 128.559 22.7283C128.34 22.3052 128.006 21.9777 127.559 21.7461C127.121 21.5144 126.569 21.3984 125.902 21.3984C125.288 21.3984 124.756 21.4993 124.309 21.7007C123.861 21.9022 123.512 22.1742 123.262 22.5167C123.012 22.8591 122.887 23.247 122.887 23.6803H119.137C119.137 23.0355 119.298 22.4109 119.621 21.8064C119.944 21.202 120.413 20.663 121.027 20.1896C121.642 19.7161 122.376 19.3434 123.23 19.0713C124.085 18.7994 125.043 18.6633 126.105 18.6633C127.376 18.6633 128.501 18.8699 129.48 19.2829C130.47 19.6959 131.246 20.3206 131.809 21.1567C132.382 21.9828 132.668 23.0203 132.668 24.2696V31.5379C132.668 32.2834 132.72 32.9534 132.824 33.5477C132.939 34.132 133.1 34.6408 133.309 35.0739V35.3157H129.449C129.272 34.9228 129.132 34.4242 129.027 33.8197C128.934 33.2052 128.887 32.6108 128.887 32.0366ZM129.434 25.3727L129.465 27.6243H126.762C126.064 27.6243 125.449 27.6896 124.918 27.8207C124.387 27.9415 123.944 28.1229 123.59 28.3647C123.236 28.6065 122.97 28.8985 122.793 29.2411C122.616 29.5836 122.527 29.9715 122.527 30.4046C122.527 30.8378 122.632 31.2357 122.84 31.5984C123.048 31.951 123.35 32.2281 123.746 32.4295C124.152 32.631 124.642 32.7317 125.215 32.7317C125.986 32.7317 126.657 32.5806 127.23 32.2784C127.814 31.9661 128.272 31.5884 128.605 31.145C128.939 30.6918 129.116 30.2636 129.137 29.8606L130.355 31.4775C130.23 31.8906 130.017 32.3338 129.715 32.8073C129.413 33.2808 129.017 33.7341 128.527 34.1673C128.048 34.5904 127.47 34.9379 126.793 35.21C126.126 35.4819 125.355 35.618 124.48 35.618C123.376 35.618 122.392 35.4064 121.527 34.9833C120.663 34.55 119.986 33.9708 119.496 33.2455C119.006 32.5101 118.762 31.679 118.762 30.7521C118.762 29.8859 118.928 29.1202 119.262 28.4553C119.605 27.7803 120.105 27.2163 120.762 26.7629C121.428 26.3095 122.241 25.967 123.199 25.7353C124.158 25.4935 125.251 25.3727 126.48 25.3727H129.434Z" fill="#212529"/>
</g>
<defs>
<clipPath id="clip0_276_4919">
<rect width="136" height="49" fill="white" transform="translate(0 0.5)"/>
</clipPath>
</defs>
</svg>
