<svg width="102" height="38" viewBox="0 0 102 38" fill="none" xmlns="http://www.w3.org/2000/svg">
<path d="M28 0H10C4.47715 0 0 4.47715 0 10V28C0 33.5228 4.47715 38 10 38H28C33.5228 38 38 33.5228 38 28V10C38 4.47715 33.5228 0 28 0Z" fill="#6610F2"/>
<path d="M29.5996 17.5V18.9062C29.5996 20.8398 29.3477 22.5742 28.8438 24.1094C28.3398 25.6445 27.6191 26.9512 26.6816 28.0293C25.7559 29.1074 24.6426 29.9336 23.3418 30.5078C22.041 31.0703 20.5996 31.3516 19.0176 31.3516C17.4473 31.3516 16.0117 31.0703 14.7109 30.5078C13.4219 29.9336 12.3027 29.1074 11.3535 28.0293C10.4043 26.9512 9.66602 25.6445 9.13867 24.1094C8.62305 22.5742 8.36523 20.8398 8.36523 18.9062V17.5C8.36523 15.5664 8.62305 13.8379 9.13867 12.3145C9.6543 10.7793 10.3809 9.47266 11.3184 8.39453C12.2676 7.30469 13.3867 6.47852 14.6758 5.91602C15.9766 5.3418 17.4121 5.05469 18.9824 5.05469C20.5645 5.05469 22.0059 5.3418 23.3066 5.91602C24.6074 6.47852 25.7266 7.30469 26.6641 8.39453C27.6016 9.47266 28.3223 10.7793 28.8262 12.3145C29.3418 13.8379 29.5996 15.5664 29.5996 17.5ZM25.1875 18.9062V17.4648C25.1875 16.0352 25.0469 14.7754 24.7656 13.6855C24.4961 12.584 24.0918 11.6641 23.5527 10.9258C23.0254 10.1758 22.375 9.61328 21.6016 9.23828C20.8281 8.85156 19.9551 8.6582 18.9824 8.6582C18.0098 8.6582 17.1426 8.85156 16.3809 9.23828C15.6191 9.61328 14.9688 10.1758 14.4297 10.9258C13.9023 11.6641 13.498 12.584 13.2168 13.6855C12.9355 14.7754 12.7949 16.0352 12.7949 17.4648V18.9062C12.7949 20.3359 12.9355 21.6016 13.2168 22.7031C13.498 23.8047 13.9082 24.7363 14.4473 25.498C14.998 26.248 15.6543 26.8164 16.416 27.2031C17.1777 27.5781 18.0449 27.7656 19.0176 27.7656C20.002 27.7656 20.875 27.5781 21.6367 27.2031C22.3984 26.8164 23.043 26.248 23.5703 25.498C24.0977 24.7363 24.4961 23.8047 24.7656 22.7031C25.0469 21.6016 25.1875 20.3359 25.1875 18.9062Z" fill="white"/>
<path d="M41.9141 20.8008V20.5312C41.9141 19.6172 42.0469 18.7695 42.3125 17.9883C42.5781 17.1992 42.9609 16.5156 43.4609 15.9375C43.9688 15.3516 44.5859 14.8984 45.3125 14.5781C46.0469 14.25 46.875 14.0859 47.7969 14.0859C48.7266 14.0859 49.5547 14.25 50.2812 14.5781C51.0156 14.8984 51.6367 15.3516 52.1445 15.9375C52.6523 16.5156 53.0391 17.1992 53.3047 17.9883C53.5703 18.7695 53.7031 19.6172 53.7031 20.5312V20.8008C53.7031 21.7148 53.5703 22.5625 53.3047 23.3438C53.0391 24.125 52.6523 24.8086 52.1445 25.3945C51.6367 25.9727 51.0195 26.4258 50.293 26.7539C49.5664 27.0742 48.7422 27.2344 47.8203 27.2344C46.8906 27.2344 46.0586 27.0742 45.3242 26.7539C44.5977 26.4258 43.9805 25.9727 43.4727 25.3945C42.9648 24.8086 42.5781 24.125 42.3125 23.3438C42.0469 22.5625 41.9141 21.7148 41.9141 20.8008ZM44.7383 20.5312V20.8008C44.7383 21.3711 44.7969 21.9102 44.9141 22.418C45.0312 22.9258 45.2148 23.3711 45.4648 23.7539C45.7148 24.1367 46.0352 24.4375 46.4258 24.6562C46.8164 24.875 47.2812 24.9844 47.8203 24.9844C48.3438 24.9844 48.7969 24.875 49.1797 24.6562C49.5703 24.4375 49.8906 24.1367 50.1406 23.7539C50.3906 23.3711 50.5742 22.9258 50.6914 22.418C50.8164 21.9102 50.8789 21.3711 50.8789 20.8008V20.5312C50.8789 19.9688 50.8164 19.4375 50.6914 18.9375C50.5742 18.4297 50.3867 17.9805 50.1289 17.5898C49.8789 17.1992 49.5586 16.8945 49.168 16.6758C48.7852 16.4492 48.3281 16.3359 47.7969 16.3359C47.2656 16.3359 46.8047 16.4492 46.4141 16.6758C46.0312 16.8945 45.7148 17.1992 45.4648 17.5898C45.2148 17.9805 45.0312 18.4297 44.9141 18.9375C44.7969 19.4375 44.7383 19.9688 44.7383 20.5312ZM58.5745 16.8984V27H55.7503V14.3203H58.4105L58.5745 16.8984ZM58.1175 20.1914L57.1566 20.1797C57.1566 19.3047 57.2659 18.4961 57.4847 17.7539C57.7034 17.0117 58.0238 16.3672 58.4456 15.8203C58.8675 15.2656 59.3909 14.8398 60.0159 14.543C60.6488 14.2383 61.3792 14.0859 62.2073 14.0859C62.7855 14.0859 63.3128 14.1719 63.7894 14.3438C64.2738 14.5078 64.6917 14.7695 65.0433 15.1289C65.4027 15.4883 65.6761 15.9492 65.8636 16.5117C66.0589 17.0742 66.1566 17.7539 66.1566 18.5508V27H63.3323V18.7969C63.3323 18.1797 63.2386 17.6953 63.0511 17.3438C62.8714 16.9922 62.6097 16.7422 62.2659 16.5938C61.93 16.4375 61.5277 16.3594 61.0589 16.3594C60.5277 16.3594 60.0745 16.4609 59.6995 16.6641C59.3323 16.8672 59.0316 17.1445 58.7972 17.4961C58.5628 17.8477 58.3909 18.2539 58.2816 18.7148C58.1722 19.1758 58.1175 19.668 58.1175 20.1914ZM65.9808 19.4414L64.6566 19.7344C64.6566 18.9688 64.762 18.2461 64.973 17.5664C65.1917 16.8789 65.5081 16.2773 65.9222 15.7617C66.3441 15.2383 66.8636 14.8281 67.4808 14.5312C68.098 14.2344 68.805 14.0859 69.6019 14.0859C70.2503 14.0859 70.8284 14.1758 71.3363 14.3555C71.8519 14.5273 72.2894 14.8008 72.6488 15.1758C73.0081 15.5508 73.2816 16.0391 73.4691 16.6406C73.6566 17.2344 73.7503 17.9531 73.7503 18.7969V27H70.9144V18.7852C70.9144 18.1445 70.8206 17.6484 70.6331 17.2969C70.4534 16.9453 70.1956 16.7031 69.8597 16.5703C69.5238 16.4297 69.1214 16.3594 68.6527 16.3594C68.2152 16.3594 67.8284 16.4414 67.4925 16.6055C67.1644 16.7617 66.887 16.9844 66.6605 17.2734C66.4339 17.5547 66.262 17.8789 66.1448 18.2461C66.0355 18.6133 65.9808 19.0117 65.9808 19.4414ZM79.1725 16.7578V31.875H76.3483V14.3203H78.9498L79.1725 16.7578ZM87.4342 20.543V20.7891C87.4342 21.7109 87.3248 22.5664 87.1061 23.3555C86.8952 24.1367 86.5788 24.8203 86.1569 25.4062C85.7428 25.9844 85.2311 26.4336 84.6217 26.7539C84.0123 27.0742 83.3092 27.2344 82.5123 27.2344C81.7233 27.2344 81.0319 27.0898 80.4381 26.8008C79.8522 26.5039 79.3561 26.0859 78.9498 25.5469C78.5436 25.0078 78.2155 24.375 77.9655 23.6484C77.7233 22.9141 77.5514 22.1094 77.4498 21.2344V20.2852C77.5514 19.3555 77.7233 18.5117 77.9655 17.7539C78.2155 16.9961 78.5436 16.3438 78.9498 15.7969C79.3561 15.25 79.8522 14.8281 80.4381 14.5312C81.0241 14.2344 81.7077 14.0859 82.4889 14.0859C83.2858 14.0859 83.9928 14.2422 84.61 14.5547C85.2272 14.8594 85.7467 15.2969 86.1686 15.8672C86.5905 16.4297 86.9069 17.1094 87.1178 17.9062C87.3288 18.6953 87.4342 19.5742 87.4342 20.543ZM84.61 20.7891V20.543C84.61 19.957 84.5553 19.4141 84.4459 18.9141C84.3366 18.4062 84.1647 17.9609 83.9303 17.5781C83.6959 17.1953 83.3952 16.8984 83.028 16.6875C82.6686 16.4688 82.235 16.3594 81.7272 16.3594C81.2272 16.3594 80.7975 16.4453 80.4381 16.6172C80.0788 16.7812 79.778 17.0117 79.5358 17.3086C79.2936 17.6055 79.1061 17.9531 78.9733 18.3516C78.8405 18.7422 78.7467 19.168 78.692 19.6289V21.9023C78.7858 22.4648 78.9459 22.9805 79.1725 23.4492C79.3991 23.918 79.7194 24.293 80.1334 24.5742C80.5553 24.8477 81.0944 24.9844 81.7506 24.9844C82.2584 24.9844 82.692 24.875 83.0514 24.6562C83.4108 24.4375 83.7038 24.1367 83.9303 23.7539C84.1647 23.3633 84.3366 22.9141 84.4459 22.4062C84.5553 21.8984 84.61 21.3594 84.61 20.7891ZM96.665 24.457V18.4102C96.665 17.957 96.583 17.5664 96.4189 17.2383C96.2548 16.9102 96.0048 16.6562 95.6689 16.4766C95.3408 16.2969 94.9267 16.207 94.4267 16.207C93.9658 16.207 93.5673 16.2852 93.2314 16.4414C92.8955 16.5977 92.6338 16.8086 92.4463 17.0742C92.2588 17.3398 92.165 17.6406 92.165 17.9766H89.3525C89.3525 17.4766 89.4736 16.9922 89.7158 16.5234C89.958 16.0547 90.3095 15.6367 90.7705 15.2695C91.2314 14.9023 91.7822 14.6133 92.4228 14.4023C93.0634 14.1914 93.7822 14.0859 94.5791 14.0859C95.5322 14.0859 96.3759 14.2461 97.1103 14.5664C97.8525 14.8867 98.4345 15.3711 98.8564 16.0195C99.2861 16.6602 99.5009 17.4648 99.5009 18.4336V24.0703C99.5009 24.6484 99.54 25.168 99.6181 25.6289C99.7041 26.082 99.8252 26.4766 99.9814 26.8125V27H97.0869C96.9541 26.6953 96.8486 26.3086 96.7705 25.8398C96.7002 25.3633 96.665 24.9023 96.665 24.457ZM97.0752 19.2891L97.0986 21.0352H95.0713C94.5478 21.0352 94.0869 21.0859 93.6884 21.1875C93.29 21.2812 92.958 21.4219 92.6923 21.6094C92.4267 21.7969 92.2275 22.0234 92.0947 22.2891C91.9619 22.5547 91.8955 22.8555 91.8955 23.1914C91.8955 23.5273 91.9736 23.8359 92.1298 24.1172C92.2861 24.3906 92.5127 24.6055 92.8095 24.7617C93.1142 24.918 93.4814 24.9961 93.9111 24.9961C94.4892 24.9961 94.9931 24.8789 95.4228 24.6445C95.8603 24.4023 96.2041 24.1094 96.4541 23.7656C96.7041 23.4141 96.8369 23.082 96.8525 22.7695L97.7666 24.0234C97.6728 24.3438 97.5127 24.6875 97.2861 25.0547C97.0595 25.4219 96.7627 25.7734 96.3955 26.1094C96.0361 26.4375 95.6025 26.707 95.0947 26.918C94.5947 27.1289 94.0166 27.2344 93.3603 27.2344C92.5322 27.2344 91.7939 27.0703 91.1455 26.7422C90.497 26.4062 89.9892 25.957 89.622 25.3945C89.2548 24.8242 89.0713 24.1797 89.0713 23.4609C89.0713 22.7891 89.1963 22.1953 89.4463 21.6797C89.7041 21.1562 90.0791 20.7188 90.5713 20.3672C91.0713 20.0156 91.6806 19.75 92.3994 19.5703C93.1181 19.3828 93.9384 19.2891 94.8603 19.2891H97.0752Z" fill="white"/>
</svg>
