<svg width="180" height="141" viewBox="0 0 180 141" fill="none" xmlns="http://www.w3.org/2000/svg">
<path d="M111.724 83.2272C123.722 83.2272 133.448 73.2554 133.448 60.9545C133.448 48.6537 123.722 38.6819 111.724 38.6819C99.7262 38.6819 90 48.6537 90 60.9545C90 73.2554 99.7262 83.2272 111.724 83.2272Z" fill="#FFF082"/>
<path d="M111.724 73.6816C118.58 73.6816 124.138 67.9834 124.138 60.9544C124.138 53.9254 118.58 48.2273 111.724 48.2273C104.868 48.2273 99.3103 53.9254 99.3103 60.9544C99.3103 67.9834 104.868 73.6816 111.724 73.6816Z" fill="#FFF8C1"/>
<path d="M173.35 137.318L119.708 67.3229C117.223 64.0804 112.432 64.0804 109.947 67.3229L56.3059 137.318H173.35Z" fill="#7F8499"/>
<path d="M100.862 103.909L115.737 88.659C116.949 87.4166 118.913 87.4166 120.125 88.659L121.944 90.5232C123.155 91.7656 125.12 91.7656 126.332 90.5232L132.579 84.1185L119.708 67.3235C117.223 64.081 112.432 64.081 109.947 67.3235L93.312 89.0299L100.862 103.909Z" fill="#E4EAF8"/>
<path d="M176.896 134.136H140.32L79.3633 54.5956C76.8781 51.3531 72.0874 51.3531 69.6022 54.5956L10.5089 131.704C9.33221 133.24 7.53292 134.136 5.62851 134.136H3.10359C1.38797 134.136 0 135.559 0 137.318C0 139.077 1.38797 140.5 3.10359 140.5H176.896C178.612 140.5 180 139.077 180 137.318C180 135.559 178.612 134.136 176.896 134.136Z" fill="#5B5D6E"/>
<path d="M60.0934 134.136H140.32L80.0344 55.4713L57.1337 129.998C56.5037 132.049 57.9967 134.136 60.0934 134.136Z" fill="#707487"/>
<path d="M60.7837 88.2729C63.2074 90.7582 67.1375 90.7582 69.5615 88.2729L76.3009 81.3633C78.7246 78.8784 82.6547 78.8784 85.0787 81.3633L85.6114 81.9094C88.035 84.3946 91.9651 84.3946 94.3891 81.9094L97.6966 78.5184L79.3634 54.5963C76.8782 51.3538 72.0875 51.3538 69.6023 54.5963L51.269 78.5184L60.7837 88.2729Z" fill="#D5DCED"/>
<path d="M85.6114 81.9093C88.0351 84.3946 91.9652 84.3946 94.3892 81.9093L97.6967 78.5183L80.0346 55.4718L70.1367 87.6836L76.3014 81.3637C78.725 78.8788 82.6551 78.8788 85.0792 81.3637L85.6114 81.9093Z" fill="#E4EAF8"/>
<path d="M111.724 29.1362C110.009 29.1362 108.62 27.7114 108.62 25.9543V3.68196C108.62 1.92482 110.008 0.5 111.724 0.5C113.439 0.5 114.828 1.92482 114.828 3.68196V25.9546C114.828 27.7118 113.44 29.1362 111.724 29.1362Z" fill="#FFF082"/>
<path d="M167.586 64.1365H145.862C144.147 64.1365 142.758 62.7117 142.758 60.9545C142.758 59.1974 144.146 57.7726 145.862 57.7726H167.586C169.301 57.7726 170.69 59.1974 170.69 60.9545C170.69 62.7117 169.301 64.1365 167.586 64.1365Z" fill="#FFF082"/>
<path d="M128.79 33.8252C128.262 33.8252 127.729 33.6882 127.241 33.3995C125.756 32.52 125.247 30.5747 126.104 29.0522L133.863 15.2744C134.721 13.7519 136.621 13.2314 138.103 14.1091C139.588 14.9886 140.098 16.9339 139.24 18.4564L131.481 32.2342C130.905 33.2549 129.863 33.8252 128.79 33.8252Z" fill="#FFF8C1"/>
<path d="M141.291 46.6363C140.218 46.6363 139.176 46.0661 138.6 45.0453C137.742 43.5228 138.251 41.5775 139.736 40.6981L153.175 32.7435C154.654 31.864 156.554 32.3849 157.415 33.9088C158.273 35.4313 157.763 37.3766 156.278 38.2561L142.84 46.2106C142.352 46.4997 141.818 46.6363 141.291 46.6363Z" fill="#FFF8C1"/>
<path d="M94.6578 33.8252C93.5849 33.8252 92.5425 33.2549 91.9663 32.2342L84.2077 18.4564C83.3498 16.9339 83.8593 14.9886 85.3443 14.1091C86.8233 13.2314 88.7235 13.7519 89.5844 15.2744L97.3431 29.0522C98.2009 30.5747 97.6915 32.52 96.2065 33.3995C95.7185 33.6882 95.1852 33.8252 94.6578 33.8252Z" fill="#FFF8C1"/>
<path d="M154.723 89.5909C154.196 89.5909 153.663 89.454 153.175 89.1653L139.736 81.2107C138.251 80.3312 137.742 78.3859 138.6 76.8634C139.458 75.3395 141.355 74.8172 142.84 75.6981L156.278 83.6527C157.763 84.5322 158.273 86.4775 157.415 88C156.839 89.0204 155.796 89.5909 154.723 89.5909Z" fill="#FFF8C1"/>
<path d="M82.156 46.6363C81.6287 46.6363 81.0954 46.4993 80.6074 46.2106L67.169 38.2561C65.684 37.3766 65.1745 35.4313 66.0324 33.9088C66.8902 32.3849 68.79 31.864 70.2725 32.7435L83.711 40.6981C85.196 41.5775 85.7054 43.5228 84.8476 45.0453C84.2714 46.0661 83.2294 46.6363 82.156 46.6363Z" fill="#FFF8C1"/>
</svg>
