<svg width="145" height="118" viewBox="0 0 145 118" fill="none" xmlns="http://www.w3.org/2000/svg">
<path d="M72.5 47.0787L69.0938 59L72.4998 70.9213C79.0733 70.9213 84.4211 65.5733 84.4211 59C84.4211 52.4267 79.0732 47.0787 72.5 47.0787Z" fill="#E04C00"/>
<path d="M72.4999 47.0787C65.9264 47.0787 60.5786 52.4267 60.5786 59C60.5786 65.5733 65.9266 70.9213 72.4999 70.9213V47.0787Z" fill="#FF7D3C"/>
<path d="M115.5 69.0209V48.9791H107.535C106.774 46.3094 105.71 43.7431 104.358 41.3136L109.991 35.6801L95.8197 21.5085L90.1862 27.1422C87.7562 25.7896 85.1906 24.726 82.5207 23.9644V15.9998H72.4998L69.0938 23.9358L72.4998 31.1238C87.8709 31.1238 100.376 43.6289 100.376 59C100.376 74.371 87.8709 86.8762 72.4998 86.8762L69.0938 94.9344L72.4997 102H82.5206V94.0357C85.1904 93.2742 87.7558 92.2106 90.186 90.8579L95.8196 96.4916L109.991 82.32L104.358 76.6865C105.71 74.257 106.774 71.6909 107.535 69.0211H115.5V69.0209Z" fill="#E04C00"/>
<path d="M72.5002 102V86.8762C57.1291 86.8762 44.624 74.371 44.624 59C44.624 43.6289 57.1291 31.1238 72.5002 31.1238V15.9998H62.4793V23.9642C59.8094 24.7258 57.244 25.7894 54.8138 27.142L49.1803 21.5083L35.0087 35.6799L40.6423 41.3135C39.2899 43.743 38.226 46.309 37.4646 48.9789H29.5V69.0207H37.4644C38.226 71.6904 39.2898 74.2567 40.6421 76.6862L35.0086 82.3197L49.1802 96.4913L54.8137 90.8576C57.2437 92.2103 59.8093 93.2738 62.4791 94.0354V102H72.5002Z" fill="#FF7D3C"/>
<path d="M72.4999 36.2328L70.7969 38.8938L72.4999 41.9691C81.8908 41.9691 89.5305 49.609 89.5305 58.9997C89.5305 68.3904 81.8908 76.0303 72.4999 76.0303L70.7969 78.6985L72.4999 81.767C85.0538 81.767 95.267 71.5538 95.267 58.9999C95.267 46.446 85.0538 36.2328 72.4999 36.2328Z" fill="#FF7D3C"/>
<path d="M72.4998 76.0305C63.1089 76.0305 55.4692 68.3906 55.4692 58.9999C55.4692 49.6092 63.1089 41.9693 72.4998 41.9693V36.2328C59.9459 36.2328 49.7327 46.446 49.7327 58.9999C49.7327 71.5538 59.9459 81.767 72.4998 81.767V76.0305Z" fill="#FFB995"/>
</svg>
